<svg width="1440" height="1289" viewBox="0 0 1440 1289" fill="none" xmlns="http://www.w3.org/2000/svg">
<rect width="1440" height="1289" fill="white"/>
<path d="M115.224 106.816C115.416 106.752 115.736 106.72 116.184 106.72C117.144 106.72 117.88 107.04 118.392 107.68C118.904 108.32 119.16 109.184 119.16 110.272C119.16 112.256 118.776 113.824 118.008 114.976C117.24 116.064 116.088 116.864 114.552 117.376C111.608 118.336 108.472 118.816 105.144 118.816C102.328 118.816 99.672 118.432 97.176 117.664C95.32 120.672 93.272 123.776 91.032 126.976C88.472 130.624 86.264 133.12 84.408 134.464C82.616 135.808 80.568 136.48 78.264 136.48C75.704 136.48 73.752 135.488 72.408 133.504C71.128 131.52 70.328 128.256 70.008 123.712L69.528 116.704C67.544 122.08 65.752 126.176 64.152 128.992C62.616 131.808 61.048 133.76 59.448 134.848C57.912 135.936 56.088 136.48 53.976 136.48C51.352 136.48 49.272 135.456 47.736 133.408C46.264 131.36 45.336 128.128 44.952 123.712C44.184 114.752 43.8 106.912 43.8 100.192V96.832C43.864 94.72 44.44 93.248 45.528 92.416C46.616 91.584 48.248 91.168 50.424 91.168C52.088 91.168 53.304 91.552 54.072 92.32C54.904 93.024 55.32 94.24 55.32 95.968C55.32 103.328 55.768 112.896 56.664 124.672C61.016 115.52 65.016 105.984 68.664 96.064C69.368 94.144 70.2 92.864 71.16 92.224C72.184 91.52 73.4 91.168 74.808 91.168C76.536 91.168 77.72 91.52 78.36 92.224C79.064 92.928 79.416 94.176 79.416 95.968C79.416 103.328 79.864 112.896 80.76 124.672C84.6 118.976 87.48 114.432 89.4 111.04C88.44 109.184 87.96 106.976 87.96 104.416C87.96 102.24 88.44 100.128 89.4 98.08C90.36 96.032 91.672 94.368 93.336 93.088C95 91.808 96.888 91.168 99 91.168C100.856 91.168 102.36 91.84 103.512 93.184C104.664 94.464 105.24 96.352 105.24 98.848C105.24 101.728 104.472 105.024 102.936 108.736C105.368 108.608 108.6 108.128 112.632 107.296L115.224 106.816ZM159.787 106.528C160.619 106.528 161.259 106.944 161.707 107.776C162.155 108.608 162.379 109.664 162.379 110.944C162.379 114.016 161.451 115.84 159.595 116.416C155.755 117.76 151.531 118.528 146.923 118.72C145.707 124.096 143.307 128.416 139.723 131.68C136.139 134.88 132.075 136.48 127.531 136.48C123.691 136.48 120.395 135.552 117.643 133.696C114.955 131.84 112.907 129.376 111.499 126.304C110.091 123.232 109.387 119.904 109.387 116.32C109.387 111.456 110.315 107.136 112.171 103.36C114.027 99.52 116.587 96.544 119.851 94.432C123.115 92.256 126.731 91.168 130.699 91.168C135.563 91.168 139.467 92.864 142.411 96.256C145.419 99.584 147.179 103.712 147.691 108.64C150.699 108.448 154.283 107.808 158.443 106.72C158.955 106.592 159.403 106.528 159.787 106.528ZM128.299 126.304C130.347 126.304 132.107 125.472 133.579 123.808C135.115 122.144 136.139 119.744 136.651 116.608C134.667 115.264 133.131 113.504 132.043 111.328C131.019 109.152 130.507 106.848 130.507 104.416C130.507 103.392 130.603 102.368 130.795 101.344H130.315C127.755 101.344 125.611 102.592 123.883 105.088C122.219 107.52 121.387 110.976 121.387 115.456C121.387 118.976 122.059 121.664 123.403 123.52C124.811 125.376 126.443 126.304 128.299 126.304ZM160.955 136.48C158.523 136.48 156.795 135.2 155.771 132.64C154.811 130.08 154.331 125.984 154.331 120.352C154.331 112.032 155.515 104.128 157.883 96.64C158.459 94.784 159.387 93.44 160.667 92.608C162.011 91.712 163.867 91.264 166.235 91.264C167.515 91.264 168.411 91.424 168.923 91.744C169.435 92.064 169.691 92.672 169.691 93.568C169.691 94.592 169.211 96.896 168.251 100.48C167.611 103.04 167.099 105.28 166.715 107.2C166.331 109.12 166.011 111.488 165.755 114.304C167.867 108.8 170.235 104.32 172.859 100.864C175.483 97.408 178.043 94.944 180.539 93.472C183.099 92 185.435 91.264 187.547 91.264C191.707 91.264 193.787 93.344 193.787 97.504C193.787 98.336 193.499 100.352 192.923 103.552C192.411 106.112 192.155 107.712 192.155 108.352C192.155 110.592 192.955 111.712 194.555 111.712C196.347 111.712 198.651 110.304 201.467 107.488C202.299 106.656 203.163 106.24 204.059 106.24C204.891 106.24 205.531 106.624 205.979 107.392C206.491 108.096 206.747 109.056 206.747 110.272C206.747 112.64 206.107 114.496 204.827 115.84C203.035 117.696 200.923 119.296 198.491 120.64C196.123 121.92 193.595 122.56 190.907 122.56C187.515 122.56 184.923 121.696 183.131 119.968C181.403 118.24 180.539 115.904 180.539 112.96C180.539 112 180.635 111.04 180.827 110.08C180.955 108.8 181.019 107.936 181.019 107.488C181.019 106.464 180.667 105.952 179.963 105.952C179.003 105.952 177.723 107.04 176.123 109.216C174.587 111.328 173.051 114.144 171.515 117.664C169.979 121.184 168.731 124.896 167.771 128.8C167.067 131.808 166.235 133.856 165.275 134.944C164.379 135.968 162.939 136.48 160.955 136.48ZM253.315 114.592C254.147 114.592 254.787 114.976 255.235 115.744C255.747 116.512 256.003 117.568 256.003 118.912C256.003 121.472 255.395 123.456 254.179 124.864C251.299 128.384 248.387 131.2 245.443 133.312C242.499 135.424 239.011 136.48 234.979 136.48C230.051 136.48 226.083 135.072 223.075 132.256C220.067 129.44 218.563 125.696 218.563 121.024C218.563 118.528 219.843 116.736 222.403 115.648C225.219 114.432 227.235 113.152 228.451 111.808C229.667 110.4 230.275 108.704 230.275 106.72C230.275 105.568 230.019 104.704 229.507 104.128C229.059 103.552 228.483 103.264 227.779 103.264C226.051 103.264 224.131 104.512 222.019 107.008C219.971 109.504 218.051 112.736 216.259 116.704C214.467 120.608 213.059 124.64 212.035 128.8C211.331 131.808 210.499 133.856 209.539 134.944C208.643 135.968 207.203 136.48 205.219 136.48C203.235 136.48 201.763 135.776 200.803 134.368C199.907 132.896 199.299 130.656 198.979 127.648C198.659 124.64 198.499 120.224 198.499 114.4C198.499 104.544 199.491 94.272 201.475 83.584C203.523 72.896 206.499 63.936 210.403 56.704C214.371 49.408 219.107 45.76 224.611 45.76C227.555 45.76 229.923 47.04 231.715 49.6C233.571 52.096 234.499 55.36 234.499 59.392C234.499 65.856 232.611 72.576 228.835 79.552C225.059 86.464 218.915 94.56 210.403 103.84C210.211 107.168 210.115 110.592 210.115 114.112C213.187 106.112 216.707 100.32 220.675 96.736C224.643 93.088 228.355 91.264 231.811 91.264C235.011 91.264 237.571 92.352 239.491 94.528C241.475 96.704 242.467 99.392 242.467 102.592C242.467 106.112 241.571 109.344 239.779 112.288C237.987 115.232 234.915 117.856 230.563 120.16C230.819 121.888 231.587 123.296 232.867 124.384C234.211 125.408 235.811 125.92 237.667 125.92C239.651 125.92 241.571 125.152 243.427 123.616C245.283 122.08 247.715 119.52 250.723 115.936C251.491 115.04 252.355 114.592 253.315 114.592ZM222.595 55.264C221.443 55.264 220.163 56.928 218.755 60.256C217.347 63.52 215.971 67.968 214.627 73.6C213.347 79.168 212.291 85.248 211.459 91.84C215.427 87.168 218.691 82.08 221.251 76.576C223.875 71.072 225.187 66.08 225.187 61.6C225.187 59.552 224.963 57.984 224.515 56.896C224.067 55.808 223.427 55.264 222.595 55.264ZM266.12 138.592C262.792 138.592 260.232 137.824 258.44 136.288C256.712 134.752 255.848 133.024 255.848 131.104C255.848 129.44 256.456 128 257.672 126.784C258.888 125.568 260.68 124.96 263.048 124.96C263.88 124.96 264.84 125.056 265.928 125.248C267.08 125.376 267.944 125.472 268.52 125.536C268.456 123.872 268.072 122.304 267.368 120.832C266.728 119.36 265.896 117.952 264.872 116.608C263.848 115.2 262.888 113.984 261.992 112.96C260.008 116.736 258.024 119.872 256.04 122.368C254.12 124.864 252.008 127.232 249.704 129.472C248.552 130.624 247.336 131.2 246.056 131.2C245.032 131.2 244.2 130.848 243.56 130.144C242.92 129.376 242.6 128.448 242.6 127.36C242.6 126.08 243.048 124.896 243.944 123.808L245.192 122.272C248.712 117.92 251.368 114.336 253.16 111.52C254.312 109.664 255.464 107.456 256.616 104.896C257.832 102.336 259.4 98.848 261.32 94.432C262.536 91.616 265.064 90.208 268.904 90.208C270.696 90.208 271.944 90.368 272.648 90.688C273.352 91.008 273.704 91.52 273.704 92.224C273.704 92.608 273.576 93.216 273.32 94.048C273.064 94.88 272.712 95.712 272.264 96.544C271.112 98.848 270.536 100.8 270.536 102.4C270.536 103.36 270.856 104.416 271.496 105.568C272.2 106.72 273.256 108.16 274.664 109.888C276.712 112.576 278.248 114.88 279.272 116.8C280.36 118.656 280.904 120.704 280.904 122.944C280.904 125.632 280.264 128.192 278.984 130.624C277.768 132.992 276.04 134.912 273.8 136.384C271.56 137.856 269 138.592 266.12 138.592ZM318.076 136.48C315.26 136.48 313.116 135.712 311.644 134.176C310.236 132.64 309.532 130.624 309.532 128.128C309.532 125.248 310.332 122.944 311.932 121.216C313.596 119.488 315.9 118.624 318.844 118.624C321.66 118.624 323.772 119.328 325.18 120.736C326.652 122.08 327.388 124.096 327.388 126.784C327.388 129.728 326.556 132.096 324.892 133.888C323.228 135.616 320.956 136.48 318.076 136.48ZM342.732 136.48C339.916 136.48 337.772 135.712 336.3 134.176C334.892 132.64 334.188 130.624 334.188 128.128C334.188 125.248 334.988 122.944 336.588 121.216C338.252 119.488 340.556 118.624 343.5 118.624C346.316 118.624 348.428 119.328 349.836 120.736C351.308 122.08 352.044 124.096 352.044 126.784C352.044 129.728 351.212 132.096 349.548 133.888C347.884 135.616 345.612 136.48 342.732 136.48ZM367.388 136.48C364.572 136.48 362.428 135.712 360.956 134.176C359.548 132.64 358.844 130.624 358.844 128.128C358.844 125.248 359.644 122.944 361.244 121.216C362.908 119.488 365.212 118.624 368.156 118.624C370.972 118.624 373.084 119.328 374.492 120.736C375.964 122.08 376.7 124.096 376.7 126.784C376.7 129.728 375.868 132.096 374.204 133.888C372.54 135.616 370.268 136.48 367.388 136.48Z" fill="#B5A6A6"/>
<g clip-path="url(#clip0)">
<path d="M410.582 1188C438.427 1188 461 1185.26 461 1181.88C461 1178.5 438.427 1175.76 410.582 1175.76C382.736 1175.76 360.163 1178.5 360.163 1181.88C360.163 1185.26 382.736 1188 410.582 1188Z" fill="#3F3D56"/>
<path d="M222.211 925.981H70V1014.81H222.211V925.981Z" fill="#F2F2F2"/>
<path d="M231.811 917.327H79.6005V1006.16H231.811V917.327Z" stroke="#3F3D56" stroke-width="2" stroke-miterlimit="10"/>
<path d="M179.085 983.286C183.674 978.993 186.8 973.523 188.066 967.568C189.332 961.613 188.682 955.44 186.198 949.831C183.715 944.221 179.509 939.427 174.112 936.054C168.715 932.68 162.371 930.88 155.88 930.88V961.579L179.085 983.286Z" fill="#3F3D56"/>
<path d="M155.88 930.88C148.586 930.881 141.501 933.154 135.742 937.342C129.983 941.53 125.88 947.393 124.08 954.005C122.279 960.617 122.885 967.602 125.801 973.856C128.717 980.111 133.777 985.278 140.182 988.543L155.88 961.579V930.88Z" fill="#877373"/>
<path d="M179.085 983.286L155.88 961.579L140.182 988.543C146.405 991.71 153.556 992.909 160.567 991.962C167.579 991.015 174.074 987.971 179.085 983.286Z" fill="#575A89"/>
<path d="M91.6446 987.706H85.3607V993.584H91.6446V987.706Z" fill="#877373"/>
<path d="M100.721 987.706H94.4375V993.584H100.721V987.706Z" fill="#3F3D56"/>
<path d="M109.798 987.706H103.514V993.584H109.798V987.706Z" fill="#575A89"/>
<path d="M219.767 989.012H193.933V989.991H219.767V989.012Z" fill="#3F3D56"/>
<path d="M219.767 991.951H193.933V992.931H219.767V991.951Z" fill="#3F3D56"/>
<path d="M219.767 994.891H193.933V995.87H219.767V994.891Z" fill="#3F3D56"/>
<path d="M204.406 1049.76H117.828V1138.59H204.406V1049.76Z" fill="#F2F2F2"/>
<path d="M213.134 1041.27H126.555V1130.1H213.134V1041.27Z" stroke="#3F3D56" stroke-width="2" stroke-miterlimit="10"/>
<path d="M135.762 1120.07H131.094V1124.44H135.762V1120.07Z" fill="#877373"/>
<path d="M142.505 1120.07H137.837V1124.44H142.505V1120.07Z" fill="#3F3D56"/>
<path d="M149.247 1120.07H144.579V1124.44H149.247V1120.07Z" fill="#575A89"/>
<path d="M201.613 1121.97H183.46V1122.66H201.613V1121.97Z" fill="#3F3D56"/>
<path d="M201.613 1124.04H183.46V1124.73H201.613V1124.04Z" fill="#3F3D56"/>
<path d="M201.613 1126.1H183.46V1126.79H201.613V1126.1Z" fill="#3F3D56"/>
<path d="M169.845 1056.94V1064.13C174.402 1064.13 178.856 1065.39 182.646 1067.76C186.435 1070.13 189.388 1073.49 191.132 1077.43C192.876 1081.37 193.332 1085.7 192.443 1089.89C191.554 1094.07 189.359 1097.91 186.137 1100.92L191.568 1106C195.864 1101.98 198.79 1096.86 199.976 1091.29C201.161 1085.71 200.553 1079.93 198.227 1074.68C195.902 1069.43 191.965 1064.94 186.913 1061.78C181.86 1058.63 175.921 1056.94 169.845 1056.94V1056.94Z" fill="#3F3D56"/>
<path d="M191.568 1106L186.137 1100.92C182.198 1104.61 176.964 1106.83 171.405 1107.19C165.847 1107.54 160.34 1105.99 155.904 1102.84L151.256 1108.56C157.17 1112.77 164.513 1114.82 171.925 1114.35C179.337 1113.88 186.315 1110.92 191.568 1106Z" fill="#575A89"/>
<path d="M146.804 1085.68C146.804 1079.96 149.231 1074.48 153.552 1070.44C157.873 1066.4 163.734 1064.13 169.845 1064.13V1056.94C163.413 1056.94 157.144 1058.83 151.921 1062.34C146.698 1065.85 142.784 1070.8 140.731 1076.51C138.678 1082.21 138.589 1088.37 140.477 1094.12C142.365 1099.87 146.135 1104.92 151.256 1108.56L155.904 1102.84C153.074 1100.83 150.779 1098.24 149.2 1095.26C147.621 1092.28 146.801 1089 146.804 1085.68V1085.68Z" fill="#877373"/>
<path d="M395.237 963.046C395.237 963.046 393.812 972.945 397.475 974.087C401.138 975.23 400.121 983.986 400.121 983.986L389.132 991.791L379.364 992.553L376.922 980.75L378.347 977.704C378.347 977.704 383.841 971.613 379.975 965.331C376.108 959.048 395.237 963.046 395.237 963.046Z" fill="#FFB9B9"/>
<path opacity="0.1" d="M395.237 963.046C395.237 963.046 393.812 972.945 397.475 974.087C401.138 975.23 400.121 983.986 400.121 983.986L389.132 991.791L379.364 992.553L376.922 980.75L378.347 977.704C378.347 977.704 383.841 971.613 379.975 965.331C376.108 959.048 395.237 963.046 395.237 963.046Z" fill="black"/>
<path d="M385.062 1040.14L372.242 1068.32C372.242 1068.32 362.271 1062.99 356.37 1063.56C350.468 1064.13 343.143 1057.47 343.143 1057.47L350.468 1024.34L364.102 989.126L383.027 1000.36L385.062 1040.14Z" fill="#575A89"/>
<path opacity="0.1" d="M385.062 1040.14L372.242 1068.32C372.242 1068.32 362.271 1062.99 356.37 1063.56C350.468 1064.13 343.143 1057.47 343.143 1057.47L350.468 1024.34L364.102 989.126L383.027 1000.36L385.062 1040.14Z" fill="black"/>
<path d="M405.208 1159.88V1169.02H396.051L397.475 1158.36L405.208 1159.88Z" fill="#575A89"/>
<path d="M429.017 1144.08L435.732 1147.89L430.848 1158.36L425.761 1157.79L420.877 1151.32L429.017 1144.08Z" fill="#575A89"/>
<path d="M407.039 1037.48L419.046 1063.94C419.046 1063.94 414.772 1093.26 414.976 1095.73C415.179 1098.21 415.383 1099.16 414.365 1101.25C413.348 1103.35 412.941 1104.68 413.551 1107.15C414.162 1109.63 414.365 1110.58 413.958 1111.53C413.551 1112.48 410.702 1151.7 409.278 1154.36C407.853 1157.03 410.092 1161.41 408.667 1161.79C407.243 1162.17 396.661 1161.22 396.051 1158.93C395.44 1156.65 398.086 1151.13 396.661 1149.41C395.237 1147.7 396.865 1086.02 394.83 1081.83C392.795 1077.65 370.411 1073.84 370.411 1073.84C370.411 1073.84 368.376 1061.66 369.597 1059.75C370.818 1057.85 372.446 1045.86 372.446 1045.86L407.039 1037.48Z" fill="#2F2E41"/>
<path d="M395.237 1167.5C395.237 1167.5 400.935 1161.22 405.818 1167.5C405.818 1167.5 406.225 1174.92 409.685 1176.45C413.144 1177.97 411.516 1184.06 406.632 1184.25C401.748 1184.44 395.44 1185.2 395.237 1182.73C395.033 1180.25 396.051 1178.73 394.219 1177.97C392.388 1177.21 394.219 1172.83 394.219 1172.83L395.237 1167.5Z" fill="#2F2E41"/>
<path d="M395.847 1076.5C395.847 1076.5 395.644 1090.21 394.219 1092.11C392.795 1094.02 391.981 1095.16 392.795 1097.25C393.609 1099.35 394.83 1103.15 394.219 1103.92C393.609 1104.68 394.83 1108.68 394.83 1108.68C394.83 1108.68 410.499 1115.72 417.824 1130.38C417.824 1130.38 425.354 1141.99 427.592 1142.18C429.831 1142.37 432.476 1140.85 431.255 1145.23C430.034 1149.6 425.354 1155.31 421.894 1154.74C418.435 1154.17 415.789 1148.65 415.789 1148.65C415.789 1148.65 388.725 1122.95 385.876 1122.19C383.027 1121.43 374.887 1115.34 373.463 1111.53C372.038 1107.72 368.986 1075.93 370.41 1073.84C371.835 1071.74 377.126 1068.89 377.126 1068.89L395.847 1076.5Z" fill="#2F2E41"/>
<path d="M431.052 1143.32C431.052 1143.32 443.668 1143.7 443.872 1146.56C444.075 1149.41 438.581 1166.36 439.395 1170.35C440.209 1174.35 433.086 1183.49 428.406 1181.59C423.726 1179.68 427.389 1169.78 427.389 1169.78C427.389 1169.78 422.708 1156.27 423.522 1156.08C424.336 1155.89 432.476 1153.6 432.069 1151.32C431.662 1149.03 431.052 1143.32 431.052 1143.32Z" fill="#2F2E41"/>
<path d="M385.774 973.231C392.742 973.231 398.391 967.947 398.391 961.428C398.391 954.91 392.742 949.625 385.774 949.625C378.806 949.625 373.158 954.91 373.158 961.428C373.158 967.947 378.806 973.231 385.774 973.231Z" fill="#FFB9B9"/>
<path d="M398.493 979.608C398.493 979.608 391.574 986.461 386.486 985.319C381.399 984.177 378.754 975.991 378.754 975.991L369.597 974.468C369.597 974.468 363.085 1001.5 363.085 1004.17C363.085 1006.83 369.597 1035.58 369.597 1040.72C369.597 1045.86 364.306 1048.9 372.445 1048.71C380.585 1048.52 376.719 1046.05 388.521 1045.86C400.324 1045.66 402.155 1048.14 404.597 1044.14C406.263 1041.53 408.319 1039.16 410.702 1037.1L406.429 1023.01L405.818 983.225C405.818 983.225 400.601 973.707 398.224 974.468C398.224 974.468 399.51 978.656 398.493 979.608Z" fill="#877373"/>
<path d="M395.986 972.785C395.986 972.785 406.836 973.897 409.888 975.991C412.941 978.085 421.487 979.608 421.284 981.131C421.08 982.654 411.313 1004.36 411.313 1004.36C411.313 1004.36 406.836 1021.49 410.702 1025.49C414.569 1029.48 429.017 1073.08 426.575 1076.69C424.133 1080.31 416.4 1065.65 416.4 1065.65C416.4 1065.65 406.022 1034.24 400.324 1028.91C394.626 1023.58 394.219 994.837 394.219 993.505C394.219 992.172 395.986 972.785 395.986 972.785Z" fill="#575A89"/>
<path d="M380.116 974.992C380.116 974.992 366.748 970.28 362.067 972.183C357.387 974.087 354.538 974.468 354.538 974.468L352.91 993.124C352.91 993.124 352.3 1019.97 347.009 1026.44C341.718 1032.91 338.259 1059.94 339.073 1062.61C339.887 1065.27 337.648 1069.84 341.108 1068.7C344.567 1067.56 354.131 1041.29 354.131 1041.29C354.131 1041.29 354.131 1026.25 359.829 1022.06C365.527 1017.87 374.887 1000.55 375.294 996.36C375.701 992.172 379.568 980.56 379.568 980.56L380.116 974.992Z" fill="#575A89"/>
<path d="M425.964 1035C425.964 1035 419.859 1045.66 419.045 1047.57C418.232 1049.47 412.534 1062.42 404.394 1059.56C396.254 1056.71 412.33 1042.81 412.33 1042.81L415.993 1031.2C415.993 1031.2 425.557 1029.29 425.964 1035Z" fill="#FFB9B9"/>
<path d="M356.573 974.468H354.538C354.538 974.468 352.503 972.945 350.061 973.897C347.619 974.849 341.922 973.516 341.922 974.088C341.922 974.659 335.613 972.374 332.968 973.516C330.323 974.659 320.758 975.039 320.758 975.039C320.758 975.039 316.892 984.177 319.537 985.89C322.183 987.603 326.049 986.271 327.881 987.603C329.712 988.936 333.171 987.413 334.392 989.126C335.613 990.84 340.09 993.885 341.108 991.982C342.125 990.078 340.09 988.365 344.364 990.459C348.637 992.553 355.352 992.553 355.352 992.553L356.573 974.468Z" fill="#575A89"/>
<path d="M386.912 952.708C385.204 952.339 383.432 952.748 381.703 953.013C379.974 953.278 378.068 953.365 376.605 952.463C375.525 951.796 374.861 950.693 374.237 949.633C373.977 949.254 373.803 948.829 373.728 948.384C373.654 947.6 374.188 946.884 374.754 946.301C377.385 943.596 381.231 942.115 385.108 941.644C388.296 941.258 391.619 941.517 394.562 942.724C397.506 943.932 400.036 946.144 401.194 948.949C401.727 950.385 402.059 951.879 402.184 953.394C402.359 954.509 402.381 955.64 402.251 956.76C402.095 957.591 401.861 958.407 401.553 959.199L399.636 964.614C399.498 965.126 399.241 965.603 398.883 966.01C398.698 966.21 398.45 966.348 398.175 966.405C397.899 966.461 397.612 966.432 397.355 966.323C397.509 965.735 397.532 965.124 397.424 964.527C397.364 964.229 397.21 963.956 396.982 963.741C396.755 963.526 396.463 963.379 396.146 963.321C395.439 963.251 394.835 963.763 394.165 963.984C393.843 964.073 393.504 964.099 393.17 964.06C392.837 964.021 392.515 963.918 392.226 963.757C391.938 963.596 391.687 963.381 391.492 963.125C391.296 962.869 391.159 962.579 391.089 962.271C390.983 961.652 391.161 960.989 390.91 960.408C390.616 959.727 389.837 959.37 389.251 958.88C388.717 958.419 388.335 957.825 388.149 957.167C387.964 956.51 387.983 955.816 388.204 955.168C388.361 954.718 388.803 954.513 388.715 953.995C388.599 953.316 387.528 952.841 386.912 952.708Z" fill="#2F2E41"/>
<path d="M333.576 994.237H246.997V1083.07H333.576V994.237Z" fill="#F2F2F2"/>
<path d="M342.304 985.746H255.725V1074.58H342.304V985.746Z" stroke="#3F3D56" stroke-width="2" stroke-miterlimit="10"/>
<path d="M264.104 991.298V1059.23H334.274" stroke="#3F3D56" stroke-width="2" stroke-miterlimit="10"/>
<path d="M283.654 1035.39H267.944V1058.9H283.654V1035.39Z" fill="#575A89"/>
<path d="M306.346 1019.38H290.636V1058.9H306.346V1019.38Z" fill="#3F3D56"/>
<path d="M329.038 1000.77H313.328V1058.9H329.038V1000.77Z" fill="#877373"/>
<path d="M267.724 1064.56H263.056V1068.92H267.724V1064.56Z" fill="#877373"/>
<path d="M274.467 1064.56H269.799V1068.92H274.467V1064.56Z" fill="#3F3D56"/>
<path d="M281.21 1064.56H276.542V1068.92H281.21V1064.56Z" fill="#575A89"/>
<path d="M333.576 1066.45H315.422V1067.14H333.576V1066.45Z" fill="#3F3D56"/>
<path d="M333.576 1068.52H315.422V1069.21H333.576V1068.52Z" fill="#3F3D56"/>
<path d="M333.576 1070.58H315.422V1071.27H333.576V1070.58Z" fill="#3F3D56"/>
<path d="M322.861 975.029C326.572 975.179 329.329 978.327 328.927 981.781C328.564 984.911 327.222 988.804 322.997 990.3C315.467 992.965 315.874 977.926 317.299 977.355C318.249 976.974 319.741 974.902 322.861 975.029Z" fill="#FFB9B9"/>
<path d="M419.046 980.114L421.284 981.131C421.284 981.131 426.168 990.459 426.371 991.791C426.575 993.124 429.831 998.073 428.61 999.406C427.389 1000.74 425.557 1004.16 426.778 1005.5C427.999 1006.83 430.848 1012.16 430.848 1014.06C430.848 1015.97 427.796 1021.11 429.831 1021.68C431.866 1022.25 431.255 1029.67 430.848 1030.24C430.441 1030.82 425.15 1040.14 425.15 1040.14C425.15 1040.14 424.133 1029.48 414.162 1033.86C414.162 1033.86 413.348 1028.53 414.162 1028.15C414.976 1027.77 417.011 1025.49 415.383 1025.11C413.755 1024.72 411.516 1020.16 411.923 1019.58C412.33 1019.01 413.348 1018.25 412.33 1017.68C411.313 1017.11 410.499 1013.87 410.702 1013.3C410.906 1012.73 408.464 1010.07 408.464 1010.07L419.046 980.114Z" fill="#575A89"/>
</g>
<g clip-path="url(#clip1)">
<path d="M1104.21 269.192H769.139V486.527H1104.21V269.192Z" fill="#E6E6E6"/>
<path d="M919.734 298.377H798.769V424.263H919.734V298.377Z" fill="white"/>
<path d="M1085.94 300.818H964.978V453.714H1085.94V300.818Z" fill="white"/>
<path d="M1084.33 502.329C1096.3 502.329 1106 500.925 1106 499.194C1106 497.462 1096.3 496.059 1084.33 496.059C1072.36 496.059 1062.66 497.462 1062.66 499.194C1062.66 500.925 1072.36 502.329 1084.33 502.329Z" fill="#E6E6E6"/>
<path d="M867.687 502.399C879.654 502.399 889.356 500.995 889.356 499.264C889.356 497.533 879.654 496.129 867.687 496.129C855.719 496.129 846.018 497.533 846.018 499.264C846.018 500.995 855.719 502.399 867.687 502.399Z" fill="#E6E6E6"/>
<path d="M731.732 498.54C759.198 498.54 781.463 497.461 781.463 496.129C781.463 494.797 759.198 493.717 731.732 493.717C704.266 493.717 682 494.797 682 496.129C682 497.461 704.266 498.54 731.732 498.54Z" fill="#E6E6E6"/>
<path d="M1104.07 269H768.996V283.417H1104.07V269Z" fill="#877373"/>
<path d="M779.575 279.043C781.032 279.043 782.213 277.847 782.213 276.371C782.213 274.895 781.032 273.699 779.575 273.699C778.118 273.699 776.936 274.895 776.936 276.371C776.936 277.847 778.118 279.043 779.575 279.043Z" fill="#E6E6E6"/>
<path d="M789.589 279.043C791.046 279.043 792.228 277.847 792.228 276.371C792.228 274.895 791.046 273.699 789.589 273.699C788.132 273.699 786.951 274.895 786.951 276.371C786.951 277.847 788.132 279.043 789.589 279.043Z" fill="#E6E6E6"/>
<path d="M799.604 279.043C801.061 279.043 802.242 277.847 802.242 276.371C802.242 274.895 801.061 273.699 799.604 273.699C798.147 273.699 796.966 274.895 796.966 276.371C796.966 277.847 798.147 279.043 799.604 279.043Z" fill="#E6E6E6"/>
<path d="M1059.27 341.83H1058.54V321.5C1058.54 319.955 1058.24 318.425 1057.66 316.997C1057.07 315.569 1056.22 314.272 1055.14 313.18C1054.06 312.087 1052.78 311.22 1051.37 310.629C1049.96 310.038 1048.45 309.733 1046.92 309.733H1004.39C1002.87 309.733 1001.36 310.038 999.947 310.629C998.537 311.22 997.257 312.087 996.178 313.18C995.099 314.272 994.243 315.569 993.659 316.997C993.075 318.425 992.775 319.955 992.775 321.5V433.033C992.775 434.578 993.075 436.108 993.659 437.536C994.243 438.963 995.099 440.26 996.178 441.353C997.257 442.446 998.537 443.312 999.947 443.904C1001.36 444.495 1002.87 444.799 1004.39 444.799H1046.92C1048.45 444.799 1049.96 444.495 1051.37 443.904C1052.78 443.312 1054.06 442.446 1055.14 441.353C1056.22 440.26 1057.07 438.963 1057.66 437.536C1058.24 436.108 1058.54 434.578 1058.54 433.033V356.301H1059.27V341.83Z" fill="#3F3D56"/>
<path d="M1046.92 312.794H1041.36C1041.62 313.428 1041.72 314.116 1041.65 314.797C1041.58 315.478 1041.35 316.132 1040.97 316.7C1040.59 317.268 1040.08 317.734 1039.49 318.055C1038.89 318.377 1038.22 318.546 1037.55 318.546H1013.18C1012.51 318.546 1011.84 318.377 1011.24 318.055C1010.65 317.734 1010.14 317.268 1009.76 316.7C1009.38 316.132 1009.15 315.478 1009.08 314.797C1009.01 314.116 1009.11 313.428 1009.37 312.794H1004.18C1003.04 312.794 1001.91 313.022 1000.86 313.463C999.808 313.905 998.852 314.552 998.046 315.368C997.24 316.184 996.601 317.153 996.165 318.219C995.729 319.285 995.505 320.428 995.505 321.582V432.951C995.505 434.105 995.729 435.247 996.165 436.313C996.601 437.379 997.24 438.348 998.046 439.164C998.852 439.98 999.808 440.627 1000.86 441.069C1001.91 441.51 1003.04 441.738 1004.18 441.738H1046.92C1048.05 441.738 1049.18 441.51 1050.24 441.069C1051.29 440.627 1052.24 439.98 1053.05 439.164C1053.86 438.348 1054.49 437.379 1054.93 436.313C1055.37 435.247 1055.59 434.105 1055.59 432.951V321.582C1055.59 319.251 1054.68 317.016 1053.05 315.368C1051.42 313.72 1049.22 312.794 1046.92 312.794V312.794Z" fill="white"/>
<path d="M901.374 377.896H817.296V381.78H901.374V377.896Z" fill="#E6E6E6"/>
<path d="M901.374 390.437H817.296V394.321H901.374V390.437Z" fill="#877373"/>
<path d="M901.374 402.977H817.296V406.861H901.374V402.977Z" fill="#E6E6E6"/>
<path d="M1050.57 386.371H1001.48V390.255H1050.57V386.371Z" fill="#E6E6E6"/>
<path d="M1050.57 398.429H1001.48V402.313H1050.57V398.429Z" fill="#E6E6E6"/>
<path d="M1050.57 410.487H1001.48V414.371H1050.57V410.487Z" fill="#E6E6E6"/>
<path d="M1055.7 470.799V462.514H1047.52V470.799H1055.7Z" fill="#3F3D56"/>
<path d="M1042.52 470.799V462.514H1034.34V470.799H1042.52Z" fill="#877373"/>
<path d="M1029.34 470.799V462.514H1021.16V470.799H1029.34Z" fill="#3F3D56"/>
<path d="M1016.16 470.799V462.514H1007.98V470.799H1016.16Z" fill="#3F3D56"/>
<path d="M1002.98 470.799V462.514H994.798V470.799H1002.98Z" fill="#3F3D56"/>
<path d="M1039.18 336.038H1011.91V363.655H1039.18V336.038Z" fill="#877373"/>
<path d="M848.497 401.925L848.144 402.64L847.085 397.278C847.085 397.278 845.673 391.558 848.497 391.558C851.321 391.558 850.615 397.278 850.615 397.278V401.21L848.497 401.925Z" fill="#A0616A"/>
<path d="M894.808 401.193L895.16 401.908L896.219 396.546C896.219 396.546 897.631 390.826 894.808 390.826C891.984 390.826 892.69 396.546 892.69 396.546V400.478L894.808 401.193Z" fill="#A0616A"/>
<path d="M864.027 442.125L859.792 468.577L861.909 494.314L866.851 492.17L866.145 472.866L871.087 457.495L872.145 475.726L870.028 494.672L876.381 495.387L880.97 456.423L880.617 443.197L864.027 442.125Z" fill="#2F2E41"/>
<path d="M864.027 491.097L861.557 495.029V503.815C861.557 504.068 861.646 504.313 861.808 504.506C861.97 504.699 862.194 504.827 862.441 504.867C863.652 505.068 865.76 505.211 866.498 503.966C867.557 502.179 866.851 498.247 866.851 498.247C866.851 498.247 868.263 495.387 867.557 493.242C866.851 491.097 866.145 490.74 866.145 490.74L864.027 491.097Z" fill="#2F2E41"/>
<path d="M874.616 494.672L875.322 495.744C875.322 495.744 876.381 496.817 875.675 497.532C875.157 498.087 874.685 498.685 874.263 499.319C874.263 499.319 870.381 500.391 870.381 498.961V494.314L874.616 494.672Z" fill="#2F2E41"/>
<path d="M873.344 413.031C875.928 413.031 878.023 410.909 878.023 408.292C878.023 405.675 875.928 403.554 873.344 403.554C870.76 403.554 868.665 405.675 868.665 408.292C868.665 410.909 870.76 413.031 873.344 413.031Z" fill="#A0616A"/>
<path d="M870.204 409.774L869.851 416.566L876.204 416.923L875.851 410.131L870.204 409.774Z" fill="#A0616A"/>
<path d="M877.087 417.102L876.085 414.623C876.085 414.623 871.44 412.812 870.028 414.599L869.322 416.744L863.674 415.314L860.498 422.464L863.321 442.839C863.321 442.839 870.734 452.491 880.617 443.197L883.44 423.894L881.322 416.387L877.087 417.102Z" fill="#575A89"/>
<path d="M880.617 417.817L881.322 416.387L888.382 412.097L892.69 399.182L896.024 400.629L892.264 416.03L882.028 425.681L880.617 417.817Z" fill="#575A89"/>
<path d="M864.38 416.03L863.674 415.315L856.262 410.668L850.968 399.944L846.732 401.373L851.321 414.6L862.616 423.894L864.38 416.03Z" fill="#575A89"/>
<path d="M876.817 401.036L877.582 400.648L876.434 400.261V399.874C876.434 399.874 870.697 397.549 869.932 401.423C868.945 402.767 868.411 404.397 868.411 406.072C868.411 407.746 868.945 409.377 869.932 410.72V411.882L876.052 412.657L876.817 410.333C876.817 410.333 880.642 403.36 876.817 401.036Z" fill="#2F2E41"/>
<path d="M736.811 442.544L735.451 443.233C735.451 443.233 730.011 445.757 731.598 447.135C733.184 448.512 737.491 445.757 737.491 445.757L738.397 444.61L736.811 442.544Z" fill="#FFB8B8"/>
<path d="M776.598 442.201L772.394 470.777L766.048 490.747L762.648 489.14L765.821 461.825L756.755 454.021L757.435 442.544L776.598 442.201Z" fill="#2F2E41"/>
<path d="M762.195 489.829C762.195 489.829 766.048 487.763 766.275 490.747L765.821 493.731C765.821 493.731 767.181 499.01 762.648 497.863C758.115 496.715 761.288 493.272 761.288 493.272L762.195 489.829Z" fill="#2F2E41"/>
<path d="M759.702 451.496L756.756 454.021C756.756 454.021 756.756 469.63 758.795 471.925C760.835 474.22 773.754 485.927 774.207 486.386C774.661 486.845 776.7 481.795 776.7 481.795L764.462 467.334L765.368 458.382L759.702 451.496Z" fill="#2F2E41"/>
<path d="M775.34 481.107C775.34 481.107 778.967 480.418 778.967 482.943C779.012 484.939 779.163 486.931 779.42 488.911C779.42 488.911 780.327 496.945 777.38 495.797C774.434 494.65 773.301 486.616 773.301 486.616C773.575 485.948 774.051 485.385 774.66 485.009C775.567 484.55 775.34 481.107 775.34 481.107Z" fill="#2F2E41"/>
<path d="M764.008 408.113L764.688 416.606L762.875 419.82L757.889 414.999L757.436 408.572L764.008 408.113Z" fill="#FFB8B8"/>
<path d="M759.929 410.868C762.933 410.868 765.368 408.402 765.368 405.359C765.368 402.317 762.933 399.85 759.929 399.85C756.924 399.85 754.489 402.317 754.489 405.359C754.489 408.402 756.924 410.868 759.929 410.868Z" fill="#FFB8B8"/>
<path d="M762.195 416.377L764.462 409.72L768.541 414.311L776.02 443.462L770.354 446.905L767.861 443.232L767.408 448.053L756.302 445.757L755.396 414.999L757.661 411.768L762.195 416.377Z" fill="#D0CDE1"/>
<path d="M759.022 448.971L757.662 411.786L754.716 414.082L749.276 417.754L752.902 430.838L754.035 444.61L759.022 448.971Z" fill="#2F2E41"/>
<path d="M750.863 417.983L749.276 417.754L744.743 431.297L735.677 442.774L739.077 446.446L749.503 436.117L753.356 427.624L750.863 417.983Z" fill="#2F2E41"/>
<path d="M775.614 442.754L775.305 444.262C775.305 444.262 773.89 450.15 775.941 449.743C777.991 449.335 778.526 444.206 778.526 444.206L778.198 442.774L775.614 442.754Z" fill="#FFB8B8"/>
<path d="M764.107 409.348L775.34 413.852L773.981 427.624L776.7 442.774L773.981 445.758L763.924 411.299L764.107 409.348Z" fill="#2F2E41"/>
<path d="M760.213 396.107L761.81 395.298V396.107L762.874 395.568V396.915C762.874 396.915 766.866 399.88 766.068 403.384C765.269 406.887 765.269 407.157 765.269 407.157C765.269 407.157 764.26 400.494 760.269 401.572C756.277 402.65 755.956 402.845 754.891 405.809L754.602 407.081C754.602 407.081 750.101 396.646 760.213 396.107Z" fill="#2F2E41"/>
<path d="M773.754 413.852H775.567L778.514 429.92V443.921L774.887 443.233L771.941 422.115L773.754 413.852Z" fill="#2F2E41"/>
<path d="M750.51 447.831H683.684V494.863H750.51V447.831Z" fill="#877373"/>
<path d="M717.097 457.008C714.297 457.008 711.559 457.849 709.231 459.425C706.903 461 705.088 463.24 704.016 465.86C702.945 468.48 702.664 471.363 703.211 474.145C703.757 476.926 705.106 479.481 707.086 481.486C709.066 483.492 711.588 484.857 714.335 485.411C717.081 485.964 719.928 485.68 722.515 484.595C725.102 483.509 727.313 481.672 728.869 479.314C730.425 476.956 731.255 474.183 731.255 471.347C731.244 467.548 729.749 463.907 727.096 461.22C724.443 458.534 720.849 457.019 717.097 457.008V457.008ZM717.097 461.31C717.937 461.31 718.758 461.562 719.457 462.035C720.155 462.508 720.7 463.179 721.021 463.965C721.343 464.752 721.427 465.616 721.263 466.451C721.099 467.285 720.694 468.052 720.1 468.653C719.506 469.255 718.75 469.665 717.926 469.831C717.102 469.997 716.248 469.911 715.472 469.586C714.695 469.26 714.032 468.709 713.565 468.002C713.099 467.294 712.849 466.462 712.849 465.612C712.853 464.472 713.302 463.38 714.098 462.574C714.893 461.768 715.972 461.314 717.097 461.31V461.31ZM717.097 482.019C715.419 482.011 713.768 481.589 712.288 480.789C710.808 479.989 709.542 478.835 708.602 477.428C708.67 474.56 714.265 472.981 717.097 472.981C719.929 472.981 725.524 474.56 725.592 477.428C724.65 478.834 723.385 479.987 721.905 480.787C720.425 481.587 718.775 482.01 717.097 482.019V482.019Z" fill="white"/>
<path d="M901.161 312.847H817.342V361.561H901.161V312.847Z" fill="#E6E6E6"/>
<path d="M1066.9 409.468L1067.29 406.931C1067.29 406.931 1069.55 401.72 1067.76 401.439C1065.97 401.158 1064.48 406.119 1064.48 406.119L1065.14 411.418L1066.9 409.468Z" fill="#FFB8B8"/>
<path d="M1085.22 423.85L1069.23 420.597L1067.37 408.8L1062.66 408.432L1062.89 423.684L1076.79 431.062L1085.22 423.85Z" fill="#575A89"/>
<path opacity="0.2" d="M1085.22 423.85L1069.23 420.597L1067.37 408.8L1062.66 408.432L1062.89 423.684L1076.79 431.062L1085.22 423.85Z" fill="black"/>
<path d="M1041.71 406.348H1090.8V402.464H1041.71V406.348Z" fill="#877373"/>
<path d="M1063.78 408.599L1063.78 406.032C1063.78 406.032 1065.23 400.532 1063.42 400.53C1061.61 400.527 1060.88 405.661 1060.88 405.661L1062.32 410.797L1063.78 408.599Z" fill="#FFB8B8"/>
<path d="M1084.59 415.951L1086.79 415.41C1087.63 415.411 1088.45 415.223 1089.21 414.861C1089.97 414.498 1090.63 413.97 1091.16 413.314C1091.7 412.658 1092.08 411.891 1092.28 411.068C1092.48 410.245 1092.5 409.386 1092.33 408.555V408.555C1092.33 407.573 1092.14 406.601 1091.77 405.693C1091.4 404.785 1090.86 403.96 1090.18 403.265C1089.49 402.57 1088.68 402.018 1087.78 401.641C1086.89 401.264 1085.93 401.069 1084.96 401.068V401.068C1083.99 401.067 1083.03 401.259 1082.13 401.633C1081.23 402.008 1080.42 402.558 1079.73 403.251C1079.05 403.945 1078.5 404.769 1078.13 405.675C1077.76 406.582 1077.57 407.554 1077.56 408.536V408.536C1077.28 409.537 1077.26 410.595 1077.51 411.605C1077.75 412.616 1078.26 413.543 1078.97 414.293C1079.68 415.044 1080.58 415.592 1081.56 415.883C1082.55 416.174 1083.59 416.198 1084.59 415.951Z" fill="#2F2E41"/>
<path d="M1071.69 452.986L1073.47 472.793L1076.71 492.235L1082.14 492.241L1081.44 473.17L1078.57 450.061L1071.69 452.986Z" fill="#2F2E41"/>
<path d="M1077.43 491.135L1073.81 493.331C1073.81 493.331 1068.02 494.057 1069.1 495.892C1070.18 497.728 1082.86 496.643 1082.86 495.91C1082.86 495.176 1082.5 491.142 1081.78 491.141L1077.43 491.135Z" fill="#2F2E41"/>
<path d="M1087.72 451.275C1087.72 451.275 1087.62 454.106 1085.08 458.504L1085.43 472.074L1098.44 488.961L1093.73 492.99L1077.82 474.632L1073.86 452.622L1078.94 447.494L1087.72 451.275Z" fill="#2F2E41"/>
<path d="M1097.35 488.96C1097.35 488.96 1101.7 489.699 1100.97 491.532C1100.25 493.365 1098.43 501.798 1093.72 500.691C1093.72 500.691 1091.55 500.689 1092.27 499.223C1092.71 498.341 1093.19 497.484 1093.72 496.657L1093.73 491.889L1097.35 488.96Z" fill="#2F2E41"/>
<path d="M1082.24 416.324C1085.24 416.324 1087.67 413.861 1087.67 410.823C1087.67 407.784 1085.24 405.321 1082.24 405.321C1079.24 405.321 1076.81 407.784 1076.81 410.823C1076.81 413.861 1079.24 416.324 1082.24 416.324Z" fill="#FFB8B8"/>
<path d="M1084.77 414.494L1084.76 420.728L1078.97 420.721L1079.7 414.487L1084.77 414.494Z" fill="#FFB8B8"/>
<path d="M1077.52 418.518L1079.28 418.082L1084.77 418.528C1084.77 418.528 1087.66 421.465 1087.3 422.198C1086.93 422.931 1085.1 440.9 1085.1 440.9L1088.34 453.74L1076.76 454.459L1070.96 453.718L1072.08 430.614C1072.08 430.614 1069.55 424.376 1072.81 422.547C1074.65 421.568 1076.26 420.193 1077.52 418.518V418.518Z" fill="#575A89"/>
<path d="M1084.04 419.994L1067.75 419.239L1064.14 407.866L1059.43 408.226L1061.95 423.266L1076.79 428.42L1084.04 419.994Z" fill="#575A89"/>
<path d="M1092.73 406.77C1094.66 406.77 1096.23 405.18 1096.23 403.22C1096.23 401.26 1094.66 399.671 1092.73 399.671C1090.79 399.671 1089.22 401.26 1089.22 403.22C1089.22 405.18 1090.79 406.77 1092.73 406.77Z" fill="#2F2E41"/>
<path d="M1089.49 401.312C1089.49 400.787 1089.61 400.269 1089.83 399.794C1090.05 399.32 1090.38 398.902 1090.78 398.569C1091.18 398.237 1091.65 397.999 1092.15 397.872C1092.66 397.745 1093.18 397.734 1093.69 397.837C1093.24 397.623 1092.75 397.507 1092.26 397.498C1091.76 397.488 1091.27 397.586 1090.81 397.784C1090.36 397.982 1089.95 398.275 1089.61 398.645C1089.28 399.015 1089.02 399.453 1088.87 399.93C1088.71 400.407 1088.66 400.912 1088.71 401.411C1088.76 401.911 1088.91 402.394 1089.16 402.828C1089.41 403.262 1089.75 403.638 1090.15 403.93C1090.56 404.222 1091.02 404.425 1091.5 404.523C1090.9 404.236 1090.39 403.782 1090.04 403.213C1089.68 402.645 1089.49 401.985 1089.49 401.312V401.312Z" fill="#2F2E41"/>
<path d="M1086.49 403.325L1081.76 402.444L1078.13 404.75C1077.24 405.317 1076.52 406.132 1076.07 407.097C1075.62 408.063 1075.45 409.139 1075.59 410.198L1079.23 409.264L1080.04 407.194L1081.01 408.805L1084.95 415.777L1088.94 413.581L1091.48 409.55L1086.49 403.325Z" fill="#2F2E41"/>
<path d="M817.579 312.428L817.105 313.265L900.924 361.979L901.398 361.143L817.579 312.428Z" fill="white"/>
<path d="M900.926 312.432L817.103 361.14L817.577 361.976L901.4 313.268L900.926 312.432Z" fill="white"/>
<path d="M1012.46 335.657L1011.79 336.339L1038.93 363.831L1039.61 363.149L1012.46 335.657Z" fill="white"/>
<path d="M1038.93 335.657L1011.79 363.149L1012.46 363.831L1039.61 336.339L1038.93 335.657Z" fill="white"/>
</g>
<path d="M354.873 674.813L355.183 520.675C355.201 512.015 348.263 505 339.68 505H111.845C103.262 505 96.2965 512.015 96.2791 520.675L95.9692 674.813H354.873ZM122.148 531.125H329.272L329.035 648.688H121.912L122.148 531.125ZM380.737 687.875L380.716 698.325C380.699 706.985 373.733 714 365.151 714H85.5343C76.9516 714 70.0141 706.985 70.0315 698.325L70.0525 687.875H199.505C199.497 691.48 202.391 694.406 205.964 694.406H244.8C248.373 694.406 251.278 691.48 251.285 687.875H380.737Z" fill="#877373"/>
<path d="M280.976 589.562L280.959 597.851L243.796 613.204L243.813 604.53L270.013 593.705L243.857 582.852L243.874 574.206L280.976 589.562ZM206.681 604.53L180.524 593.705L206.724 582.852L206.742 574.206L169.579 589.562L169.562 597.851L206.663 613.204L206.681 604.53ZM239.474 562.587H229.829L211.087 624.822H220.709L239.474 562.587V562.587Z" fill="#B5A6A6"/>
<defs>
<clipPath id="clip0">
<rect width="391" height="271" fill="white" transform="translate(70 917)"/>
</clipPath>
<clipPath id="clip1">
<rect width="424" height="236" fill="white" transform="translate(682 269)"/>
</clipPath>
</defs>
</svg>
