<svg width="1440" height="1024" viewBox="0 0 1440 1024" fill="none" xmlns="http://www.w3.org/2000/svg">
<rect width="1440" height="1024" fill="white"/>
<path d="M155.424 166.592C156.256 166.592 156.896 166.976 157.344 167.744C157.856 168.512 158.112 169.568 158.112 170.912C158.112 173.472 157.504 175.456 156.288 176.864C153.92 179.744 150.56 182.4 146.208 184.832C141.92 187.264 137.312 188.48 132.384 188.48C125.664 188.48 120.448 186.656 116.736 183.008C113.024 179.36 111.168 174.368 111.168 168.032C111.168 163.616 112.096 159.52 113.952 155.744C115.808 151.904 118.368 148.864 121.632 146.624C124.96 144.384 128.704 143.264 132.864 143.264C136.576 143.264 139.552 144.384 141.792 146.624C144.032 148.8 145.152 151.776 145.152 155.552C145.152 159.968 143.552 163.776 140.352 166.976C137.216 170.112 131.872 172.608 124.32 174.464C125.92 177.408 128.96 178.88 133.44 178.88C136.32 178.88 139.584 177.888 143.232 175.904C146.944 173.856 150.144 171.2 152.832 167.936C153.6 167.04 154.464 166.592 155.424 166.592ZM131.232 152.672C128.864 152.672 126.848 154.048 125.184 156.8C123.584 159.552 122.784 162.88 122.784 166.784V166.976C126.56 166.08 129.536 164.736 131.712 162.944C133.888 161.152 134.976 159.072 134.976 156.704C134.976 155.488 134.624 154.528 133.92 153.824C133.28 153.056 132.384 152.672 131.232 152.672ZM205.699 166.592C206.531 166.592 207.171 166.976 207.619 167.744C208.131 168.512 208.387 169.568 208.387 170.912C208.387 173.472 207.779 175.456 206.563 176.864C203.747 180.192 200.643 182.976 197.251 185.216C193.923 187.392 190.147 188.48 185.923 188.48C182.659 188.48 179.747 187.872 177.187 186.656C174.691 185.44 172.707 183.712 171.235 181.472C167.587 186.08 163.267 188.384 158.275 188.384C154.755 188.384 151.971 187.36 149.923 185.312C147.875 183.264 146.851 180.544 146.851 177.152C146.851 173.952 147.587 171.36 149.059 169.376C150.531 167.392 152.611 166.4 155.299 166.4C157.603 166.4 158.755 167.264 158.755 168.992C158.755 169.44 158.691 170.24 158.563 171.392C158.371 173.696 158.275 175.008 158.275 175.328C158.275 177.248 159.107 178.208 160.771 178.208C161.987 178.208 163.139 177.504 164.227 176.096C165.379 174.624 166.307 172.64 167.011 170.144C167.779 167.648 168.163 164.896 168.163 161.888C168.163 159.584 167.875 157.664 167.299 156.128C166.723 154.528 166.019 153.728 165.187 153.728C164.483 153.728 163.971 153.92 163.651 154.304C163.331 154.624 163.011 155.2 162.691 156.032C162.307 157.056 161.795 157.888 161.155 158.528C160.515 159.104 159.395 159.392 157.795 159.392C156.387 159.392 155.267 158.912 154.435 157.952C153.603 156.928 153.187 155.392 153.187 153.344C153.187 150.08 154.179 147.52 156.163 145.664C158.147 143.808 160.707 142.88 163.843 142.88C166.531 142.88 168.963 143.552 171.139 144.896C173.315 146.176 174.979 148.064 176.131 150.56C178.051 148 180.195 146.08 182.563 144.8C184.995 143.52 187.363 142.88 189.667 142.88C192.163 142.88 194.051 143.456 195.331 144.608C196.675 145.76 197.347 147.616 197.347 150.176C197.347 153.056 196.803 155.328 195.715 156.992C194.627 158.592 193.315 159.392 191.779 159.392C190.371 159.392 189.411 159.104 188.899 158.528C188.387 157.952 188.003 157.12 187.747 156.032C187.619 155.264 187.427 154.688 187.171 154.304C186.915 153.92 186.467 153.728 185.827 153.728C185.059 153.728 184.227 154.464 183.331 155.936C182.499 157.344 181.763 159.232 181.123 161.6C180.547 163.968 180.259 166.432 180.259 168.992C180.259 172 180.963 174.336 182.371 176C183.843 177.6 185.827 178.4 188.323 178.4C190.819 178.4 193.155 177.568 195.331 175.904C197.571 174.176 200.163 171.52 203.107 167.936C203.875 167.04 204.739 166.592 205.699 166.592ZM253.778 166.592C254.61 166.592 255.25 166.976 255.698 167.744C256.21 168.512 256.466 169.568 256.466 170.912C256.466 173.472 255.858 175.456 254.642 176.864C251.89 180.256 248.914 183.04 245.714 185.216C242.578 187.392 238.994 188.48 234.962 188.48C231.57 188.48 228.818 187.264 226.706 184.832C223.058 187.2 219.25 188.416 215.282 188.48C214.45 200.832 212.562 211.136 209.618 219.392C206.674 227.712 202.354 231.872 196.658 231.872C193.202 231.872 190.642 230.624 188.978 228.128C187.314 225.632 186.482 222.176 186.482 217.76C186.482 211.488 187.922 204.16 190.802 195.776C193.682 187.456 198.13 178.272 204.146 168.224C204.146 158.88 204.082 152.384 203.954 148.736C203.89 146.88 204.626 145.408 206.162 144.32C207.698 143.232 209.618 142.688 211.922 142.688C213.266 142.688 214.226 142.976 214.802 143.552C215.442 144.064 215.794 145.12 215.858 146.72C215.858 148.32 215.89 149.504 215.954 150.272C218.002 147.712 220.018 145.888 222.002 144.8C223.986 143.648 226.098 143.072 228.338 143.072C231.922 143.072 234.834 144.512 237.074 147.392C239.378 150.272 240.53 154.048 240.53 158.72C240.53 162.112 239.986 165.408 238.898 168.608C237.81 171.808 236.306 174.72 234.386 177.344C235.73 177.728 236.85 177.92 237.746 177.92C239.858 177.92 241.874 177.152 243.794 175.616C245.714 174.08 248.178 171.52 251.186 167.936C251.954 167.04 252.818 166.592 253.778 166.592ZM215.762 179.264C218.066 178.752 220.178 177.504 222.098 175.52C224.082 173.472 225.65 170.976 226.802 168.032C227.954 165.024 228.53 161.888 228.53 158.624C228.53 156.704 228.146 155.264 227.378 154.304C226.61 153.28 225.586 152.768 224.306 152.768C222.002 152.768 219.218 155.2 215.954 160.064C215.89 162.88 215.858 167.008 215.858 172.448C215.858 175.392 215.826 177.664 215.762 179.264ZM197.426 222.464C199.154 222.464 200.594 218.688 201.746 211.136C202.898 203.648 203.634 194.304 203.954 183.104C201.202 189.504 199.026 195.616 197.426 201.44C195.826 207.264 195.026 212.16 195.026 216.128C195.026 218.176 195.282 219.744 195.794 220.832C196.242 221.92 196.786 222.464 197.426 222.464ZM291.549 166.592C292.381 166.592 293.021 166.976 293.469 167.744C293.981 168.512 294.237 169.568 294.237 170.912C294.237 173.472 293.629 175.456 292.413 176.864C290.045 179.744 286.685 182.4 282.333 184.832C278.045 187.264 273.437 188.48 268.509 188.48C261.789 188.48 256.573 186.656 252.861 183.008C249.149 179.36 247.293 174.368 247.293 168.032C247.293 163.616 248.221 159.52 250.077 155.744C251.933 151.904 254.493 148.864 257.757 146.624C261.085 144.384 264.829 143.264 268.989 143.264C272.701 143.264 275.677 144.384 277.917 146.624C280.157 148.8 281.277 151.776 281.277 155.552C281.277 159.968 279.677 163.776 276.477 166.976C273.341 170.112 267.997 172.608 260.445 174.464C262.045 177.408 265.085 178.88 269.565 178.88C272.445 178.88 275.709 177.888 279.357 175.904C283.069 173.856 286.269 171.2 288.957 167.936C289.725 167.04 290.589 166.592 291.549 166.592ZM267.357 152.672C264.989 152.672 262.973 154.048 261.309 156.8C259.709 159.552 258.909 162.88 258.909 166.784V166.976C262.685 166.08 265.661 164.736 267.837 162.944C270.013 161.152 271.101 159.072 271.101 156.704C271.101 155.488 270.749 154.528 270.045 153.824C269.405 153.056 268.509 152.672 267.357 152.672ZM293.237 188.48C290.805 188.48 289.077 187.2 288.053 184.64C287.093 182.08 286.613 177.984 286.613 172.352C286.613 164.032 287.797 156.128 290.165 148.64C290.741 146.784 291.669 145.44 292.949 144.608C294.293 143.712 296.149 143.264 298.517 143.264C299.797 143.264 300.693 143.424 301.205 143.744C301.717 144.064 301.973 144.672 301.973 145.568C301.973 146.592 301.493 148.896 300.533 152.48C299.893 155.04 299.381 157.28 298.997 159.2C298.613 161.12 298.293 163.488 298.037 166.304C300.149 160.8 302.517 156.32 305.141 152.864C307.765 149.408 310.325 146.944 312.821 145.472C315.381 144 317.717 143.264 319.829 143.264C323.989 143.264 326.069 145.344 326.069 149.504C326.069 150.336 325.781 152.352 325.205 155.552C324.693 158.112 324.437 159.712 324.437 160.352C324.437 162.592 325.237 163.712 326.837 163.712C328.629 163.712 330.933 162.304 333.749 159.488C334.581 158.656 335.445 158.24 336.341 158.24C337.173 158.24 337.813 158.624 338.26 159.392C338.773 160.096 339.029 161.056 339.029 162.272C339.029 164.64 338.389 166.496 337.109 167.84C335.317 169.696 333.205 171.296 330.773 172.64C328.405 173.92 325.877 174.56 323.189 174.56C319.797 174.56 317.205 173.696 315.413 171.968C313.685 170.24 312.821 167.904 312.821 164.96C312.821 164 312.917 163.04 313.109 162.08C313.237 160.8 313.301 159.936 313.301 159.488C313.301 158.464 312.949 157.952 312.245 157.952C311.285 157.952 310.005 159.04 308.405 161.216C306.869 163.328 305.333 166.144 303.797 169.664C302.261 173.184 301.013 176.896 300.053 180.8C299.349 183.808 298.517 185.856 297.557 186.944C296.661 187.968 295.221 188.48 293.237 188.48ZM342.684 136.928C339.996 136.928 337.98 136.32 336.636 135.104C335.292 133.824 334.62 132.064 334.62 129.824C334.62 127.584 335.484 125.728 337.212 124.256C339.004 122.72 341.212 121.952 343.836 121.952C346.204 121.952 348.124 122.528 349.596 123.68C351.068 124.832 351.804 126.464 351.804 128.576C351.804 131.136 350.972 133.184 349.308 134.72C347.644 136.192 345.436 136.928 342.684 136.928ZM341.916 188.48C337.756 188.48 334.716 187.008 332.796 184.064C330.94 181.12 330.012 177.216 330.012 172.352C330.012 169.472 330.364 165.792 331.068 161.312C331.836 156.768 332.796 152.544 333.948 148.64C334.524 146.592 335.292 145.184 336.252 144.416C337.212 143.648 338.748 143.264 340.86 143.264C344.124 143.264 345.756 144.352 345.756 146.528C345.756 148.128 345.148 151.84 343.932 157.664C342.396 164.704 341.628 169.472 341.628 171.968C341.628 173.888 341.884 175.36 342.396 176.384C342.908 177.408 343.772 177.92 344.988 177.92C346.14 177.92 347.58 177.12 349.308 175.52C351.036 173.92 353.34 171.392 356.22 167.936C356.988 167.04 357.852 166.592 358.812 166.592C359.644 166.592 360.284 166.976 360.732 167.744C361.244 168.512 361.5 169.568 361.5 170.912C361.5 173.472 360.892 175.456 359.676 176.864C353.34 184.608 347.42 188.48 341.916 188.48ZM396.549 166.592C397.381 166.592 398.021 166.976 398.469 167.744C398.981 168.512 399.237 169.568 399.237 170.912C399.237 173.472 398.629 175.456 397.413 176.864C395.045 179.744 391.685 182.4 387.333 184.832C383.045 187.264 378.437 188.48 373.509 188.48C366.789 188.48 361.573 186.656 357.861 183.008C354.149 179.36 352.293 174.368 352.293 168.032C352.293 163.616 353.221 159.52 355.077 155.744C356.933 151.904 359.493 148.864 362.757 146.624C366.085 144.384 369.829 143.264 373.989 143.264C377.701 143.264 380.677 144.384 382.917 146.624C385.157 148.8 386.277 151.776 386.277 155.552C386.277 159.968 384.677 163.776 381.477 166.976C378.341 170.112 372.997 172.608 365.445 174.464C367.045 177.408 370.085 178.88 374.565 178.88C377.445 178.88 380.709 177.888 384.357 175.904C388.069 173.856 391.269 171.2 393.957 167.936C394.725 167.04 395.589 166.592 396.549 166.592ZM372.357 152.672C369.989 152.672 367.973 154.048 366.309 156.8C364.709 159.552 363.909 162.88 363.909 166.784V166.976C367.685 166.08 370.661 164.736 372.837 162.944C375.013 161.152 376.101 159.072 376.101 156.704C376.101 155.488 375.749 154.528 375.045 153.824C374.405 153.056 373.509 152.672 372.357 152.672ZM398.237 188.48C395.805 188.48 394.077 187.2 393.053 184.64C392.093 182.08 391.613 177.984 391.613 172.352C391.613 164.032 392.797 156.128 395.165 148.64C395.741 146.784 396.669 145.44 397.949 144.608C399.293 143.712 401.149 143.264 403.517 143.264C404.797 143.264 405.693 143.424 406.205 143.744C406.717 144.064 406.973 144.672 406.973 145.568C406.973 146.592 406.493 148.896 405.533 152.48C404.893 155.04 404.381 157.28 403.997 159.2C403.613 161.12 403.293 163.488 403.037 166.304C405.149 160.8 407.517 156.32 410.141 152.864C412.765 149.408 415.325 146.944 417.821 145.472C420.381 144 422.717 143.264 424.829 143.264C428.989 143.264 431.069 145.344 431.069 149.504C431.069 152 430.365 156.512 428.957 163.04C427.741 168.608 427.133 172.288 427.133 174.08C427.133 176.64 428.061 177.92 429.917 177.92C431.197 177.92 432.701 177.152 434.429 175.616C436.221 174.016 438.589 171.456 441.533 167.936C442.301 167.04 443.165 166.592 444.125 166.592C444.957 166.592 445.597 166.976 446.045 167.744C446.557 168.512 446.812 169.568 446.812 170.912C446.812 173.472 446.205 175.456 444.989 176.864C442.237 180.256 439.261 183.04 436.061 185.216C432.925 187.392 429.341 188.48 425.309 188.48C422.045 188.48 419.581 187.552 417.917 185.696C416.253 183.776 415.421 181.024 415.421 177.44C415.421 175.648 415.869 172.448 416.765 167.84C417.597 163.808 418.013 161.024 418.013 159.488C418.013 158.464 417.661 157.952 416.957 157.952C416.125 157.952 414.941 159.04 413.405 161.216C411.933 163.328 410.397 166.144 408.797 169.664C407.261 173.184 406.013 176.896 405.053 180.8C404.349 183.808 403.517 185.856 402.557 186.944C401.661 187.968 400.221 188.48 398.237 188.48ZM457.382 188.48C451.11 188.48 446.214 186.72 442.694 183.2C439.238 179.616 437.51 174.912 437.51 169.088C437.51 163.904 438.534 159.36 440.582 155.456C442.63 151.552 445.286 148.544 448.549 146.432C451.814 144.32 455.238 143.264 458.822 143.264C462.342 143.264 465.062 144.32 466.982 146.432C468.966 148.48 469.958 151.136 469.958 154.4C469.958 157.088 469.35 159.36 468.134 161.216C466.982 163.072 465.446 164 463.526 164C462.31 164 461.318 163.712 460.55 163.136C459.846 162.56 459.494 161.76 459.494 160.736C459.494 160.288 459.558 159.776 459.686 159.2C459.814 158.624 459.91 158.208 459.974 157.952C460.294 156.992 460.454 156.096 460.454 155.264C460.454 154.432 460.23 153.792 459.781 153.344C459.398 152.896 458.822 152.672 458.054 152.672C456.582 152.672 455.206 153.344 453.926 154.688C452.646 155.968 451.622 157.728 450.854 159.968C450.086 162.208 449.702 164.672 449.702 167.36C449.702 174.784 452.934 178.496 459.398 178.496C462.022 178.496 464.838 177.632 467.846 175.904C470.918 174.112 473.926 171.456 476.87 167.936C477.638 167.04 478.502 166.592 479.462 166.592C480.294 166.592 480.934 166.976 481.382 167.744C481.894 168.512 482.15 169.568 482.15 170.912C482.15 173.344 481.542 175.328 480.326 176.864C477.318 180.576 473.702 183.456 469.478 185.504C465.318 187.488 461.286 188.48 457.382 188.48ZM508.757 169.472C509.589 169.472 510.229 169.856 510.677 170.624C511.189 171.392 511.445 172.448 511.445 173.792C511.445 176.096 510.901 178.08 509.813 179.744C508.021 182.496 505.653 184.64 502.709 186.176C499.829 187.712 496.373 188.48 492.341 188.48C486.197 188.48 481.429 186.656 478.037 183.008C474.645 179.296 472.949 174.304 472.949 168.032C472.949 163.616 473.877 159.52 475.733 155.744C477.589 151.904 480.149 148.864 483.413 146.624C486.741 144.384 490.485 143.264 494.645 143.264C498.357 143.264 501.333 144.384 503.573 146.624C505.813 148.8 506.933 151.776 506.933 155.552C506.933 159.968 505.333 163.776 502.133 166.976C498.997 170.112 493.621 172.608 486.005 174.464C487.541 177.408 490.133 178.88 493.781 178.88C496.405 178.88 498.549 178.272 500.213 177.056C501.941 175.84 503.925 173.792 506.165 170.912C506.933 169.952 507.797 169.472 508.757 169.472ZM493.013 152.672C490.645 152.672 488.629 154.048 486.965 156.8C485.365 159.552 484.565 162.88 484.565 166.784V166.976C488.341 166.08 491.317 164.736 493.493 162.944C495.669 161.152 496.757 159.072 496.757 156.704C496.757 155.488 496.405 154.528 495.701 153.824C495.061 153.056 494.165 152.672 493.013 152.672ZM545.888 188.48C543.072 188.48 540.928 187.712 539.456 186.176C538.048 184.64 537.344 182.624 537.344 180.128C537.344 177.248 538.144 174.944 539.744 173.216C541.408 171.488 543.712 170.624 546.656 170.624C549.472 170.624 551.584 171.328 552.992 172.736C554.464 174.08 555.2 176.096 555.2 178.784C555.2 181.728 554.368 184.096 552.704 185.888C551.04 187.616 548.768 188.48 545.888 188.48ZM570.545 188.48C567.729 188.48 565.585 187.712 564.113 186.176C562.705 184.64 562.001 182.624 562.001 180.128C562.001 177.248 562.801 174.944 564.401 173.216C566.065 171.488 568.369 170.624 571.312 170.624C574.129 170.624 576.241 171.328 577.649 172.736C579.121 174.08 579.857 176.096 579.857 178.784C579.857 181.728 579.025 184.096 577.361 185.888C575.697 187.616 573.425 188.48 570.545 188.48ZM595.201 188.48C592.385 188.48 590.241 187.712 588.769 186.176C587.361 184.64 586.657 182.624 586.657 180.128C586.657 177.248 587.457 174.944 589.057 173.216C590.721 171.488 593.025 170.624 595.969 170.624C598.785 170.624 600.897 171.328 602.305 172.736C603.777 174.08 604.513 176.096 604.513 178.784C604.513 181.728 603.681 184.096 602.017 185.888C600.353 187.616 598.081 188.48 595.201 188.48Z" fill="#B5A6A6"/>
<path d="M407.873 681.813L408.183 527.675C408.201 519.015 401.263 512 392.68 512H164.845C156.262 512 149.296 519.015 149.279 527.675L148.969 681.813H407.873ZM175.148 538.125H382.272L382.035 655.688H174.912L175.148 538.125ZM433.737 694.875L433.716 705.325C433.699 713.985 426.733 721 418.151 721H138.534C129.952 721 123.014 713.985 123.032 705.325L123.053 694.875H252.505C252.497 698.48 255.391 701.406 258.964 701.406H297.8C301.373 701.406 304.278 698.48 304.285 694.875H433.737Z" fill="#877373"/>
<g clip-path="url(#clip0)">
<path d="M886.257 348.595C882.892 360.889 871.101 368.573 871.101 368.573C871.101 368.573 864.766 356.322 868.131 344.028C871.496 331.733 883.286 324.05 883.286 324.05C883.286 324.05 889.622 336.3 886.257 348.595Z" fill="#3F3D56"/>
<path d="M881.153 345.994C871.729 354.927 870.674 368.565 870.674 368.565C870.674 368.565 884.9 367.719 894.324 358.785C903.749 349.851 904.803 336.213 904.803 336.213C904.803 336.213 890.578 337.06 881.153 345.994Z" fill="#877373"/>
<path d="M892.972 364.973H856.107C852.063 364.973 848.785 368.118 848.785 371.997V378.978C848.785 382.858 852.063 386.003 856.107 386.003H892.972C897.015 386.003 900.293 382.858 900.293 378.978V371.997C900.293 368.118 897.015 364.973 892.972 364.973Z" fill="#877373"/>
<g opacity="0.7">
<path opacity="0.7" d="M1247.41 351.539V343.961H1207.92V379.008C1207.92 379.979 1208.12 380.939 1208.51 381.836C1208.9 382.732 1209.46 383.547 1210.18 384.233C1210.89 384.919 1211.74 385.463 1212.68 385.834C1213.61 386.206 1214.61 386.397 1215.62 386.397H1239.71C1241.75 386.397 1243.71 385.618 1245.16 384.233C1246.6 382.847 1247.41 380.968 1247.41 379.008V371.241C1250.13 371.236 1252.74 370.196 1254.66 368.349C1256.58 366.502 1257.66 363.999 1257.66 361.39C1257.66 358.781 1256.58 356.278 1254.66 354.431C1252.74 352.584 1250.13 351.544 1247.41 351.539V351.539ZM1247.41 367.452V355.328C1249.09 355.328 1250.7 355.966 1251.88 357.103C1253.06 358.24 1253.73 359.782 1253.73 361.39C1253.73 362.998 1253.06 364.54 1251.88 365.677C1250.7 366.813 1249.09 367.452 1247.41 367.452V367.452Z" fill="url(#paint0_linear)"/>
</g>
<path d="M1246.14 352.725C1244.29 352.725 1242.48 353.252 1240.93 354.24C1239.39 355.229 1238.19 356.634 1237.48 358.277C1236.77 359.921 1236.59 361.729 1236.95 363.474C1237.31 365.219 1238.2 366.821 1239.51 368.079C1240.82 369.337 1242.49 370.194 1244.31 370.541C1246.13 370.888 1248.02 370.71 1249.73 370.029C1251.44 369.348 1252.91 368.195 1253.94 366.716C1254.97 365.237 1255.52 363.498 1255.52 361.719C1255.52 359.334 1254.53 357.046 1252.77 355.359C1251.01 353.672 1248.63 352.725 1246.14 352.725ZM1246.14 367.254C1245 367.254 1243.89 366.93 1242.94 366.321C1241.99 365.713 1241.25 364.849 1240.81 363.837C1240.38 362.826 1240.26 361.713 1240.48 360.639C1240.71 359.566 1241.26 358.579 1242.06 357.805C1242.87 357.031 1243.9 356.504 1245.02 356.29C1246.14 356.077 1247.3 356.186 1248.35 356.605C1249.4 357.024 1250.3 357.734 1250.94 358.644C1251.57 359.554 1251.91 360.624 1251.91 361.719C1251.91 363.187 1251.3 364.595 1250.22 365.633C1249.14 366.671 1247.67 367.254 1246.14 367.254V367.254Z" fill="#877373"/>
<path opacity="0.1" d="M1246.14 352.725C1244.29 352.725 1242.48 353.252 1240.93 354.24C1239.39 355.229 1238.19 356.634 1237.48 358.277C1236.77 359.921 1236.59 361.729 1236.95 363.474C1237.31 365.219 1238.2 366.821 1239.51 368.079C1240.82 369.337 1242.49 370.194 1244.31 370.541C1246.13 370.888 1248.02 370.71 1249.73 370.029C1251.44 369.348 1252.91 368.195 1253.94 366.716C1254.97 365.237 1255.52 363.498 1255.52 361.719C1255.52 359.334 1254.53 357.046 1252.77 355.359C1251.01 353.672 1248.63 352.725 1246.14 352.725ZM1246.14 367.254C1245 367.254 1243.89 366.93 1242.94 366.321C1241.99 365.713 1241.25 364.849 1240.81 363.837C1240.38 362.826 1240.26 361.713 1240.48 360.639C1240.71 359.566 1241.26 358.579 1242.06 357.805C1242.87 357.031 1243.9 356.504 1245.02 356.29C1246.14 356.077 1247.3 356.186 1248.35 356.605C1249.4 357.024 1250.3 357.734 1250.94 358.644C1251.57 359.554 1251.91 360.624 1251.91 361.719C1251.91 363.187 1251.3 364.595 1250.22 365.633C1249.14 366.671 1247.67 367.254 1246.14 367.254V367.254Z" fill="black"/>
<path d="M1210.09 345.806H1246.14V380.045C1246.14 381.24 1245.65 382.386 1244.77 383.231C1243.89 384.077 1242.69 384.551 1241.44 384.551H1214.78C1213.54 384.551 1212.34 384.077 1211.46 383.231C1210.58 382.386 1210.09 381.24 1210.09 380.045V345.806Z" fill="#877373"/>
<path d="M1284 384.551H816V399.773H1284V384.551Z" fill="#E0E0E0"/>
<g opacity="0.7">
<path opacity="0.7" d="M1123.83 282.705C1118.81 265.237 1090.38 252.48 1068.98 249.652C1068.98 249.523 1068.99 249.395 1068.99 249.266V234.312C1069.01 234.304 1069.04 234.298 1069.06 234.29V233.723C1076.65 231.013 1083.51 226.683 1089.1 221.059C1094.69 215.435 1098.88 208.664 1101.34 201.259C1102.66 198.965 1103.82 196.584 1104.79 194.134C1107.07 193.336 1108.8 189.722 1108.8 185.379C1108.8 183.894 1108.59 182.415 1108.15 180.99C1108.43 178.779 1108.58 176.553 1108.58 174.325C1108.59 166.537 1106.89 158.834 1103.6 151.716C1100.3 144.599 1095.48 138.225 1089.46 133.01C1089.63 132.115 1089.7 131.202 1089.64 130.293C1089.15 123.116 1081.16 118.24 1073.67 117.914C1075.65 115.761 1076.95 113.113 1077.42 110.279C1077.9 107.445 1077.52 104.54 1076.34 101.903C1071.56 108.578 1061.76 109.287 1053.32 109.34C1056.97 107.987 1058.6 103.147 1056.49 100C1047.67 111.34 1030.48 113.44 1019.99 123.386C1017.71 125.562 1015.79 128.068 1014.32 130.813C1007.5 136.023 1002 142.641 998.216 150.175C994.436 157.709 992.476 165.964 992.482 174.325C992.487 176.533 992.627 178.738 992.902 180.93C992.453 182.374 992.229 183.873 992.238 185.379C992.238 189.742 993.979 193.367 996.279 194.142C997.254 196.601 998.41 198.99 999.739 201.292C1002.19 208.654 1006.35 215.387 1011.91 220.989C1017.46 226.591 1024.26 230.917 1031.8 233.641V249.266C1031.8 249.386 1031.8 249.505 1031.81 249.624C1010.33 252.404 981.664 265.261 976.693 282.87C972.4 298.077 967.817 314.777 965.537 324.583C985.081 337.759 1026.09 345.496 1051.79 345.496C1076.21 345.496 1116.12 338.513 1135.09 326.515C1133.04 315.741 1128.31 298.307 1123.83 282.705Z" fill="url(#paint1_linear)"/>
</g>
<path d="M1051.74 341.158C1075.3 341.158 1113.8 334.422 1132.1 322.848C1130.11 312.455 1125.55 295.637 1121.23 280.587C1115.73 261.419 1080.99 248.13 1060.27 248.13H1040.3C1019.52 248.13 984.729 261.496 979.294 280.746C975.153 295.415 970.732 311.525 968.533 320.984C987.386 333.695 1026.95 341.158 1051.74 341.158Z" fill="#877373"/>
<path d="M1050.52 229.765C1081.45 229.765 1106.52 205.71 1106.52 176.036C1106.52 146.363 1081.45 122.308 1050.52 122.308C1019.6 122.308 994.526 146.363 994.526 176.036C994.526 205.71 1019.6 229.765 1050.52 229.765Z" fill="#72351C"/>
<path opacity="0.1" d="M1032.45 220.788H1068.33V248.329C1068.33 252.894 1066.44 257.272 1063.08 260.501C1059.71 263.729 1055.15 265.542 1050.39 265.542H1050.39C1045.63 265.542 1041.07 263.729 1037.7 260.501C1034.34 257.272 1032.45 252.894 1032.45 248.329V220.788H1032.45Z" fill="black"/>
<path d="M1037.6 219.512H1063.18C1064.55 219.512 1065.86 220.032 1066.82 220.959C1067.79 221.885 1068.33 223.141 1068.33 224.45V247.054C1068.33 251.619 1066.44 255.997 1063.08 259.225C1059.71 262.453 1055.15 264.267 1050.39 264.267H1050.39C1045.63 264.267 1041.07 262.453 1037.7 259.225C1034.34 255.997 1032.45 251.619 1032.45 247.054V224.45C1032.45 223.141 1032.99 221.885 1033.96 220.959C1034.92 220.032 1036.23 219.512 1037.6 219.512V219.512Z" fill="#F7A57F" fill-opacity="0.94"/>
<path opacity="0.1" d="M1032.52 233.787C1044.08 237.932 1056.81 237.966 1068.4 233.882V229.653H1032.52V233.787Z" fill="black"/>
<path d="M1050.52 236.092C1078.93 236.092 1101.95 213.999 1101.95 186.747C1101.95 159.494 1078.93 137.402 1050.52 137.402C1022.12 137.402 999.094 159.494 999.094 186.747C999.094 213.999 1022.12 236.092 1050.52 236.092Z" fill="#F7A57F" fill-opacity="0.94"/>
<path opacity="0.1" d="M1013.89 141.862C1013.89 141.862 1035.56 184.075 1096.71 159.554L1082.47 138.138L1057.24 129.447L1013.89 141.862Z" fill="black"/>
<path d="M1013.89 141.242C1013.89 141.242 1035.56 183.454 1096.71 158.934L1082.47 137.517L1057.24 128.826L1013.89 141.242Z" fill="#72351C"/>
<path d="M1013.7 138.39C1015.16 134.049 1017.68 130.108 1021.06 126.897C1031.18 117.303 1047.76 115.277 1056.27 104.337C1058.31 107.373 1056.73 112.042 1053.22 113.347C1061.36 113.296 1070.81 112.612 1075.42 106.173C1076.56 108.717 1076.92 111.519 1076.47 114.253C1076.01 116.987 1074.76 119.541 1072.85 121.618C1080.07 121.933 1087.78 126.636 1088.25 133.56C1088.56 138.172 1085.54 142.539 1081.59 145.185C1077.64 147.83 1072.86 149.044 1068.16 150.039C1054.43 152.945 1004.74 165.121 1013.7 138.39Z" fill="#72351C"/>
<path d="M1101.95 187.179H1100.59L1074.06 209.837C1048.5 198.353 1029.74 209.837 1029.74 209.837L1001.92 188.11L999.116 188.448C999.496 201.399 1005.17 213.687 1014.91 222.658C1024.65 231.63 1037.68 236.565 1051.18 236.398C1064.69 236.231 1077.58 230.976 1087.08 221.767C1096.58 212.558 1101.92 200.135 1101.95 187.179V187.179ZM1050.45 218.528C1040.44 218.528 1032.33 216.582 1032.33 214.182C1032.33 211.782 1040.44 209.837 1050.45 209.837C1060.45 209.837 1068.56 211.782 1068.56 214.182C1068.56 216.582 1060.45 218.528 1050.45 218.528Z" fill="#72351C"/>
<path d="M999.074 195.307C1001.72 195.307 1003.86 191.453 1003.86 186.7C1003.86 181.947 1001.72 178.093 999.074 178.093C996.432 178.093 994.29 181.947 994.29 186.7C994.29 191.453 996.432 195.307 999.074 195.307Z" fill="#FDA57D"/>
<path d="M1101.95 195.307C1104.59 195.307 1106.73 191.453 1106.73 186.7C1106.73 181.947 1104.59 178.093 1101.95 178.093C1099.3 178.093 1097.16 181.947 1097.16 186.7C1097.16 191.453 1099.3 195.307 1101.95 195.307Z" fill="#FDA57D"/>
<g opacity="0.7">
<path opacity="0.7" d="M1142.53 274.588H957.472C953.614 274.588 950.487 277.589 950.487 281.291V377.849C950.487 381.551 953.614 384.551 957.472 384.551H1142.53C1146.39 384.551 1149.51 381.551 1149.51 377.849V281.291C1149.51 277.589 1146.39 274.588 1142.53 274.588Z" fill="url(#paint2_linear)"/>
</g>
<path d="M1132.98 276.617H967.02C959.88 276.617 954.092 282.171 954.092 289.021V372.147C954.092 378.998 959.88 384.551 967.02 384.551H1132.98C1140.12 384.551 1145.91 378.998 1145.91 372.147V289.021C1145.91 282.171 1140.12 276.617 1132.98 276.617Z" fill="#535461"/>
<path d="M1050 336.811C1053.58 336.811 1056.49 334.023 1056.49 330.584C1056.49 327.145 1053.58 324.357 1050 324.357C1046.42 324.357 1043.51 327.145 1043.51 330.584C1043.51 334.023 1046.42 336.811 1050 336.811Z" fill="white"/>
<path d="M1264.17 399.773H835.831V406H1264.17V399.773Z" fill="#E0E0E0"/>
<path opacity="0.1" d="M1264.17 399.773H835.831V401.849H1264.17V399.773Z" fill="black"/>
<path opacity="0.1" d="M1239.65 345.806V377.806C1239.65 379.595 1238.91 381.31 1237.59 382.576C1236.27 383.841 1234.49 384.551 1232.62 384.551H1236.23C1238.09 384.551 1239.88 383.841 1241.2 382.576C1242.52 381.31 1243.26 379.595 1243.26 377.806V345.806H1239.65Z" fill="black"/>
<path d="M1217.2 320.014C1216.59 320.114 1215.91 320.272 1215.61 320.79C1215.14 321.613 1215.99 322.54 1216.78 323.105C1218.22 324.15 1219.74 325.176 1220.73 326.633C1221.71 328.091 1222.02 330.125 1220.94 331.522C1219.54 333.346 1216.2 333.738 1215.87 335.983C1215.66 337.424 1216.96 338.654 1218.28 339.377C1221.53 341.162 1225.71 341.638 1228.07 344.432C1229.04 342.512 1231.22 341.402 1233.39 340.928C1235.56 340.454 1237.81 340.489 1240.01 340.168C1240.72 340.064 1241.52 339.856 1241.84 339.238C1242.45 338.04 1240.7 336.604 1241.3 335.402C1241.76 334.487 1243.12 334.558 1244.1 334.192C1245.71 333.595 1246.38 331.609 1245.92 330.014C1245.46 328.419 1244.17 327.172 1242.82 326.15C1239.16 323.395 1234.77 321.775 1230.33 320.61C1228.26 320.068 1225.83 319.218 1223.69 319.136C1221.62 319.057 1219.25 319.678 1217.2 320.014Z" fill="#EEEEEE"/>
</g>
<path d="M333.976 596.562L333.959 604.851L296.796 620.204L296.813 611.53L323.013 600.705L296.857 589.852L296.874 581.206L333.976 596.562ZM259.681 611.53L233.524 600.705L259.724 589.852L259.742 581.206L222.579 596.562L222.562 604.851L259.663 620.204L259.681 611.53ZM292.474 569.587H282.829L264.087 631.822H273.709L292.474 569.587V569.587Z" fill="#B5A6A6"/>
<defs>
<linearGradient id="paint0_linear" x1="1232.8" y1="386.397" x2="1232.8" y2="343.961" gradientUnits="userSpaceOnUse">
<stop stop-color="#808080" stop-opacity="0.25"/>
<stop offset="0.53514" stop-color="#808080" stop-opacity="0.12"/>
<stop offset="1" stop-color="#808080" stop-opacity="0.1"/>
</linearGradient>
<linearGradient id="paint1_linear" x1="102808" y1="159698" x2="102808" y2="29314" gradientUnits="userSpaceOnUse">
<stop stop-color="#808080" stop-opacity="0.25"/>
<stop offset="0.53514" stop-color="#808080" stop-opacity="0.12"/>
<stop offset="1" stop-color="#808080" stop-opacity="0.1"/>
</linearGradient>
<linearGradient id="paint2_linear" x1="97621.5" y1="67967.7" x2="97621.5" y2="41808.1" gradientUnits="userSpaceOnUse">
<stop stop-color="#808080" stop-opacity="0.25"/>
<stop offset="0.53514" stop-color="#808080" stop-opacity="0.12"/>
<stop offset="1" stop-color="#808080" stop-opacity="0.1"/>
</linearGradient>
<clipPath id="clip0">
<rect x="816" y="100" width="468" height="306" fill="white"/>
</clipPath>
</defs>
</svg>
