<svg width="1440" height="1024" viewBox="0 0 1440 1024" fill="none" xmlns="http://www.w3.org/2000/svg">
<rect width="1440" height="1024" fill="white"/>
<path d="M124.416 239.48C120.448 239.48 117.28 238.04 114.912 235.16C112.544 232.28 111.36 228.504 111.36 223.832C111.36 218.712 112.544 213.88 114.912 209.336C117.28 204.728 120.416 201.048 124.32 198.296C128.288 195.48 132.48 194.072 136.896 194.072C138.304 194.072 139.232 194.36 139.68 194.936C140.192 195.448 140.608 196.408 140.928 197.816C142.272 197.56 143.68 197.432 145.152 197.432C148.288 197.432 149.856 198.552 149.856 200.792C149.856 202.136 149.376 205.336 148.416 210.392C146.944 217.752 146.208 222.872 146.208 225.752C146.208 226.712 146.432 227.48 146.88 228.056C147.392 228.632 148.032 228.92 148.8 228.92C150.016 228.92 151.488 228.152 153.216 226.616C154.944 225.016 157.28 222.456 160.224 218.936C160.992 218.04 161.856 217.592 162.816 217.592C163.648 217.592 164.288 217.976 164.736 218.744C165.248 219.512 165.504 220.568 165.504 221.912C165.504 224.472 164.896 226.456 163.68 227.864C161.056 231.128 158.272 233.88 155.328 236.12C152.384 238.36 149.536 239.48 146.784 239.48C144.672 239.48 142.72 238.776 140.928 237.368C139.2 235.896 137.888 233.912 136.992 231.416C133.664 236.792 129.472 239.48 124.416 239.48ZM127.872 229.784C129.28 229.784 130.624 228.952 131.904 227.288C133.184 225.624 134.112 223.416 134.688 220.664L138.24 203C135.552 203.064 133.056 204.088 130.752 206.072C128.512 207.992 126.72 210.552 125.376 213.752C124.032 216.952 123.36 220.344 123.36 223.928C123.36 225.912 123.744 227.384 124.512 228.344C125.344 229.304 126.464 229.784 127.872 229.784ZM208.774 209.528C209.606 209.528 210.246 209.944 210.694 210.776C211.142 211.608 211.366 212.664 211.366 213.944C211.366 215.544 211.142 216.792 210.694 217.688C210.246 218.52 209.542 219.096 208.582 219.416C204.742 220.76 200.518 221.528 195.91 221.72C194.63 227.032 192.198 231.32 188.614 234.584C185.094 237.848 181.19 239.48 176.902 239.48C170.438 239.48 165.734 237.016 162.79 232.088C159.846 227.16 158.374 220.024 158.374 210.68C158.374 202.424 159.398 193.464 161.446 183.8C163.494 174.072 166.47 165.816 170.374 159.032C174.342 152.184 179.046 148.76 184.486 148.76C187.43 148.76 189.798 150.04 191.59 152.6C193.382 155.096 194.278 158.36 194.278 162.392C194.278 167.64 193.286 172.856 191.302 178.04C189.318 183.224 186.022 188.664 181.414 194.36C185.702 194.68 189.19 196.472 191.878 199.736C194.566 202.936 196.166 206.904 196.678 211.64C199.686 211.448 203.27 210.808 207.43 209.72C207.814 209.592 208.262 209.528 208.774 209.528ZM182.278 158.264C180.998 158.264 179.59 160.184 178.054 164.024C176.582 167.8 175.206 172.952 173.926 179.48C172.646 186.008 171.686 193.144 171.046 200.888C175.27 193.144 178.63 186.328 181.126 180.44C183.686 174.488 184.966 169.208 184.966 164.6C184.966 162.552 184.71 160.984 184.198 159.896C183.75 158.808 183.11 158.264 182.278 158.264ZM177.286 229.304C179.27 229.304 181.03 228.472 182.566 226.808C184.102 225.144 185.126 222.744 185.638 219.608C183.654 218.264 182.118 216.504 181.03 214.328C180.006 212.152 179.494 209.848 179.494 207.416C179.494 206.52 179.622 205.304 179.878 203.768H179.59C176.966 203.768 174.758 205.08 172.966 207.704C171.238 210.264 170.374 213.72 170.374 218.072C170.374 221.72 171.046 224.504 172.39 226.424C173.798 228.344 175.43 229.304 177.286 229.304ZM252.037 209.528C252.869 209.528 253.509 209.944 253.957 210.776C254.405 211.608 254.629 212.664 254.629 213.944C254.629 217.016 253.701 218.84 251.845 219.416C248.005 220.76 243.781 221.528 239.173 221.72C237.957 227.096 235.557 231.416 231.973 234.68C228.389 237.88 224.325 239.48 219.781 239.48C215.941 239.48 212.645 238.552 209.893 236.696C207.205 234.84 205.157 232.376 203.749 229.304C202.341 226.232 201.637 222.904 201.637 219.32C201.637 214.456 202.565 210.136 204.421 206.36C206.277 202.52 208.837 199.544 212.101 197.432C215.365 195.256 218.981 194.168 222.949 194.168C227.813 194.168 231.717 195.864 234.661 199.256C237.669 202.584 239.429 206.712 239.941 211.64C242.949 211.448 246.533 210.808 250.693 209.72C251.205 209.592 251.653 209.528 252.037 209.528ZM220.549 229.304C222.597 229.304 224.357 228.472 225.829 226.808C227.365 225.144 228.389 222.744 228.901 219.608C226.917 218.264 225.381 216.504 224.293 214.328C223.269 212.152 222.757 209.848 222.757 207.416C222.757 206.392 222.853 205.368 223.045 204.344H222.565C220.005 204.344 217.861 205.592 216.133 208.088C214.469 210.52 213.637 213.976 213.637 218.456C213.637 221.976 214.309 224.664 215.653 226.52C217.061 228.376 218.693 229.304 220.549 229.304ZM256.181 239.48C253.301 239.48 250.933 238.168 249.077 235.544C247.285 232.856 246.389 229.528 246.389 225.56C246.389 220.76 246.709 216.376 247.349 212.408C247.989 208.376 249.045 204.12 250.517 199.64C251.157 197.72 252.053 196.344 253.205 195.512C254.357 194.68 256.181 194.264 258.677 194.264C260.085 194.264 261.045 194.488 261.557 194.936C262.133 195.384 262.421 196.056 262.421 196.952C262.421 197.464 262.069 199.192 261.365 202.136C260.725 204.504 260.213 206.648 259.829 208.568C258.549 215.288 257.909 219.768 257.909 222.008C257.909 223.352 258.069 224.312 258.389 224.888C258.709 225.4 259.221 225.656 259.925 225.656C260.885 225.656 262.069 224.696 263.477 222.776C264.949 220.856 266.485 217.944 268.085 214.04C269.749 210.136 271.349 205.336 272.885 199.64C273.397 197.72 274.165 196.344 275.189 195.512C276.277 194.68 277.877 194.264 279.989 194.264C281.461 194.264 282.485 194.456 283.061 194.84C283.637 195.16 283.925 195.8 283.925 196.76C283.925 198.36 283.125 202.744 281.525 209.912C279.733 218.104 278.837 223.16 278.837 225.08C278.837 226.296 279.093 227.256 279.605 227.96C280.117 228.6 280.789 228.92 281.621 228.92C282.901 228.92 284.405 228.152 286.133 226.616C287.925 225.016 290.293 222.456 293.237 218.936C294.005 218.04 294.869 217.592 295.829 217.592C296.661 217.592 297.301 217.976 297.749 218.744C298.261 219.512 298.517 220.568 298.517 221.912C298.517 224.472 297.909 226.456 296.693 227.864C293.941 231.256 290.965 234.04 287.765 236.216C284.629 238.392 281.045 239.48 277.013 239.48C273.941 239.48 271.669 238.296 270.197 235.928C268.789 233.56 268.085 230.232 268.085 225.944C266.997 230.296 265.365 233.656 263.189 236.024C261.013 238.328 258.677 239.48 256.181 239.48ZM306.573 203.384C306.445 206.584 306.381 209.08 306.381 210.872C306.381 215.48 306.605 219.096 307.053 221.72C307.565 224.28 308.365 226.136 309.453 227.288C310.605 228.376 312.173 228.92 314.157 228.92C315.181 228.92 316.397 228.6 317.805 227.96C319.213 227.32 320.493 226.488 321.645 225.464C322.349 224.824 323.053 224.504 323.757 224.504C324.525 224.504 325.133 224.952 325.581 225.848C326.093 226.68 326.349 227.704 326.349 228.92C326.349 230.136 326.093 231.32 325.581 232.472C325.133 233.624 324.429 234.584 323.469 235.352C320.141 238.104 316.365 239.48 312.141 239.48C306.061 239.48 301.613 236.952 298.797 231.896C295.981 226.776 294.573 220.12 294.573 211.928C294.573 209.112 294.669 206.264 294.861 203.384H291.117C289.197 203.384 287.885 203.032 287.181 202.328C286.541 201.624 286.221 200.504 286.221 198.968C286.221 195.384 287.661 193.592 290.541 193.592H296.013C297.101 186.552 298.765 180.12 301.005 174.296C303.245 168.472 305.933 163.832 309.069 160.376C312.269 156.92 315.693 155.192 319.341 155.192C322.029 155.192 324.141 156.376 325.677 158.744C327.213 161.112 327.981 164.088 327.981 167.672C327.981 177.592 323.821 186.232 315.501 193.592H326.253C327.277 193.592 328.013 193.816 328.461 194.264C328.909 194.712 329.133 195.544 329.133 196.76C329.133 201.176 325.517 203.384 318.285 203.384H306.573ZM316.749 164.408C315.789 164.408 314.701 165.624 313.485 168.056C312.333 170.424 311.213 173.752 310.125 178.04C309.101 182.264 308.237 186.968 307.533 192.152C311.309 188.888 314.125 185.24 315.981 181.208C317.901 177.112 318.861 173.4 318.861 170.072C318.861 166.296 318.157 164.408 316.749 164.408ZM362.612 239.48C360.18 239.48 358.452 238.2 357.428 235.64C356.468 233.08 355.988 228.984 355.988 223.352C355.988 215.032 357.172 207.128 359.54 199.64C360.116 197.784 361.044 196.44 362.324 195.608C363.668 194.712 365.524 194.264 367.892 194.264C369.172 194.264 370.068 194.424 370.58 194.744C371.092 195.064 371.348 195.672 371.348 196.568C371.348 197.592 370.868 199.896 369.908 203.48C369.268 206.04 368.756 208.28 368.372 210.2C367.988 212.056 367.668 214.392 367.412 217.208C369.14 212.216 371.188 207.992 373.556 204.536C375.988 201.08 378.452 198.52 380.948 196.856C383.508 195.128 385.908 194.264 388.148 194.264C390.388 194.264 391.956 194.776 392.852 195.8C393.812 196.824 394.292 198.392 394.292 200.504C394.292 202.552 393.684 206.264 392.468 211.64C391.956 213.944 391.604 215.672 391.412 216.824C394.612 208.952 398.164 203.224 402.068 199.64C405.972 196.056 409.62 194.264 413.012 194.264C417.172 194.264 419.252 196.344 419.252 200.504C419.252 203 418.548 207.512 417.14 214.04C415.924 219.608 415.316 223.288 415.316 225.08C415.316 227.64 416.244 228.92 418.1 228.92C419.38 228.92 420.884 228.152 422.612 226.616C424.404 225.016 426.772 222.456 429.716 218.936C430.484 218.04 431.348 217.592 432.308 217.592C433.14 217.592 433.78 217.976 434.228 218.744C434.74 219.512 434.996 220.568 434.996 221.912C434.996 224.472 434.388 226.456 433.172 227.864C430.42 231.256 427.444 234.04 424.244 236.216C421.108 238.392 417.524 239.48 413.492 239.48C410.228 239.48 407.764 238.552 406.1 236.696C404.436 234.776 403.604 232.024 403.604 228.44C403.604 226.648 404.052 223.448 404.948 218.84C405.78 214.808 406.196 212.024 406.196 210.488C406.196 209.464 405.844 208.952 405.14 208.952C404.308 208.952 403.124 210.04 401.588 212.216C400.052 214.328 398.516 217.144 396.98 220.664C395.444 224.184 394.196 227.896 393.236 231.8C392.532 234.872 391.7 236.92 390.74 237.944C389.844 238.968 388.372 239.48 386.324 239.48C384.212 239.48 382.612 238.488 381.524 236.504C380.5 234.456 379.988 231.992 379.988 229.112C379.988 226.68 380.308 223.16 380.948 218.552C381.46 214.456 381.716 211.768 381.716 210.488C381.716 209.464 381.364 208.952 380.66 208.952C379.7 208.952 378.484 210.104 377.012 212.408C375.54 214.712 374.1 217.656 372.692 221.24C371.348 224.824 370.26 228.344 369.428 231.8C368.724 234.808 367.892 236.856 366.932 237.944C366.036 238.968 364.596 239.48 362.612 239.48ZM461.601 220.472C462.433 220.472 463.073 220.856 463.521 221.624C464.033 222.392 464.289 223.448 464.289 224.792C464.289 227.096 463.745 229.08 462.657 230.744C460.865 233.496 458.497 235.64 455.553 237.176C452.673 238.712 449.217 239.48 445.185 239.48C439.041 239.48 434.273 237.656 430.881 234.008C427.489 230.296 425.793 225.304 425.793 219.032C425.793 214.616 426.721 210.52 428.577 206.744C430.433 202.904 432.993 199.864 436.257 197.624C439.585 195.384 443.329 194.264 447.489 194.264C451.201 194.264 454.177 195.384 456.417 197.624C458.657 199.8 459.777 202.776 459.777 206.552C459.777 210.968 458.177 214.776 454.977 217.976C451.841 221.112 446.465 223.608 438.849 225.464C440.385 228.408 442.977 229.88 446.625 229.88C449.249 229.88 451.393 229.272 453.057 228.056C454.785 226.84 456.769 224.792 459.009 221.912C459.777 220.952 460.641 220.472 461.601 220.472ZM445.857 203.672C443.489 203.672 441.473 205.048 439.809 207.8C438.209 210.552 437.409 213.88 437.409 217.784V217.976C441.185 217.08 444.161 215.736 446.337 213.944C448.513 212.152 449.601 210.072 449.601 207.704C449.601 206.488 449.249 205.528 448.545 204.824C447.905 204.056 447.009 203.672 445.857 203.672ZM477.638 239.48C474.822 239.48 472.678 238.712 471.206 237.176C469.798 235.64 469.094 233.624 469.094 231.128C469.094 228.248 469.894 225.944 471.494 224.216C473.158 222.488 475.462 221.624 478.406 221.624C481.222 221.624 483.334 222.328 484.742 223.736C486.214 225.08 486.95 227.096 486.95 229.784C486.95 232.728 486.118 235.096 484.454 236.888C482.79 238.616 480.518 239.48 477.638 239.48ZM502.295 239.48C499.479 239.48 497.335 238.712 495.863 237.176C494.455 235.64 493.751 233.624 493.751 231.128C493.751 228.248 494.551 225.944 496.151 224.216C497.815 222.488 500.119 221.624 503.062 221.624C505.879 221.624 507.991 222.328 509.399 223.736C510.871 225.08 511.607 227.096 511.607 229.784C511.607 232.728 510.775 235.096 509.111 236.888C507.447 238.616 505.175 239.48 502.295 239.48ZM526.951 239.48C524.135 239.48 521.991 238.712 520.519 237.176C519.111 235.64 518.407 233.624 518.407 231.128C518.407 228.248 519.207 225.944 520.807 224.216C522.471 222.488 524.775 221.624 527.719 221.624C530.535 221.624 532.647 222.328 534.055 223.736C535.527 225.08 536.263 227.096 536.263 229.784C536.263 232.728 535.431 235.096 533.767 236.888C532.103 238.616 529.831 239.48 526.951 239.48Z" fill="#B5A6A6"/>
<g clip-path="url(#clip0)">
<path d="M1212.41 811.393C1212.41 811.393 1215.6 800.823 1203.45 794.804L1212.41 811.393Z" fill="#BAD1D2"/>
<path d="M1212.81 811.45C1212.81 811.45 1214.07 801.017 1228.22 800.363L1212.81 811.45Z" fill="#BAD1D2"/>
<path d="M1323.13 814.465C1320.88 823.556 1202.9 822.793 1203.08 814.465C1205.32 805.374 1323.31 806.137 1323.13 814.465Z" fill="#BAD1D2"/>
<path d="M990.737 575.951C991.789 575.951 992.642 575.112 992.642 574.077C992.642 573.043 991.789 572.204 990.737 572.204C989.685 572.204 988.832 573.043 988.832 574.077C988.832 575.112 989.685 575.951 990.737 575.951Z" fill="white"/>
<path d="M997.967 575.951C999.019 575.951 999.872 575.112 999.872 574.077C999.872 573.043 999.019 572.204 997.967 572.204C996.915 572.204 996.062 573.043 996.062 574.077C996.062 575.112 996.915 575.951 997.967 575.951Z" fill="white"/>
<path d="M1005.2 575.951C1006.25 575.951 1007.1 575.112 1007.1 574.077C1007.1 573.043 1006.25 572.204 1005.2 572.204C1004.15 572.204 1003.29 573.043 1003.29 574.077C1003.29 575.112 1004.15 575.951 1005.2 575.951Z" fill="white"/>
<path d="M1228.02 578.478H986.109V579.8H1228.02V578.478Z" fill="white"/>
<path d="M1297.95 768.191C1297.95 768.191 1296.55 763.525 1298.83 765.047C1301.11 766.57 1307.75 768.855 1305.36 772.516C1302.97 776.177 1288.65 796.412 1286.33 792.402C1285.05 790.176 1289.53 771.295 1289.53 771.295C1289.53 771.295 1292.72 770.571 1293.17 771.295C1293.63 772.019 1297.95 768.191 1297.95 768.191Z" fill="#2F2E41"/>
<path d="M1277.41 649.111L1276.98 656.683L1271.42 667.623L1289.82 666.781L1288.53 655.421L1289.39 650.792L1277.41 649.111Z" fill="#FFB8B8"/>
<path d="M1275.27 662.153C1275.27 662.153 1278.26 665.519 1285.97 661.732L1291.96 690.342L1292.81 716.008L1267.14 715.167L1267.57 689.08L1275.27 662.153Z" fill="#D1D1D1"/>
<path d="M1260.92 716.622C1260.92 716.622 1263.68 729.976 1268.85 726.74C1274.02 723.505 1267.73 714.13 1267.73 714.13L1260.92 716.622Z" fill="#FFB8B8"/>
<path d="M1286.39 788.383L1285.97 795.536L1292.81 797.639V787.962L1286.39 788.383Z" fill="#FFB8B8"/>
<path d="M1263.72 713.487V755.563L1288.11 776.181L1294.1 766.082L1276.98 752.197L1281.26 741.678L1299.23 730.317V713.908L1263.72 713.487Z" fill="#4E4E55"/>
<path d="M1281.69 739.574L1284.25 761.033L1285.11 789.643H1296.24C1296.24 789.643 1300.09 764.397 1295.81 758.085L1299.23 730.319L1295.81 719.379L1281.69 739.574Z" fill="#4E4E55"/>
<path d="M1291.53 795.115C1291.53 795.115 1291.96 793.432 1288.96 793.432C1285.97 793.432 1284.68 793.852 1284.68 794.273C1284.58 794.982 1284.44 795.685 1284.25 796.377C1284.25 796.377 1276.55 815.311 1284.25 814.47C1291.95 813.628 1293.24 809.842 1293.24 809.842L1294.1 797.64C1294.1 797.64 1293.24 796.61 1292.81 796.704C1292.38 796.799 1291.53 795.115 1291.53 795.115Z" fill="#2F2E41"/>
<path d="M1284.25 653.318C1289.45 653.318 1293.67 649.174 1293.67 644.061C1293.67 638.949 1289.45 634.805 1284.25 634.805C1279.06 634.805 1274.84 638.949 1274.84 644.061C1274.84 649.174 1279.06 653.318 1284.25 653.318Z" fill="#FFB8B8"/>
<path d="M1285.97 664.679L1282.97 661.313L1288.76 654.186L1291.1 656.681L1304.8 662.572L1300.95 699.598C1300.95 699.598 1300.52 710.538 1303.08 718.112C1303.08 718.112 1297.52 724.844 1288.96 723.161L1277.84 725.265C1277.84 725.265 1276.55 670.99 1285.97 664.679Z" fill="#ADA9A5"/>
<path d="M1276.55 662.575L1277.04 655.562L1274.84 658.367L1263.29 666.782L1264.57 713.487L1268.42 715.591L1274.84 665.523L1276.55 662.575Z" fill="#ADA9A5"/>
<path d="M1266.28 666.362L1263.29 666.783C1263.29 666.783 1261.15 670.569 1261.15 670.99C1261.15 671.412 1260.29 693.291 1260.29 693.291C1260.29 693.291 1258.79 715.38 1261.36 719.588L1268.94 711.574L1266.28 704.23V666.362Z" fill="#ADA9A5"/>
<path opacity="0.3" d="M1284.03 759.149L1284.62 773.233L1282.84 771.727L1284.03 759.149Z" fill="black"/>
<path opacity="0.3" d="M1298.25 764.768L1297.63 765.072L1296.96 783.94L1298.51 781.982L1298.25 764.768Z" fill="black"/>
<path d="M1310.78 718.536C1310.78 718.536 1308.64 732.002 1314.63 730.738C1320.62 729.474 1318.06 718.536 1318.06 718.536H1310.78Z" fill="#FFB8B8"/>
<path d="M1300.94 662.575H1304.79C1304.79 662.575 1307.36 663.837 1307.79 667.624C1308.22 671.411 1314.21 688.241 1314.21 688.241C1314.21 688.241 1321.05 716.011 1320.62 719.798H1309.93L1310.78 712.226L1299.23 681.931L1300.94 662.575Z" fill="#ADA9A5"/>
<path d="M1276.25 635.169L1274.45 634.463C1274.45 634.463 1278.21 630.401 1283.43 630.754L1281.96 629.164C1281.96 629.164 1285.55 627.751 1288.81 631.46C1290.52 633.41 1292.51 635.702 1293.75 638.283H1295.67L1294.87 640.02L1297.67 641.757L1294.79 641.445C1294.96 642.397 1294.99 643.368 1294.87 644.327C1294.75 645.286 1294.25 646.16 1293.48 646.765V646.765C1293.48 646.765 1291.26 642.236 1291.26 641.529V643.295C1291.26 643.295 1289.46 641.706 1289.46 640.646L1288.48 641.882L1288 639.94L1281.96 641.882L1282.94 640.293L1279.18 640.823L1280.65 638.88C1280.65 638.88 1276.41 641.176 1276.25 643.118C1276.06 644.465 1275.59 645.757 1274.84 646.902C1274.84 646.902 1271.52 637.819 1276.25 635.169Z" fill="#2F2E41"/>
<path d="M1228.22 550.155H950.118V725.294H1228.22V550.155Z" fill="#BAD1D2"/>
<path d="M1228.1 550H950V561.618H1228.1V550Z" fill="#A19FBE"/>
<path d="M1220.5 570.988H958.301V637.753H1220.5V570.988Z" fill="white"/>
<path d="M1220.67 648.724H958.467V715.489H1220.67V648.724Z" fill="white"/>
<path d="M1188.74 585.758H1046.84V591.977H1188.74V585.758Z" fill="#BAD1D2"/>
<path d="M1097.44 601.305H1046.84V607.524H1097.44V601.305Z" fill="#BAD1D2"/>
<path d="M1147.64 616.853H1046.84V623.071H1147.64V616.853Z" fill="#BAD1D2"/>
<path d="M1037.32 604.401C1037.33 608.926 1035.99 613.354 1033.47 617.139C1032.94 617.937 1032.36 618.702 1031.74 619.428C1030.27 621.139 1028.56 622.633 1026.66 623.866C1026.14 624.203 1025.61 624.518 1025.06 624.813C1022.22 626.357 1019.09 627.306 1015.86 627.601C1015.12 627.671 1014.37 627.705 1013.62 627.705C1011.56 627.707 1009.5 627.442 1007.51 626.918C1006.37 626.626 1005.27 626.248 1004.2 625.789C1003.65 625.556 1003.11 625.303 1002.59 625.03C1001.33 624.38 1000.14 623.619 999.021 622.756C998.501 622.358 998 621.939 997.518 621.498C994.63 618.868 992.454 615.573 991.186 611.909C989.918 608.245 989.598 604.328 990.255 600.512C990.912 596.696 992.525 593.102 994.948 590.052C997.372 587.002 1000.53 584.594 1004.14 583.045C1007.74 581.496 1011.69 580.855 1015.61 581.179C1019.53 581.503 1023.31 582.783 1026.6 584.902C1029.89 587.022 1032.6 589.914 1034.47 593.319C1036.34 596.723 1037.32 600.533 1037.32 604.403L1037.32 604.401Z" fill="#BAD1D2"/>
<path d="M1007.88 606.506C1007.88 606.506 1010.04 612.401 1008.36 615.7C1006.68 618.998 1011 622.771 1011 622.771C1011 622.771 1022.26 617.114 1020.82 614.285C1019.39 611.456 1016.99 607.685 1017.47 605.328L1007.88 606.506Z" fill="#FFB8B8"/>
<path d="M1012.07 608.746C1016.31 608.746 1019.74 605.369 1019.74 601.203C1019.74 597.037 1016.31 593.66 1012.07 593.66C1007.84 593.66 1004.4 597.037 1004.4 601.203C1004.4 605.369 1007.84 608.746 1012.07 608.746Z" fill="#FFB8B8"/>
<path d="M1007.51 626.917C1006.37 626.625 1005.27 626.247 1004.2 625.788L1004.4 620.062L1006.56 615.345C1007.04 615.719 1007.56 616.048 1008.11 616.328C1008.24 616.398 1008.37 616.465 1008.52 616.533C1010.54 617.494 1013.85 618.34 1017.05 615.982C1018.23 615.081 1019.23 613.975 1020 612.72L1025.98 616.053L1026.29 619.664L1026.66 623.866C1026.14 624.203 1025.61 624.518 1025.06 624.813C1022.22 626.357 1019.09 627.306 1015.86 627.6C1015.12 627.671 1014.38 627.704 1013.62 627.704C1011.56 627.706 1009.5 627.442 1007.51 626.917Z" fill="#67687B"/>
<path d="M1008.98 611.817V611.826L1008.68 614.905L1008.52 616.533L1008.28 618.953L1007.51 626.917C1006.38 626.625 1005.27 626.247 1004.2 625.788C1003.65 625.555 1003.11 625.302 1002.59 625.029C1001.33 624.379 1000.14 623.618 999.022 622.755L998.169 618.883L998.234 618.84L1008.98 611.817Z" fill="#67687B"/>
<path d="M1025.06 624.811C1022.22 626.356 1019.09 627.305 1015.86 627.599C1016.03 624.735 1016.29 621.968 1016.57 619.505C1016.72 618.241 1016.88 617.059 1017.05 615.982C1017.57 612.521 1018.13 610.17 1018.53 609.852L1021.18 611.573L1031.97 615.343L1031.73 619.426C1030.27 621.137 1028.56 622.631 1026.66 623.864C1026.14 624.202 1025.61 624.518 1025.06 624.811Z" fill="#6E6E73"/>
<path d="M999.021 622.755C998.501 622.357 998 621.938 997.518 621.497L997.929 618.883L998.235 618.84L999.607 618.647L1002.59 625.029C1001.33 624.379 1000.14 623.618 999.022 622.755H999.021Z" fill="#6E6E73"/>
<path d="M1033.47 617.139C1032.94 617.937 1032.36 618.702 1031.74 619.428C1030.27 621.139 1028.56 622.633 1026.66 623.866C1026.14 624.203 1025.61 624.518 1025.06 624.812L1024.78 623.597L1026.29 619.665L1028.13 614.875L1031.97 615.348C1032.5 615.919 1033 616.517 1033.47 617.139V617.139Z" fill="#6E6E73"/>
<path d="M1019.39 594.38C1018.23 592.528 1016.41 591.164 1014.29 590.548L1012.73 591.775L1013.34 590.345C1012.83 590.269 1012.31 590.24 1011.8 590.258L1010.4 592.031L1010.98 590.319C1009.76 590.468 1008.59 590.863 1007.53 591.479C1006.48 592.096 1005.57 592.92 1004.85 593.901C1003.07 596.431 1002.77 599.951 1004.52 602.501C1005 601.045 1005.59 599.678 1006.07 598.222C1006.45 598.273 1006.83 598.275 1007.21 598.228L1007.8 596.882L1007.96 598.17C1009.78 598.015 1012.48 597.673 1014.2 597.36L1014.03 596.37L1015.03 597.192C1015.56 597.072 1015.88 596.964 1015.85 596.881C1017.13 598.912 1018.4 600.209 1019.68 602.24C1020.17 599.377 1021.02 596.994 1019.39 594.38Z" fill="#2F2E41"/>
<path d="M1018.96 601.988C1019.25 601.988 1019.48 601.53 1019.48 600.966C1019.48 600.402 1019.25 599.945 1018.96 599.945C1018.68 599.945 1018.44 600.402 1018.44 600.966C1018.44 601.53 1018.68 601.988 1018.96 601.988Z" fill="#FFB8B8"/>
<path d="M1036.17 681.765C1036.18 686.293 1034.84 690.724 1032.31 694.511C1031.78 695.31 1031.21 696.075 1030.58 696.802C1029.11 698.514 1027.4 700.009 1025.5 701.243C1024.98 701.58 1024.45 701.896 1023.9 702.19C1021.06 703.735 1017.92 704.685 1014.69 704.98C1013.95 705.05 1013.21 705.084 1012.45 705.084C1010.39 705.086 1008.33 704.821 1006.33 704.297C1005.2 704.004 1004.09 703.627 1003.02 703.167C1002.47 702.934 1001.94 702.681 1001.41 702.407C1000.16 701.757 998.959 700.996 997.842 700.132C997.321 699.734 996.82 699.314 996.337 698.873C993.449 696.241 991.273 692.943 990.005 689.278C988.737 685.612 988.417 681.693 989.074 677.875C989.732 674.058 991.346 670.461 993.771 667.41C996.196 664.359 999.355 661.95 1002.96 660.4C1006.57 658.85 1010.52 658.208 1014.44 658.533C1018.36 658.857 1022.14 660.137 1025.44 662.257C1028.73 664.377 1031.44 667.27 1033.31 670.676C1035.19 674.082 1036.17 677.893 1036.17 681.765V681.765Z" fill="#A6A6A8"/>
<path d="M1013.91 670.879H1011V692.645H1013.91V670.879Z" fill="white"/>
<path d="M1023.52 683.191V680.333H1001.39V683.191H1023.52Z" fill="white"/>
<path d="M1185.19 663.494H1043.28V669.713H1185.19V663.494Z" fill="#BAD1D2"/>
<path d="M1093.88 679.041H1043.28V685.26H1093.88V679.041Z" fill="#BAD1D2"/>
<path d="M1144.08 694.588H1043.28V700.807H1144.08V694.588Z" fill="#BAD1D2"/>
<path d="M968.393 557.701C969.472 557.701 970.348 556.841 970.348 555.779C970.348 554.718 969.472 553.857 968.393 553.857C967.314 553.857 966.439 554.718 966.439 555.779C966.439 556.841 967.314 557.701 968.393 557.701Z" fill="white"/>
<path d="M975.812 557.701C976.891 557.701 977.766 556.841 977.766 555.779C977.766 554.718 976.891 553.857 975.812 553.857C974.732 553.857 973.857 554.718 973.857 555.779C973.857 556.841 974.732 557.701 975.812 557.701Z" fill="white"/>
<path d="M960.955 557.701C962.035 557.701 962.91 556.841 962.91 555.779C962.91 554.718 962.035 553.857 960.955 553.857C959.876 553.857 959.001 554.718 959.001 555.779C959.001 556.841 959.876 557.701 960.955 557.701Z" fill="white"/>
</g>
<g clip-path="url(#clip1)">
<path d="M1144.09 230.494C1153.16 218.505 1178.12 188.023 1186.99 177.213L1203.64 187.478L1160.18 241.424C1154.36 248.402 1155.89 258.606 1163.69 264.001C1170.9 269.012 1213.54 298.042 1223.29 304.687C1223.98 297.417 1226.63 290.661 1231 285.045C1235.38 279.428 1288.07 210.67 1301.21 192.5C1305.59 186.44 1306.58 179.936 1303.97 174.178C1301.47 168.643 1296.11 164.922 1290.62 164.922C1282.04 164.922 1277.48 171.526 1276.16 177.173C1274.67 183.636 1276.49 189.586 1281.98 194.163L1269.57 210.539L1196.81 165.708C1183.54 155.111 1179.81 135.549 1188.13 120.202C1193.9 109.584 1204.55 103 1215.93 103C1227.01 103 1223.33 102.839 1305.2 148.123C1316.72 154.082 1324.33 166.142 1324.33 180.41C1324.33 189.182 1321.46 198.116 1316.04 205.487C1302.72 223.577 1245.47 298.102 1244.95 298.828C1241.49 303.799 1240.97 310.112 1243.55 315.698C1246.14 321.294 1251.13 324.632 1256.89 324.632C1265.47 324.632 1270.03 318.027 1271.35 312.37C1272.8 306.028 1271.24 300.19 1265.71 295.693L1277.63 280.114C1285.3 286.819 1289.55 295.198 1290.48 304.737C1292.65 326.971 1276.25 345 1256.76 345C1251.2 345 1244.52 343.215 1239.58 339.857L1151.59 279.902C1142.66 273.207 1137.67 261.944 1137.67 250.691C1137.67 243.189 1139.91 236.029 1144.09 230.494V230.494ZM1221.48 124.699C1219.73 123.822 1217.77 123.348 1215.8 123.348C1210.83 123.348 1206.49 126.182 1204.19 130.931C1201.28 136.941 1202.09 145.743 1209.31 150.21L1256.88 179.331C1257.36 168.35 1262.29 158.347 1270.46 151.783L1221.48 124.699V124.699ZM1243.64 248.371L1234.39 221.237L1226.8 231.492L1230.95 245.941L1214.32 248.341L1206.74 258.576L1238.47 255.339L1243.64 248.371V248.371ZM1192.48 217.355L1187.33 224.323L1196.57 251.457L1204.15 241.222L1200.04 226.723L1216.64 224.383L1224.21 214.139L1192.48 217.355Z" fill="#B5A6A6"/>
</g>
<defs>
<clipPath id="clip0">
<rect x="950" y="550" width="393" height="271" fill="white"/>
</clipPath>
<clipPath id="clip1">
<rect width="224" height="242" transform="matrix(-1 0 0 1 1343 103)" fill="white"/>
</clipPath>
</defs>
</svg>
