<svg width="1440" height="1289" viewBox="0 0 1440 1289" fill="none" xmlns="http://www.w3.org/2000/svg">
<rect width="1440" height="1289" fill="white"/>
<path d="M145.464 189.592C142.136 189.592 139.576 188.824 137.784 187.288C136.056 185.752 135.192 184.024 135.192 182.104C135.192 180.44 135.8 179 137.016 177.784C138.232 176.568 140.024 175.96 142.392 175.96C143.224 175.96 144.184 176.056 145.272 176.248C146.424 176.376 147.288 176.472 147.864 176.536C147.8 174.872 147.416 173.304 146.712 171.832C146.072 170.36 145.24 168.952 144.216 167.608C143.192 166.2 142.232 164.984 141.336 163.96C139.352 167.736 137.368 170.872 135.384 173.368C133.464 175.864 131.352 178.232 129.048 180.472C127.896 181.624 126.68 182.2 125.4 182.2C124.376 182.2 123.544 181.848 122.904 181.144C122.264 180.376 121.944 179.448 121.944 178.36C121.944 177.08 122.392 175.896 123.288 174.808L124.536 173.272C128.056 168.92 130.712 165.336 132.504 162.52C133.592 160.664 134.872 158.2 136.344 155.128C137.816 151.992 139.256 148.76 140.664 145.432C141.88 142.616 144.408 141.208 148.248 141.208C150.04 141.208 151.288 141.368 151.992 141.688C152.696 142.008 153.048 142.52 153.048 143.224C153.048 143.608 152.92 144.216 152.664 145.048C152.408 145.88 152.056 146.712 151.608 147.544C150.456 149.848 149.88 151.8 149.88 153.4C149.88 154.36 150.2 155.416 150.84 156.568C151.544 157.72 152.6 159.16 154.008 160.888C156.056 163.576 157.592 165.88 158.616 167.8C159.704 169.656 160.248 171.704 160.248 173.944C160.248 174.584 160.184 175.48 160.056 176.632C163.192 175.416 166.872 172.184 171.096 166.936C171.864 166.04 172.728 165.592 173.688 165.592C174.52 165.592 175.16 165.976 175.608 166.744C176.12 167.512 176.376 168.568 176.376 169.912C176.376 172.344 175.768 174.328 174.552 175.864C171.352 179.832 168.28 182.552 165.336 184.024C162.456 185.432 158.872 186.2 154.584 186.328C152.024 188.504 148.984 189.592 145.464 189.592ZM224.065 165.592C224.897 165.592 225.537 165.976 225.985 166.744C226.497 167.512 226.753 168.568 226.753 169.912C226.753 172.472 226.145 174.456 224.929 175.864C222.049 179.384 219.137 182.2 216.193 184.312C213.249 186.424 209.761 187.48 205.729 187.48C200.801 187.48 196.833 186.072 193.825 183.256C190.817 180.44 189.313 176.696 189.313 172.024C189.313 169.528 190.593 167.736 193.153 166.648C195.969 165.432 197.985 164.152 199.201 162.808C200.417 161.4 201.025 159.704 201.025 157.72C201.025 156.568 200.769 155.704 200.257 155.128C199.809 154.552 199.233 154.264 198.529 154.264C196.801 154.264 194.881 155.512 192.769 158.008C190.721 160.504 188.801 163.736 187.009 167.704C185.217 171.608 183.809 175.64 182.785 179.8C182.081 182.808 181.249 184.856 180.289 185.944C179.393 186.968 177.953 187.48 175.969 187.48C173.985 187.48 172.513 186.776 171.553 185.368C170.657 183.896 170.049 181.656 169.729 178.648C169.409 175.64 169.249 171.224 169.249 165.4C169.249 155.544 170.241 145.272 172.225 134.584C174.273 123.896 177.249 114.936 181.153 107.704C185.121 100.408 189.857 96.76 195.361 96.76C198.305 96.76 200.673 98.04 202.465 100.6C204.321 103.096 205.249 106.36 205.249 110.392C205.249 116.856 203.361 123.576 199.585 130.552C195.809 137.464 189.665 145.56 181.153 154.84C180.961 158.168 180.865 161.592 180.865 165.112C183.937 157.112 187.457 151.32 191.425 147.736C195.393 144.088 199.105 142.264 202.561 142.264C205.761 142.264 208.321 143.352 210.241 145.528C212.225 147.704 213.217 150.392 213.217 153.592C213.217 157.112 212.321 160.344 210.529 163.288C208.737 166.232 205.665 168.856 201.313 171.16C201.569 172.888 202.337 174.296 203.617 175.384C204.961 176.408 206.561 176.92 208.417 176.92C210.401 176.92 212.321 176.152 214.177 174.616C216.033 173.08 218.465 170.52 221.473 166.936C222.241 166.04 223.105 165.592 224.065 165.592ZM193.345 106.264C192.193 106.264 190.913 107.928 189.505 111.256C188.097 114.52 186.721 118.968 185.377 124.6C184.097 130.168 183.041 136.248 182.209 142.84C186.177 138.168 189.441 133.08 192.001 127.576C194.625 122.072 195.937 117.08 195.937 112.6C195.937 110.552 195.713 108.984 195.265 107.896C194.817 106.808 194.177 106.264 193.345 106.264ZM231.59 135.928C228.902 135.928 226.886 135.32 225.542 134.104C224.198 132.824 223.526 131.064 223.526 128.824C223.526 126.584 224.39 124.728 226.118 123.256C227.91 121.72 230.118 120.952 232.742 120.952C235.11 120.952 237.03 121.528 238.502 122.68C239.974 123.832 240.71 125.464 240.71 127.576C240.71 130.136 239.878 132.184 238.214 133.72C236.55 135.192 234.342 135.928 231.59 135.928ZM230.822 187.48C226.662 187.48 223.622 186.008 221.702 183.064C219.846 180.12 218.918 176.216 218.918 171.352C218.918 168.472 219.27 164.792 219.974 160.312C220.742 155.768 221.702 151.544 222.854 147.64C223.43 145.592 224.198 144.184 225.158 143.416C226.118 142.648 227.654 142.264 229.766 142.264C233.03 142.264 234.662 143.352 234.662 145.528C234.662 147.128 234.054 150.84 232.838 156.664C231.302 163.704 230.534 168.472 230.534 170.968C230.534 172.888 230.79 174.36 231.302 175.384C231.814 176.408 232.678 176.92 233.894 176.92C235.046 176.92 236.486 176.12 238.214 174.52C239.942 172.92 242.246 170.392 245.126 166.936C245.894 166.04 246.758 165.592 247.718 165.592C248.55 165.592 249.19 165.976 249.638 166.744C250.15 167.512 250.406 168.568 250.406 169.912C250.406 172.472 249.798 174.456 248.582 175.864C242.246 183.608 236.326 187.48 230.822 187.48ZM279.023 165.592C279.855 165.592 280.495 165.976 280.943 166.744C281.455 167.512 281.711 168.568 281.711 169.912C281.711 172.472 281.103 174.456 279.887 175.864C277.135 179.256 274.127 182.04 270.863 184.216C267.663 186.392 264.015 187.48 259.919 187.48C254.287 187.48 250.095 184.92 247.343 179.8C244.655 174.68 243.311 168.056 243.311 159.928C243.311 152.12 244.303 143.224 246.287 133.24C248.335 123.256 251.311 114.68 255.215 107.512C259.183 100.344 263.887 96.76 269.327 96.76C272.399 96.76 274.799 98.2 276.527 101.08C278.319 103.896 279.215 107.96 279.215 113.272C279.215 120.888 277.103 129.72 272.879 139.768C268.655 149.816 262.927 159.768 255.695 169.624C256.143 172.248 256.879 174.136 257.903 175.288C258.927 176.376 260.271 176.92 261.935 176.92C264.559 176.92 266.863 176.184 268.847 174.712C270.831 173.176 273.359 170.584 276.431 166.936C277.199 166.04 278.063 165.592 279.023 165.592ZM267.215 106.264C265.743 106.264 264.079 108.92 262.223 114.232C260.367 119.544 258.735 126.136 257.327 134.008C255.919 141.88 255.151 149.432 255.023 156.664C259.567 149.176 263.183 141.688 265.871 134.2C268.559 126.648 269.903 119.768 269.903 113.56C269.903 108.696 269.007 106.264 267.215 106.264ZM310.336 165.592C311.168 165.592 311.808 165.976 312.256 166.744C312.768 167.512 313.024 168.568 313.024 169.912C313.024 172.472 312.416 174.456 311.2 175.864C308.448 179.256 305.44 182.04 302.176 184.216C298.976 186.392 295.328 187.48 291.232 187.48C285.6 187.48 281.408 184.92 278.656 179.8C275.968 174.68 274.624 168.056 274.624 159.928C274.624 152.12 275.616 143.224 277.6 133.24C279.648 123.256 282.624 114.68 286.528 107.512C290.496 100.344 295.2 96.76 300.64 96.76C303.712 96.76 306.112 98.2 307.84 101.08C309.632 103.896 310.528 107.96 310.528 113.272C310.528 120.888 308.416 129.72 304.192 139.768C299.968 149.816 294.24 159.768 287.008 169.624C287.456 172.248 288.192 174.136 289.216 175.288C290.24 176.376 291.584 176.92 293.248 176.92C295.872 176.92 298.176 176.184 300.16 174.712C302.144 173.176 304.672 170.584 307.744 166.936C308.512 166.04 309.376 165.592 310.336 165.592ZM298.528 106.264C297.056 106.264 295.392 108.92 293.536 114.232C291.68 119.544 290.048 126.136 288.64 134.008C287.232 141.88 286.464 149.432 286.336 156.664C290.88 149.176 294.496 141.688 297.184 134.2C299.872 126.648 301.216 119.768 301.216 113.56C301.216 108.696 300.32 106.264 298.528 106.264ZM323.12 189.592C319.792 189.592 317.232 188.824 315.44 187.288C313.712 185.752 312.848 184.024 312.848 182.104C312.848 180.44 313.456 179 314.672 177.784C315.888 176.568 317.68 175.96 320.048 175.96C320.88 175.96 321.84 176.056 322.928 176.248C324.08 176.376 324.944 176.472 325.52 176.536C325.456 174.872 325.072 173.304 324.368 171.832C323.728 170.36 322.896 168.952 321.872 167.608C320.848 166.2 319.888 164.984 318.992 163.96C317.008 167.736 315.024 170.872 313.04 173.368C311.12 175.864 309.008 178.232 306.704 180.472C305.552 181.624 304.336 182.2 303.056 182.2C302.032 182.2 301.2 181.848 300.56 181.144C299.92 180.376 299.6 179.448 299.6 178.36C299.6 177.08 300.048 175.896 300.944 174.808L302.192 173.272C305.712 168.92 308.368 165.336 310.16 162.52C311.312 160.664 312.464 158.456 313.616 155.896C314.832 153.336 316.4 149.848 318.32 145.432C319.536 142.616 322.064 141.208 325.904 141.208C327.696 141.208 328.944 141.368 329.648 141.688C330.352 142.008 330.704 142.52 330.704 143.224C330.704 143.608 330.576 144.216 330.32 145.048C330.064 145.88 329.712 146.712 329.264 147.544C328.112 149.848 327.536 151.8 327.536 153.4C327.536 154.36 327.856 155.416 328.496 156.568C329.2 157.72 330.256 159.16 331.664 160.888C333.712 163.576 335.248 165.88 336.272 167.8C337.36 169.656 337.904 171.704 337.904 173.944C337.904 176.632 337.264 179.192 335.984 181.624C334.768 183.992 333.04 185.912 330.8 187.384C328.56 188.856 326 189.592 323.12 189.592ZM375.076 187.48C372.26 187.48 370.116 186.712 368.644 185.176C367.236 183.64 366.532 181.624 366.532 179.128C366.532 176.248 367.332 173.944 368.932 172.216C370.596 170.488 372.9 169.624 375.844 169.624C378.66 169.624 380.772 170.328 382.18 171.736C383.652 173.08 384.388 175.096 384.388 177.784C384.388 180.728 383.556 183.096 381.892 184.888C380.228 186.616 377.956 187.48 375.076 187.48ZM399.732 187.48C396.916 187.48 394.772 186.712 393.3 185.176C391.892 183.64 391.188 181.624 391.188 179.128C391.188 176.248 391.988 173.944 393.588 172.216C395.252 170.488 397.556 169.624 400.5 169.624C403.316 169.624 405.428 170.328 406.836 171.736C408.308 173.08 409.044 175.096 409.044 177.784C409.044 180.728 408.212 183.096 406.548 184.888C404.884 186.616 402.612 187.48 399.732 187.48ZM424.388 187.48C421.572 187.48 419.428 186.712 417.956 185.176C416.548 183.64 415.844 181.624 415.844 179.128C415.844 176.248 416.644 173.944 418.244 172.216C419.908 170.488 422.212 169.624 425.156 169.624C427.972 169.624 430.084 170.328 431.492 171.736C432.964 173.08 433.7 175.096 433.7 177.784C433.7 180.728 432.868 183.096 431.204 184.888C429.54 186.616 427.268 187.48 424.388 187.48Z" fill="#B5A6A6"/>
<g clip-path="url(#clip0)">
<path d="M200.851 1053.65H197.513V1055.95H200.851V1053.65Z" fill="#B0BEC5"/>
<path d="M205.301 1053.65H201.963V1055.95H205.301V1053.65Z" fill="#B0BEC5"/>
<path d="M209.754 1053.65H206.416V1055.95H209.754V1053.65Z" fill="#B0BEC5"/>
<path d="M214.203 1053.65H210.865V1055.95H214.203V1053.65Z" fill="#B0BEC5"/>
<path d="M218.656 1053.65H215.318V1055.95H218.656V1053.65Z" fill="#B0BEC5"/>
<path d="M223.109 1053.65H219.771V1055.95H223.109V1053.65Z" fill="#B0BEC5"/>
<path d="M227.559 1053.65H224.221V1055.95H227.559V1053.65Z" fill="#B0BEC5"/>
<path d="M232.012 1053.65H228.674V1055.95H232.012V1053.65Z" fill="#B0BEC5"/>
<path d="M236.461 1053.65H233.123V1055.95H236.461V1053.65Z" fill="#B0BEC5"/>
<path d="M240.914 1053.65H237.576V1055.95H240.914V1053.65Z" fill="#B0BEC5"/>
<path d="M314 1055.25H170.379V1220.39H314V1055.25Z" fill="url(#paint0_linear)"/>
<path d="M311.629 1165.5H172.754V1216.79H311.629V1165.5Z" fill="#ECEFF1"/>
<path d="M189.532 1177.67H184.151V1203.95H189.532V1177.67Z" fill="#64FFDA"/>
<g opacity="0.7">
<path opacity="0.7" d="M200.156 1177.67H194.775V1203.95H200.156V1177.67Z" fill="#64FFDA"/>
</g>
<g opacity="0.6">
<path opacity="0.6" d="M210.781 1177.67H205.4V1203.95H210.781V1177.67Z" fill="#64FFDA"/>
</g>
<g opacity="0.5">
<path opacity="0.5" d="M221.405 1177.67H216.024V1203.95H221.405V1177.67Z" fill="#64FFDA"/>
</g>
<g opacity="0.5">
<path opacity="0.5" d="M232.029 1177.67H226.648V1203.95H232.029V1177.67Z" fill="#64FFDA"/>
</g>
<g opacity="0.4">
<path opacity="0.4" d="M242.654 1177.67H237.273V1203.95H242.654V1177.67Z" fill="#64FFDA"/>
</g>
<g opacity="0.3">
<path opacity="0.3" d="M253.274 1177.67H247.893V1203.95H253.274V1177.67Z" fill="#64FFDA"/>
</g>
<path d="M291.964 1204.02C299.136 1204.02 304.949 1198.03 304.949 1190.64C304.949 1183.25 299.136 1177.26 291.964 1177.26C284.793 1177.26 278.98 1183.25 278.98 1190.64C278.98 1198.03 284.793 1204.02 291.964 1204.02Z" fill="#877373"/>
<path d="M311.629 1112.22H172.754V1163.51H311.629V1112.22Z" fill="#ECEFF1"/>
<path d="M189.532 1124.39H184.151V1150.67H189.532V1124.39Z" fill="#64FFDA"/>
<g opacity="0.7">
<path opacity="0.7" d="M200.156 1124.39H194.775V1150.67H200.156V1124.39Z" fill="#64FFDA"/>
</g>
<g opacity="0.6">
<path opacity="0.6" d="M210.781 1124.39H205.4V1150.67H210.781V1124.39Z" fill="#64FFDA"/>
</g>
<g opacity="0.5">
<path opacity="0.5" d="M221.405 1124.39H216.024V1150.67H221.405V1124.39Z" fill="#64FFDA"/>
</g>
<g opacity="0.5">
<path opacity="0.5" d="M232.029 1124.39H226.648V1150.67H232.029V1124.39Z" fill="#64FFDA"/>
</g>
<g opacity="0.4">
<path opacity="0.4" d="M242.654 1124.39H237.273V1150.67H242.654V1124.39Z" fill="#64FFDA"/>
</g>
<g opacity="0.3">
<path opacity="0.3" d="M253.274 1124.39H247.893V1150.67H253.274V1124.39Z" fill="#64FFDA"/>
</g>
<path d="M291.964 1150.74C299.136 1150.74 304.949 1144.75 304.949 1137.36C304.949 1129.97 299.136 1123.98 291.964 1123.98C284.793 1123.98 278.98 1129.97 278.98 1137.36C278.98 1144.75 284.793 1150.74 291.964 1150.74Z" fill="#877373"/>
<path d="M311.629 1058.94H172.754V1110.23H311.629V1058.94Z" fill="#ECEFF1"/>
<path d="M189.532 1071.1H184.151V1097.38H189.532V1071.1Z" fill="#64FFDA"/>
<g opacity="0.7">
<path opacity="0.7" d="M200.156 1071.1H194.775V1097.38H200.156V1071.1Z" fill="#64FFDA"/>
</g>
<g opacity="0.6">
<path opacity="0.6" d="M210.781 1071.1H205.4V1097.38H210.781V1071.1Z" fill="#64FFDA"/>
</g>
<g opacity="0.5">
<path opacity="0.5" d="M221.405 1071.1H216.024V1097.38H221.405V1071.1Z" fill="#64FFDA"/>
</g>
<g opacity="0.5">
<path opacity="0.5" d="M232.029 1071.1H226.648V1097.38H232.029V1071.1Z" fill="#64FFDA"/>
</g>
<g opacity="0.4">
<path opacity="0.4" d="M242.654 1071.1H237.273V1097.38H242.654V1071.1Z" fill="#64FFDA"/>
</g>
<g opacity="0.3">
<path opacity="0.3" d="M253.274 1071.1H247.893V1097.38H253.274V1071.1Z" fill="#64FFDA"/>
</g>
<path d="M291.964 1098.5C299.695 1098.5 305.962 1092.04 305.962 1084.08C305.962 1076.11 299.695 1069.66 291.964 1069.66C284.234 1069.66 277.967 1076.11 277.967 1084.08C277.967 1092.04 284.234 1098.5 291.964 1098.5Z" fill="url(#paint1_linear)"/>
<path d="M291.964 1152.14C299.695 1152.14 305.962 1145.68 305.962 1137.72C305.962 1129.75 299.695 1123.3 291.964 1123.3C284.234 1123.3 277.967 1129.75 277.967 1137.72C277.967 1145.68 284.234 1152.14 291.964 1152.14Z" fill="url(#paint2_linear)"/>
<path d="M291.964 1205.42C299.695 1205.42 305.962 1198.96 305.962 1191C305.962 1183.03 299.695 1176.58 291.964 1176.58C284.234 1176.58 277.967 1183.03 277.967 1191C277.967 1198.96 284.234 1205.42 291.964 1205.42Z" fill="url(#paint3_linear)"/>
<path d="M291.964 1097.45C299.136 1097.45 304.949 1091.46 304.949 1084.08C304.949 1076.69 299.136 1070.7 291.964 1070.7C284.793 1070.7 278.98 1076.69 278.98 1084.08C278.98 1091.46 284.793 1097.45 291.964 1097.45Z" fill="#877373"/>
<path d="M246.478 1061.3H195.188C194.72 1061.3 194.271 1061.11 193.941 1060.77C193.61 1060.43 193.424 1059.96 193.424 1059.48V1056.6C193.424 1056.12 193.61 1055.66 193.941 1055.32C194.271 1054.98 194.72 1054.78 195.188 1054.78H246.478V1061.3Z" fill="url(#paint4_linear)"/>
<path d="M246.478 1060.53H196.116C195.648 1060.53 195.199 1060.34 194.869 1060C194.538 1059.66 194.352 1059.2 194.352 1058.71V1056.98C194.352 1056.5 194.538 1056.04 194.869 1055.69C195.199 1055.35 195.648 1055.16 196.116 1055.16H246.478V1060.53Z" fill="#B0BEC5"/>
<path d="M115.776 1025.87L152.825 1059.64L195.873 1050.27L192.538 1040.28L159.18 1044.33L125.804 1014.16C125.005 1013.44 124.068 1012.9 123.053 1012.57C122.039 1012.25 120.969 1012.15 119.914 1012.27C118.858 1012.4 117.841 1012.76 116.927 1013.32C116.014 1013.88 115.225 1014.63 114.611 1015.52V1015.52C113.534 1017.09 113.058 1019.02 113.273 1020.93C113.487 1022.84 114.379 1024.6 115.776 1025.87V1025.87Z" fill="url(#paint5_linear)"/>
<path d="M195.851 1050.27C195.851 1050.27 206.832 1050.58 210.89 1044.34C214.948 1038.09 192.517 1040.28 192.517 1040.28L195.851 1050.27Z" fill="url(#paint6_linear)"/>
<path d="M110.917 1003.87C121.463 1003.87 130.013 995.058 130.013 984.193C130.013 973.328 121.463 964.52 110.917 964.52C100.37 964.52 91.8205 973.328 91.8205 984.193C91.8205 995.058 100.37 1003.87 110.917 1003.87Z" fill="url(#paint7_linear)"/>
<path d="M103.037 1005.74C103.037 1005.74 78.514 1022.75 84.7418 1075.35C85.5001 1081.7 84.9642 1088.15 83.1681 1094.27L79.9924 1105.03C79.9924 1105.03 133.943 1106.28 135.457 1105.03C136.396 1104.26 135.665 1084.44 133.033 1056.95C131.42 1040.11 136.477 1016.68 119.092 1003.87L103.037 1005.74Z" fill="url(#paint8_linear)"/>
<path d="M135.465 1104.41L159.409 1156.56L162.137 1209.64H145.164L137.889 1154.68L123.341 1128.14L108.793 1209.64H91.8205L96.9721 1149.06L80 1105.04L135.465 1104.41Z" fill="url(#paint9_linear)"/>
<path d="M162.14 1209.64L167.292 1217.76C167.292 1217.76 184.581 1224.63 176.992 1229H143.954V1209.64H162.14Z" fill="url(#paint10_linear)"/>
<path d="M108.493 1209.64L113.644 1217.76C113.644 1217.76 130.934 1224.63 123.344 1229H90.3068V1209.64H108.493Z" fill="url(#paint11_linear)"/>
<g opacity="0.2">
<path opacity="0.2" d="M111.22 964.21C107.923 964.203 104.682 965.08 101.813 966.755C106.301 964.741 111.367 964.58 115.967 966.305C120.566 968.029 124.347 971.508 126.529 976.022C128.71 980.536 129.126 985.74 127.689 990.561C126.253 995.381 123.074 999.45 118.81 1001.93C122.84 1000.13 126.144 996.952 128.168 992.937C130.191 988.921 130.809 984.31 129.918 979.88C129.026 975.45 126.68 971.472 123.275 968.615C119.869 965.759 115.612 964.2 111.22 964.199V964.21Z" fill="url(#paint12_linear)"/>
</g>
<path d="M134.131 952L128.817 960.361C126.908 963.367 124.135 966.781 120.701 966.083C119.106 965.759 117.829 964.574 116.555 963.538C112.388 960.128 107.233 957.816 101.912 957.784C96.591 957.751 91.1466 960.219 88.1509 964.745C85.9314 968.086 85.1657 972.208 84.7282 976.228C83.8496 984.269 84.7282 993.761 91.2454 998.276C91.7717 998.708 92.4214 998.949 93.0943 998.963C93.8 998.916 94.3716 998.454 94.9009 997.996C103.059 990.954 107.604 979.504 117.427 974.669C121.763 972.539 128.072 972.521 131.569 968.9C136.721 963.578 131.019 956.897 134.131 952Z" fill="url(#paint13_linear)"/>
<g opacity="0.2">
<path opacity="0.2" d="M114.435 963.538C115.708 964.581 116.982 965.766 118.581 966.083C119.23 966.215 119.899 966.202 120.543 966.043C119.022 965.679 117.79 964.534 116.559 963.531C112.392 960.121 107.237 957.809 101.916 957.776C101.542 957.776 101.171 957.776 100.797 957.809C105.772 958.111 110.553 960.361 114.435 963.538Z" fill="url(#paint14_linear)"/>
<path opacity="0.2" d="M134.131 952L131.065 956.831C131.357 960.804 133.051 965.192 129.459 968.9C125.959 972.535 119.65 972.535 115.317 974.669C105.483 979.504 100.945 990.958 92.7908 997.996C92.5112 998.248 92.2087 998.472 91.8875 998.665C92.26 998.875 92.6805 998.978 93.1049 998.963C93.8106 998.916 94.3822 998.454 94.9115 997.996C103.069 990.954 107.614 979.504 117.437 974.669C121.774 972.539 128.083 972.521 131.58 968.9C136.721 963.578 131.019 956.897 134.131 952Z" fill="url(#paint15_linear)"/>
</g>
<g opacity="0.2">
<path opacity="0.2" d="M133.044 1056.95C131.432 1040.11 136.488 1016.68 119.103 1003.88L115.423 1004.31C132.13 1017.2 127.208 1040.3 128.803 1056.96C131.435 1084.45 132.169 1104.27 131.227 1105.04C130.765 1105.41 125.426 1105.58 118.231 1105.6C127.487 1105.62 134.921 1105.5 135.472 1105.04C136.407 1104.26 135.673 1084.44 133.044 1056.95Z" fill="url(#paint16_linear)"/>
</g>
<path d="M105.098 1032.55L142.148 1066.31L185.195 1056.95L181.829 1046.96L148.488 1051.02L115.112 1020.85C114.314 1020.12 113.377 1019.58 112.362 1019.26C111.347 1018.93 110.278 1018.83 109.222 1018.96C108.167 1019.09 107.15 1019.44 106.236 1020C105.323 1020.56 104.533 1021.31 103.92 1022.21V1022.21C102.847 1023.78 102.374 1025.7 102.591 1027.61C102.808 1029.52 103.701 1031.28 105.098 1032.55V1032.55Z" fill="url(#paint17_linear)"/>
<path d="M185.174 1056.95C185.174 1056.95 196.155 1057.26 200.213 1051.02C204.27 1044.77 181.829 1046.96 181.829 1046.96L185.174 1056.95Z" fill="url(#paint18_linear)"/>
<path d="M111.873 995.437H109.953C105.964 995.437 102.731 998.768 102.731 1002.88V1004.86C102.731 1008.96 105.964 1012.3 109.953 1012.3H111.873C115.862 1012.3 119.096 1008.96 119.096 1004.86V1002.88C119.096 998.768 115.862 995.437 111.873 995.437Z" fill="url(#paint19_linear)"/>
<g opacity="0.2">
<path opacity="0.2" d="M120.006 1128.14L105.458 1209.64H108.793L122.522 1132.73L120.006 1128.14Z" fill="url(#paint20_linear)"/>
<path opacity="0.2" d="M159.409 1156.56L135.465 1104.41L132.148 1104.45L156.075 1156.56L158.802 1209.64H162.137L159.409 1156.56Z" fill="url(#paint21_linear)"/>
</g>
<g opacity="0.2">
<path opacity="0.2" d="M167.292 1217.76L162.14 1209.64H160.623L165.774 1217.76C165.774 1217.76 183.054 1224.64 175.478 1229H176.992C184.567 1224.64 167.292 1217.76 167.292 1217.76Z" fill="url(#paint22_linear)"/>
</g>
<g opacity="0.2">
<path opacity="0.2" d="M115.162 1217.76L110.01 1209.64H108.496L113.648 1217.76C113.648 1217.76 130.938 1224.63 123.348 1229H124.861C132.43 1224.64 115.162 1217.76 115.162 1217.76Z" fill="url(#paint23_linear)"/>
</g>
<g opacity="0.2">
<path opacity="0.2" d="M187.334 1048.58L186.688 1046.65L155.761 1050.41L187.334 1048.58Z" fill="url(#paint24_linear)"/>
</g>
<path d="M95.2326 1032.18L105.532 1012.14L122.695 1018.83L105.532 1044.37L95.2326 1032.18Z" fill="url(#paint25_linear)"/>
<path d="M116.598 1027.64L152.62 1060.48L194.479 1051.37L191.236 1041.66L158.809 1045.61L126.347 1016.25C125.57 1015.55 124.659 1015.02 123.672 1014.7C122.685 1014.39 121.645 1014.29 120.618 1014.41C119.592 1014.54 118.602 1014.88 117.714 1015.43C116.826 1015.97 116.058 1016.7 115.461 1017.57V1017.57C114.413 1019.1 113.95 1020.97 114.16 1022.83C114.369 1024.69 115.237 1026.4 116.598 1027.64V1027.64Z" fill="#CA7070"/>
<path d="M194.479 1051.37C194.479 1051.37 205.16 1051.68 209.105 1045.6C213.049 1039.53 191.236 1041.65 191.236 1041.65L194.479 1051.37Z" fill="#CA7070"/>
<path d="M111.869 1006.24C122.126 1006.24 130.44 997.675 130.44 987.108C130.44 976.542 122.126 967.977 111.869 967.977C101.613 967.977 93.2989 976.542 93.2989 987.108C93.2989 997.675 101.613 1006.24 111.869 1006.24Z" fill="#CA7070"/>
<path d="M104.202 1008.06C104.202 1008.06 80.3493 1024.61 86.4078 1075.76C87.1454 1081.94 86.6238 1088.21 84.8764 1094.17L81.7995 1104.64C81.7995 1104.64 134.272 1105.85 135.747 1104.64C136.661 1103.89 135.948 1084.61 133.39 1057.87C131.823 1041.49 136.738 1018.7 119.83 1006.25L104.202 1008.06Z" fill="#38332D"/>
<path d="M135.747 1104.03L159.035 1154.75L161.685 1206.37H145.179L138.104 1152.93L123.955 1127.11L109.805 1206.37H93.2954L98.3059 1147.46L81.7995 1104.64L135.747 1104.03Z" fill="#A39C9C"/>
<path d="M161.688 1206.38L166.699 1214.27C166.699 1214.27 183.502 1220.95 176.131 1225.21H144V1206.38H161.688Z" fill="#263238"/>
<path d="M109.495 1206.38L114.505 1214.27C114.505 1214.27 131.308 1220.95 123.937 1225.21H91.824V1206.38H109.495Z" fill="#263238"/>
<path opacity="0.2" d="M112.166 967.671C108.958 967.667 105.805 968.524 103.016 970.157C107.372 968.247 112.271 968.122 116.712 969.808C121.154 971.494 124.803 974.864 126.914 979.229C129.024 983.595 129.437 988.625 128.068 993.294C126.699 997.962 123.651 1001.92 119.548 1004.35C123.464 1002.6 126.676 999.508 128.642 995.603C130.608 991.698 131.208 987.215 130.342 982.908C129.475 978.601 127.195 974.733 123.884 971.955C120.574 969.177 116.435 967.659 112.166 967.656V967.671Z" fill="white"/>
<path d="M134.445 955.795L129.279 963.934C127.423 966.842 124.727 970.176 121.4 969.5C119.847 969.183 118.609 968.045 117.37 967.017C113.313 963.701 108.302 961.451 103.143 961.419C97.9848 961.386 92.6744 963.789 89.7352 968.187C87.5792 971.433 86.8347 975.458 86.4042 979.358C85.5503 987.177 86.4042 996.411 92.7556 1000.81C93.2673 1001.22 93.8983 1001.46 94.5516 1001.47C95.222 1001.42 95.7936 1000.98 96.3158 1000.53C104.248 993.684 108.666 982.543 118.228 977.842C122.444 975.77 128.58 975.752 131.989 972.233C136.968 967.057 131.421 960.557 134.445 955.795Z" fill="#38332D"/>
<g opacity="0.2">
<path opacity="0.2" d="M115.303 967.016C116.541 968.03 117.773 969.197 119.332 969.499C119.964 969.628 120.615 969.616 121.241 969.463C119.763 969.099 118.563 968.009 117.36 967.02C113.313 963.701 108.302 961.451 103.143 961.418C102.791 961.418 102.42 961.418 102.057 961.451C106.866 961.738 111.506 963.908 115.303 967.016Z" fill="white"/>
<path opacity="0.2" d="M134.445 955.795L131.46 960.495C131.742 964.359 133.393 968.616 129.897 972.233C126.492 975.752 120.37 975.77 116.135 977.842C106.57 982.543 102.159 993.684 94.2234 1000.53C93.9514 1000.77 93.6572 1000.99 93.3448 1001.18C93.7064 1001.38 94.1147 1001.48 94.5269 1001.47C95.1973 1001.42 95.7689 1000.98 96.2911 1000.53C104.223 993.684 108.641 982.543 118.203 977.842C122.42 975.77 128.556 975.752 131.964 972.233C136.968 967.057 131.421 960.557 134.445 955.795Z" fill="white"/>
</g>
<path opacity="0.2" d="M133.39 1057.87C131.823 1041.49 136.738 1018.7 119.83 1006.25L116.252 1006.67C132.501 1019.21 127.712 1041.68 129.265 1057.88C131.823 1084.62 132.536 1103.9 131.622 1104.65C131.174 1105.01 125.976 1105.16 118.983 1105.19C127.988 1105.21 135.214 1105.09 135.75 1104.65C136.664 1103.89 135.959 1084.61 133.39 1057.87Z" fill="white"/>
<path d="M106.21 1034.15L142.232 1066.98L184.091 1057.87L180.848 1048.15L148.421 1052.1L115.959 1022.74C115.182 1022.04 114.271 1021.52 113.284 1021.2C112.297 1020.88 111.257 1020.78 110.23 1020.91C109.204 1021.03 108.215 1021.38 107.326 1021.92C106.438 1022.47 105.67 1023.2 105.074 1024.07V1024.07C104.022 1025.6 103.556 1027.47 103.765 1029.34C103.975 1031.2 104.846 1032.91 106.21 1034.15V1034.15Z" fill="#CA7070"/>
<path d="M184.091 1057.87C184.091 1057.87 194.772 1058.17 198.717 1052.1C202.661 1046.02 180.848 1048.15 180.848 1048.15L184.091 1057.87Z" fill="#CA7070"/>
<path d="M112.603 998.039H111.132C107.143 998.039 103.909 1001.37 103.909 1005.48V1007C103.909 1011.11 107.143 1014.44 111.132 1014.44H112.603C116.592 1014.44 119.826 1011.11 119.826 1007V1005.48C119.826 1001.37 116.592 998.039 112.603 998.039Z" fill="#CA7070"/>
<g opacity="0.2">
<path opacity="0.2" d="M120.712 1127.11L106.563 1206.38H109.805L123.157 1131.57L120.712 1127.11Z" fill="white"/>
<path opacity="0.2" d="M159.035 1154.75L135.747 1104.03L132.518 1104.07L155.792 1154.75L158.442 1206.37H161.685L159.035 1154.75Z" fill="white"/>
</g>
<path opacity="0.2" d="M166.699 1214.27L161.688 1206.38H160.214L165.224 1214.27C165.224 1214.27 182.027 1220.95 174.656 1225.21H176.131C183.502 1220.95 166.699 1214.27 166.699 1214.27Z" fill="white"/>
<path opacity="0.2" d="M115.998 1214.27L110.987 1206.38H109.495L114.505 1214.27C114.505 1214.27 131.308 1220.95 123.937 1225.21H125.412C132.783 1220.95 115.998 1214.27 115.998 1214.27Z" fill="white"/>
<path opacity="0.2" d="M186.19 1049.73L185.566 1047.85L155.485 1051.51L186.19 1049.73Z" fill="white"/>
<path d="M96.6157 1033.78L106.63 1014.29L123.323 1020.79L106.63 1045.63L96.6157 1033.78Z" fill="#38332D"/>
<path d="M242.957 1055.73L273.302 1013.22C273.44 1013.03 273.613 1012.87 273.811 1012.74C274.01 1012.62 274.23 1012.54 274.46 1012.5C274.689 1012.47 274.923 1012.48 275.148 1012.54C275.374 1012.59 275.586 1012.7 275.772 1012.84L277.184 1013.91C277.371 1014.05 277.529 1014.23 277.649 1014.43C277.769 1014.64 277.848 1014.87 277.883 1015.1C277.918 1015.34 277.907 1015.58 277.851 1015.81C277.795 1016.04 277.696 1016.26 277.558 1016.46L247.212 1058.96L242.957 1055.73Z" fill="url(#paint26_linear)"/>
<path d="M243.56 1056.19L273.39 1014.38C273.528 1014.19 273.701 1014.03 273.899 1013.9C274.098 1013.78 274.318 1013.7 274.548 1013.66C274.777 1013.63 275.011 1013.64 275.237 1013.7C275.462 1013.75 275.674 1013.86 275.86 1014L276.005 1014.11C276.192 1014.25 276.35 1014.43 276.47 1014.63C276.59 1014.84 276.67 1015.06 276.704 1015.3C276.739 1015.54 276.728 1015.78 276.673 1016.01C276.617 1016.24 276.517 1016.46 276.379 1016.65L246.549 1058.46L243.56 1056.19Z" fill="#B0BEC5"/>
</g>
<g clip-path="url(#clip1)">
<path d="M1238.58 916C1266.43 916 1289 913.26 1289 909.88C1289 906.499 1266.43 903.759 1238.58 903.759C1210.74 903.759 1188.16 906.499 1188.16 909.88C1188.16 913.26 1210.74 916 1238.58 916Z" fill="#3F3D56"/>
<path d="M1050.21 653.981H898V742.812H1050.21V653.981Z" fill="#F2F2F2"/>
<path d="M1059.81 645.327H907.6V734.158H1059.81V645.327Z" stroke="#3F3D56" stroke-width="2" stroke-miterlimit="10"/>
<path d="M1007.08 711.286C1011.67 706.993 1014.8 701.523 1016.07 695.568C1017.33 689.613 1016.68 683.44 1014.2 677.831C1011.71 672.221 1007.51 667.427 1002.11 664.054C996.715 660.68 990.371 658.88 983.88 658.88V689.579L1007.08 711.286Z" fill="#3F3D56"/>
<path d="M983.88 658.88C976.586 658.881 969.501 661.154 963.742 665.342C957.983 669.53 953.88 675.393 952.08 682.005C950.279 688.617 950.885 695.602 953.801 701.856C956.717 708.111 961.777 713.278 968.182 716.543L983.88 689.579V658.88Z" fill="#877373"/>
<path d="M1007.08 711.286L983.88 689.579L968.182 716.543C974.405 719.71 981.556 720.909 988.567 719.962C995.579 719.015 1002.07 715.971 1007.08 711.286Z" fill="#575A89"/>
<path d="M919.645 715.706H913.361V721.584H919.645V715.706Z" fill="#877373"/>
<path d="M928.721 715.706H922.438V721.584H928.721V715.706Z" fill="#3F3D56"/>
<path d="M937.798 715.706H931.514V721.584H937.798V715.706Z" fill="#575A89"/>
<path d="M1047.77 717.012H1021.93V717.991H1047.77V717.012Z" fill="#3F3D56"/>
<path d="M1047.77 719.951H1021.93V720.931H1047.77V719.951Z" fill="#3F3D56"/>
<path d="M1047.77 722.891H1021.93V723.87H1047.77V722.891Z" fill="#3F3D56"/>
<path d="M1032.41 777.757H945.828V866.588H1032.41V777.757Z" fill="#F2F2F2"/>
<path d="M1041.13 769.266H954.555V858.097H1041.13V769.266Z" stroke="#3F3D56" stroke-width="2" stroke-miterlimit="10"/>
<path d="M963.762 848.075H959.094V852.442H963.762V848.075Z" fill="#877373"/>
<path d="M970.505 848.075H965.836V852.442H970.505V848.075Z" fill="#3F3D56"/>
<path d="M977.247 848.075H972.579V852.442H977.247V848.075Z" fill="#575A89"/>
<path d="M1029.61 849.972H1011.46V850.66H1029.61V849.972Z" fill="#3F3D56"/>
<path d="M1029.61 852.037H1011.46V852.726H1029.61V852.037Z" fill="#3F3D56"/>
<path d="M1029.61 854.103H1011.46V854.791H1029.61V854.103Z" fill="#3F3D56"/>
<path d="M997.845 784.941V792.126C1002.4 792.126 1006.86 793.39 1010.65 795.759C1014.43 798.127 1017.39 801.494 1019.13 805.432C1020.88 809.371 1021.33 813.705 1020.44 817.886C1019.55 822.067 1017.36 825.908 1014.14 828.922L1019.57 834.003C1023.86 829.983 1026.79 824.863 1027.98 819.288C1029.16 813.713 1028.55 807.934 1026.23 802.683C1023.9 797.431 1019.96 792.943 1014.91 789.785C1009.86 786.627 1003.92 784.941 997.845 784.941V784.941Z" fill="#3F3D56"/>
<path d="M1019.57 834.002L1014.14 828.922C1010.2 832.608 1004.96 834.833 999.405 835.186C993.847 835.538 988.34 833.994 983.904 830.839L979.256 836.561C985.17 840.767 992.513 842.824 999.925 842.354C1007.34 841.883 1014.32 838.916 1019.57 834.002Z" fill="#575A89"/>
<path d="M974.804 813.681C974.804 807.964 977.231 802.482 981.552 798.439C985.873 794.397 991.734 792.126 997.845 792.126V784.941C991.413 784.941 985.144 786.829 979.921 790.339C974.698 793.849 970.784 798.804 968.731 804.506C966.678 810.207 966.589 816.368 968.477 822.119C970.366 827.87 974.136 832.922 979.256 836.562L983.904 830.84C981.074 828.831 978.779 826.237 977.2 823.26C975.621 820.283 974.801 817.004 974.804 813.681V813.681Z" fill="#877373"/>
<path d="M1223.24 691.046C1223.24 691.046 1221.81 700.945 1225.48 702.087C1229.14 703.23 1228.12 711.986 1228.12 711.986L1217.13 719.791L1207.36 720.553L1204.92 708.75L1206.35 705.704C1206.35 705.704 1211.84 699.613 1207.97 693.331C1204.11 687.048 1223.24 691.046 1223.24 691.046Z" fill="#FFB9B9"/>
<path opacity="0.1" d="M1223.24 691.046C1223.24 691.046 1221.81 700.945 1225.48 702.087C1229.14 703.23 1228.12 711.986 1228.12 711.986L1217.13 719.791L1207.36 720.553L1204.92 708.75L1206.35 705.704C1206.35 705.704 1211.84 699.613 1207.97 693.331C1204.11 687.048 1223.24 691.046 1223.24 691.046Z" fill="black"/>
<path d="M1213.06 768.144L1200.24 796.318C1200.24 796.318 1190.27 790.988 1184.37 791.559C1178.47 792.13 1171.14 785.467 1171.14 785.467L1178.47 752.343L1192.1 717.126L1211.03 728.358L1213.06 768.144Z" fill="#575A89"/>
<path opacity="0.1" d="M1213.06 768.144L1200.24 796.318C1200.24 796.318 1190.27 790.988 1184.37 791.559C1178.47 792.13 1171.14 785.467 1171.14 785.467L1178.47 752.343L1192.1 717.126L1211.03 728.358L1213.06 768.144Z" fill="black"/>
<path d="M1233.21 887.883V897.021H1224.05L1225.48 886.36L1233.21 887.883Z" fill="#575A89"/>
<path d="M1257.02 872.083L1263.73 875.89L1258.85 886.36L1253.76 885.789L1248.88 879.317L1257.02 872.083Z" fill="#575A89"/>
<path d="M1235.04 765.479L1247.05 791.939C1247.05 791.939 1242.77 821.255 1242.98 823.73C1243.18 826.205 1243.38 827.157 1242.37 829.251C1241.35 831.345 1240.94 832.677 1241.55 835.152C1242.16 837.627 1242.37 838.579 1241.96 839.53C1241.55 840.482 1238.7 879.697 1237.28 882.363C1235.85 885.028 1238.09 889.406 1236.67 889.787C1235.24 890.168 1224.66 889.216 1224.05 886.931C1223.44 884.647 1226.09 879.126 1224.66 877.413C1223.24 875.7 1224.86 814.022 1222.83 809.834C1220.79 805.646 1198.41 801.838 1198.41 801.838C1198.41 801.838 1196.38 789.655 1197.6 787.751C1198.82 785.848 1200.45 773.855 1200.45 773.855L1235.04 765.479Z" fill="#2F2E41"/>
<path d="M1223.24 895.498C1223.24 895.498 1228.93 889.216 1233.82 895.498C1233.82 895.498 1234.23 902.922 1237.68 904.445C1241.14 905.968 1239.52 912.06 1234.63 912.25C1229.75 912.441 1223.44 913.202 1223.24 910.727C1223.03 908.253 1224.05 906.73 1222.22 905.968C1220.39 905.207 1222.22 900.828 1222.22 900.828L1223.24 895.498Z" fill="#2F2E41"/>
<path d="M1223.85 804.504C1223.85 804.504 1223.64 818.211 1222.22 820.114C1220.79 822.018 1219.98 823.16 1220.79 825.254C1221.61 827.348 1222.83 831.155 1222.22 831.917C1221.61 832.678 1222.83 836.676 1222.83 836.676C1222.83 836.676 1238.5 843.719 1245.82 858.378C1245.82 858.378 1253.35 869.99 1255.59 870.18C1257.83 870.371 1260.48 868.848 1259.26 873.226C1258.03 877.604 1253.35 883.315 1249.89 882.744C1246.44 882.173 1243.79 876.653 1243.79 876.653C1243.79 876.653 1216.72 850.953 1213.88 850.192C1211.03 849.43 1202.89 843.339 1201.46 839.531C1200.04 835.724 1196.99 803.933 1198.41 801.839C1199.84 799.745 1205.13 796.89 1205.13 796.89L1223.85 804.504Z" fill="#2F2E41"/>
<path d="M1259.05 871.322C1259.05 871.322 1271.67 871.703 1271.87 874.558C1272.08 877.414 1266.58 894.356 1267.39 898.354C1268.21 902.352 1261.09 911.489 1256.41 909.586C1251.73 907.682 1255.39 897.783 1255.39 897.783C1255.39 897.783 1250.71 884.267 1251.52 884.077C1252.34 883.886 1260.48 881.602 1260.07 879.318C1259.66 877.033 1259.05 871.322 1259.05 871.322Z" fill="#2F2E41"/>
<path d="M1213.77 701.231C1220.74 701.231 1226.39 695.947 1226.39 689.428C1226.39 682.91 1220.74 677.625 1213.77 677.625C1206.81 677.625 1201.16 682.91 1201.16 689.428C1201.16 695.947 1206.81 701.231 1213.77 701.231Z" fill="#FFB9B9"/>
<path d="M1226.49 707.608C1226.49 707.608 1219.57 714.461 1214.49 713.319C1209.4 712.177 1206.75 703.991 1206.75 703.991L1197.6 702.468C1197.6 702.468 1191.08 729.5 1191.08 732.165C1191.08 734.83 1197.6 763.575 1197.6 768.715C1197.6 773.855 1192.31 776.901 1200.45 776.71C1208.59 776.52 1204.72 774.045 1216.52 773.855C1228.32 773.665 1230.16 776.139 1232.6 772.142C1234.26 769.534 1236.32 767.162 1238.7 765.098L1234.43 751.011L1233.82 711.225C1233.82 711.225 1228.6 701.707 1226.22 702.468C1226.22 702.468 1227.51 706.656 1226.49 707.608Z" fill="#877373"/>
<path d="M1223.99 700.785C1223.99 700.785 1234.84 701.897 1237.89 703.991C1240.94 706.085 1249.49 707.608 1249.28 709.131C1249.08 710.654 1239.31 732.356 1239.31 732.356C1239.31 732.356 1234.84 749.488 1238.7 753.486C1242.57 757.484 1257.02 801.077 1254.57 804.694C1252.13 808.311 1244.4 793.653 1244.4 793.653C1244.4 793.653 1234.02 762.243 1228.32 756.913C1222.63 751.582 1222.22 722.837 1222.22 721.505C1222.22 720.172 1223.99 700.785 1223.99 700.785Z" fill="#575A89"/>
<path d="M1208.12 702.992C1208.12 702.992 1194.75 698.28 1190.07 700.183C1185.39 702.087 1182.54 702.468 1182.54 702.468L1180.91 721.124C1180.91 721.124 1180.3 747.965 1175.01 754.437C1169.72 760.91 1166.26 787.942 1167.07 790.607C1167.89 793.272 1165.65 797.841 1169.11 796.698C1172.57 795.556 1182.13 769.286 1182.13 769.286C1182.13 769.286 1182.13 754.247 1187.83 750.059C1193.53 745.871 1202.89 728.548 1203.29 724.36C1203.7 720.172 1207.57 708.56 1207.57 708.56L1208.12 702.992Z" fill="#575A89"/>
<path d="M1253.96 763.004C1253.96 763.004 1247.86 773.665 1247.05 775.569C1246.23 777.472 1240.53 790.417 1232.39 787.562C1224.25 784.706 1240.33 770.809 1240.33 770.809L1243.99 759.197C1243.99 759.197 1253.56 757.294 1253.96 763.004Z" fill="#FFB9B9"/>
<path d="M1184.57 702.468H1182.54C1182.54 702.468 1180.5 700.945 1178.06 701.897C1175.62 702.849 1169.92 701.516 1169.92 702.088C1169.92 702.659 1163.61 700.374 1160.97 701.516C1158.32 702.659 1148.76 703.039 1148.76 703.039C1148.76 703.039 1144.89 712.177 1147.54 713.89C1150.18 715.603 1154.05 714.271 1155.88 715.603C1157.71 716.936 1161.17 715.413 1162.39 717.126C1163.61 718.84 1168.09 721.885 1169.11 719.982C1170.12 718.078 1168.09 716.365 1172.36 718.459C1176.64 720.553 1183.35 720.553 1183.35 720.553L1184.57 702.468Z" fill="#575A89"/>
<path d="M1214.91 680.708C1213.2 680.339 1211.43 680.748 1209.7 681.013C1207.97 681.278 1206.07 681.365 1204.61 680.463C1203.53 679.796 1202.86 678.693 1202.24 677.633C1201.98 677.254 1201.8 676.829 1201.73 676.384C1201.65 675.6 1202.19 674.884 1202.75 674.301C1205.39 671.596 1209.23 670.115 1213.11 669.644C1216.3 669.258 1219.62 669.517 1222.56 670.724C1225.51 671.932 1228.04 674.144 1229.19 676.949C1229.73 678.385 1230.06 679.879 1230.18 681.394C1230.36 682.509 1230.38 683.64 1230.25 684.76C1230.09 685.591 1229.86 686.407 1229.55 687.199L1227.64 692.614C1227.5 693.126 1227.24 693.603 1226.88 694.01C1226.7 694.21 1226.45 694.348 1226.17 694.405C1225.9 694.461 1225.61 694.432 1225.36 694.323C1225.51 693.735 1225.53 693.124 1225.42 692.527C1225.36 692.229 1225.21 691.956 1224.98 691.741C1224.75 691.526 1224.46 691.379 1224.15 691.321C1223.44 691.251 1222.84 691.763 1222.17 691.984C1221.84 692.073 1221.5 692.099 1221.17 692.06C1220.84 692.021 1220.52 691.918 1220.23 691.757C1219.94 691.596 1219.69 691.381 1219.49 691.125C1219.3 690.869 1219.16 690.579 1219.09 690.271C1218.98 689.652 1219.16 688.989 1218.91 688.408C1218.62 687.727 1217.84 687.37 1217.25 686.88C1216.72 686.419 1216.33 685.825 1216.15 685.167C1215.96 684.51 1215.98 683.816 1216.2 683.168C1216.36 682.718 1216.8 682.513 1216.71 681.995C1216.6 681.316 1215.53 680.841 1214.91 680.708Z" fill="#2F2E41"/>
<path d="M1161.58 722.237H1075V811.068H1161.58V722.237Z" fill="#F2F2F2"/>
<path d="M1170.3 713.746H1083.72V802.577H1170.3V713.746Z" stroke="#3F3D56" stroke-width="2" stroke-miterlimit="10"/>
<path d="M1092.1 719.298V787.227H1162.27" stroke="#3F3D56" stroke-width="2" stroke-miterlimit="10"/>
<path d="M1111.65 763.387H1095.94V786.901H1111.65V763.387Z" fill="#575A89"/>
<path d="M1134.35 747.384H1118.64V786.901H1134.35V747.384Z" fill="#3F3D56"/>
<path d="M1157.04 728.769H1141.33V786.901H1157.04V728.769Z" fill="#877373"/>
<path d="M1095.72 792.556H1091.06V796.923H1095.72V792.556Z" fill="#877373"/>
<path d="M1102.47 792.556H1097.8V796.923H1102.47V792.556Z" fill="#3F3D56"/>
<path d="M1109.21 792.556H1104.54V796.923H1109.21V792.556Z" fill="#575A89"/>
<path d="M1161.58 794.452H1143.42V795.141H1161.58V794.452Z" fill="#3F3D56"/>
<path d="M1161.58 796.518H1143.42V797.206H1161.58V796.518Z" fill="#3F3D56"/>
<path d="M1161.58 798.583H1143.42V799.271H1161.58V798.583Z" fill="#3F3D56"/>
<path d="M1150.86 703.029C1154.57 703.179 1157.33 706.327 1156.93 709.781C1156.56 712.911 1155.22 716.804 1151 718.3C1143.47 720.965 1143.87 705.926 1145.3 705.355C1146.25 704.974 1147.74 702.902 1150.86 703.029Z" fill="#FFB9B9"/>
<path d="M1247.05 708.114L1249.28 709.131C1249.28 709.131 1254.17 718.459 1254.37 719.791C1254.57 721.124 1257.83 726.073 1256.61 727.406C1255.39 728.738 1253.56 732.165 1254.78 733.498C1256 734.83 1258.85 740.16 1258.85 742.064C1258.85 743.968 1255.8 749.107 1257.83 749.679C1259.87 750.25 1259.26 757.674 1258.85 758.245C1258.44 758.816 1253.15 768.144 1253.15 768.144C1253.15 768.144 1252.13 757.483 1242.16 761.862C1242.16 761.862 1241.35 756.532 1242.16 756.151C1242.98 755.77 1245.01 753.486 1243.38 753.105C1241.75 752.724 1239.52 748.156 1239.92 747.584C1240.33 747.013 1241.35 746.252 1240.33 745.681C1239.31 745.11 1238.5 741.874 1238.7 741.302C1238.91 740.731 1236.46 738.066 1236.46 738.066L1247.05 708.114Z" fill="#575A89"/>
</g>
<g clip-path="url(#clip2)">
<path opacity="0.2" d="M1249.04 206.745H1224.68V218.169H1249.04V206.745Z" fill="#877373"/>
<path opacity="0.2" d="M1250.91 220.708H1226.56V232.132H1250.91V220.708Z" fill="#877373"/>
<path opacity="0.2" d="M1230.77 123.812H1206.42V135.236H1230.77V123.812Z" fill="#877373"/>
<path opacity="0.2" d="M1248.1 136.929H1223.75V148.353H1248.1V136.929Z" fill="#877373"/>
<path opacity="0.2" d="M1201.26 124.658H1176.91V136.083H1201.26V124.658Z" fill="#877373"/>
<path opacity="0.2" d="M1279.49 150.046H1255.13V161.47H1279.49V150.046Z" fill="#877373"/>
<path opacity="0.2" d="M1249.98 150.892H1225.62V162.316H1249.98V150.892Z" fill="#877373"/>
<path opacity="0.2" d="M1218.59 137.775H1194.24V149.199H1218.59V137.775Z" fill="#877373"/>
<path opacity="0.2" d="M1278.08 238.056H1253.72V249.48H1278.08V238.056Z" fill="#877373"/>
<path opacity="0.2" d="M1248.57 238.902H1224.22V250.327H1248.57V238.902Z" fill="#877373"/>
<path d="M928.243 203.783C928.243 203.783 962.572 234.794 943.195 280.792C923.817 326.79 976.409 403.346 976.409 403.346C976.409 403.346 975.847 403.27 974.802 403.105C904.299 391.862 869.267 319.021 908.491 264.924C923.049 244.788 935.012 221.19 928.243 203.783Z" fill="#877373"/>
<path d="M928.243 203.783C928.243 203.783 947.621 241.796 928.243 272.803C908.866 303.81 924.922 390.855 976.413 403.346" stroke="#535461" stroke-width="2" stroke-miterlimit="10"/>
<path d="M867.098 329.205C867.098 329.205 906.271 323.569 909.84 355.283C913.409 386.996 985.168 391.392 985.168 391.392C985.168 391.392 984.699 391.68 983.824 392.2C924.576 427.32 867.942 414.58 876.48 367.93C879.652 350.586 879.389 333.166 867.098 329.205Z" fill="#877373"/>
<path opacity="0.2" d="M867.098 329.205C867.098 329.205 906.271 323.569 909.84 355.283C913.409 386.996 985.168 391.392 985.168 391.392C985.168 391.392 984.699 391.68 983.824 392.2C924.576 427.32 867.942 414.58 876.48 367.93C879.652 350.586 879.389 333.166 867.098 329.205Z" fill="#F5F5F5"/>
<path d="M867.098 329.206C867.098 329.206 897.502 335.235 895.006 360.208C892.509 385.181 940.159 415.134 985.168 391.392" stroke="#535461" stroke-width="2" stroke-miterlimit="10"/>
<path opacity="0.2" d="M891.652 207.167H867.295V218.592H891.652V207.167Z" fill="#877373"/>
<path opacity="0.2" d="M908.983 220.285H884.626V231.709H908.983V220.285Z" fill="#877373"/>
<path opacity="0.2" d="M1040.6 87H1016.25V98.4244H1040.6V87Z" fill="#877373"/>
<path opacity="0.2" d="M1232.65 297.717H1208.29V309.141H1232.65V297.717Z" fill="#877373"/>
<path opacity="0.2" d="M910.856 234.248H886.499V245.672H910.856V234.248Z" fill="#877373"/>
<path opacity="0.2" d="M1057.93 100.117H1033.58V111.541H1057.93V100.117Z" fill="#877373"/>
<path opacity="0.2" d="M968.938 177.549H944.581V188.973H968.938V177.549Z" fill="#877373"/>
<path opacity="0.2" d="M986.269 190.666H961.912V202.09H986.269V190.666Z" fill="#877373"/>
<path opacity="0.2" d="M1032.64 183.473H1008.28V194.897H1032.64V183.473Z" fill="#877373"/>
<path opacity="0.2" d="M988.142 204.629H963.785V216.053H988.142V204.629Z" fill="#877373"/>
<path opacity="0.2" d="M1265.43 297.717H1241.08V309.141H1265.43V297.717Z" fill="#877373"/>
<path d="M1204.55 252.489C1202.98 244.56 1202.01 236.542 1201.66 228.493C1201.35 221.864 1198.77 215.484 1194.29 210.229C1189.81 204.973 1183.63 201.098 1176.62 199.137C1174.06 198.426 1171.24 197.761 1168.13 197.165C1140.87 191.935 1132.59 196.501 1131.65 197.101C1130.85 195.792 1130.16 194.433 1129.58 193.035C1129.53 192.891 1129.49 192.747 1129.44 192.612C1134.83 187.415 1138.12 180.719 1138.77 173.618C1143.31 169.454 1145.97 164.428 1145.97 159.016C1145.97 154.361 1144 149.995 1140.56 146.216V138.862C1140.56 130.382 1136.83 122.249 1130.19 116.252C1123.55 110.256 1114.55 106.887 1105.16 106.887H1102.29C1097.64 106.887 1093.04 107.714 1088.75 109.321C1084.45 110.928 1080.55 113.283 1077.26 116.252C1073.97 119.221 1071.37 122.746 1069.59 126.626C1067.81 130.505 1066.89 134.663 1066.89 138.862V146.787C1063.77 150.431 1062 154.59 1062 159.007C1062 164.305 1064.55 169.23 1068.92 173.343C1069.52 180.704 1072.96 187.643 1078.64 192.95C1078.83 194.152 1079.03 195.443 1079.22 196.805L1030.46 206.11C1030.46 206.11 1011.66 206.808 999.543 229.382C989.299 248.503 968.914 297.628 962.877 312.251C961.785 314.9 961.167 316.419 961.167 316.419C961.167 316.419 961.368 316.237 961.748 315.924L961.167 317.349C961.167 317.349 961.462 317.079 962.024 316.634C961.172 322.753 961.05 333.259 969.921 334.566C977.36 335.662 996.527 336.115 1011 336.297H1012.01C1021.6 336.411 1028.91 336.411 1028.91 336.411V336.297H1184.62V334.854C1184.62 333.546 1184.33 332.25 1183.76 331.046L1183.98 330.809C1184.81 331.803 1185.37 332.964 1185.6 334.194C1185.58 334.314 1185.55 334.432 1185.52 334.55L1185.61 334.334C1185.65 334.718 1185.62 335.105 1185.52 335.48C1185.52 335.48 1205.5 288.983 1205.28 261.218C1205.34 258.294 1205.1 255.371 1204.55 252.489V252.489ZM1080.03 203.089C1079.77 201.762 1079.6 200.422 1079.53 199.077C1079.53 199.077 1079.53 199.052 1079.53 199.039C1079.7 200.347 1079.87 201.701 1080.03 203.089ZM1019.5 302.963V314.045L1011.82 315.53L1019.5 302.963Z" fill="url(#paint27_linear)"/>
<path d="M1102.94 111.359C1112.33 111.359 1121.33 114.728 1127.97 120.725C1134.61 126.721 1138.33 134.855 1138.33 143.335V156.977H1067.54V143.335C1067.54 134.855 1071.27 126.721 1077.91 120.725C1084.55 114.728 1093.55 111.359 1102.94 111.359V111.359Z" fill="#30959B"/>
<path d="M1103.19 186.494C1125.47 186.494 1143.53 175.281 1143.53 161.449C1143.53 147.617 1125.47 136.404 1103.19 136.404C1080.9 136.404 1062.84 147.617 1062.84 161.449C1062.84 175.281 1080.9 186.494 1103.19 186.494Z" fill="#30959B"/>
<path d="M1077.32 185.711C1077.32 185.711 1085.75 225.515 1077.32 236.249C1068.89 246.984 1103.08 251.232 1103.08 251.232L1138.48 239.605L1143.43 210.98C1143.43 210.98 1121.88 200.021 1126.34 177.883L1077.32 185.711Z" fill="#F7C4A7"/>
<path d="M1181.78 319.884C1181.78 319.884 1184.01 328.605 1171.88 330.171C1164.72 331.123 1157.43 331.044 1150.3 329.938L1147.62 308.033H1175.84L1181.78 319.884Z" fill="#F7C4A7"/>
<path d="M967.565 308.722C967.565 308.722 962.207 328.393 974.338 330.17C986.47 331.947 1031.01 331.96 1031.01 331.96V308.688L1010.85 312.581L991.913 296.181L967.565 308.722Z" fill="#F7C4A7"/>
<path opacity="0.1" d="M1079.93 198.57L1032.52 207.625C1032.52 207.625 1014.45 208.297 1002.81 229.987C991.177 251.676 965.926 313.622 965.926 313.622C965.926 313.622 987.472 293.942 1012.71 314.963L1029.55 287.46L1025.83 331.067H1156.27V310.491C1156.27 310.491 1183.5 323.684 1181.53 331.063C1181.53 331.063 1204.83 276.827 1199.79 252.18C1198.28 244.56 1197.35 236.855 1197.01 229.12V229.12C1196.71 222.748 1194.24 216.617 1189.93 211.566C1185.62 206.515 1179.69 202.793 1172.94 200.91C1170.49 200.228 1167.79 199.59 1164.79 199.018C1136.82 193.653 1129.66 199.018 1129.66 199.018C1129.66 199.018 1124.25 214.945 1124.34 222.163C1124.47 231.442 1109.74 237.595 1109.74 237.595C1109.74 237.595 1087.95 232.898 1086.97 229.098C1085.98 225.299 1078.18 203.042 1079.93 198.57Z" fill="black"/>
<path d="M1079.93 197.677L1032.52 206.732C1032.52 206.732 1014.45 207.404 1002.81 229.094C991.177 250.783 965.921 312.737 965.921 312.737C965.921 312.737 987.468 293.058 1012.71 314.079L1029.54 286.575L1025.83 330.17H1156.27V309.598C1156.27 309.598 1183.5 322.791 1181.53 330.17C1181.53 330.17 1204.83 275.934 1199.79 251.287C1198.28 243.667 1197.35 235.962 1197.01 228.226V228.226C1196.71 221.855 1194.24 215.724 1189.93 210.673C1185.62 205.622 1179.69 201.9 1172.94 200.017C1170.49 199.335 1167.79 198.696 1164.79 198.125C1136.82 192.76 1129.66 198.125 1129.66 198.125C1129.66 198.125 1124.25 214.052 1124.34 221.27C1124.47 230.549 1109.74 236.702 1109.74 236.702C1109.74 236.702 1087.95 232.005 1086.97 228.205C1085.98 224.406 1078.18 202.149 1079.93 197.677Z" fill="#877373"/>
<path opacity="0.1" d="M1128.37 195.777C1126.38 190.684 1125.93 185.203 1127.07 179.901L1078.05 187.725C1078.05 187.725 1078.76 191.072 1079.56 196.086C1082.73 199.055 1086.53 201.411 1090.74 203.011C1094.94 204.611 1099.47 205.421 1104.03 205.392C1108.6 205.363 1113.11 204.496 1117.29 202.843C1121.47 201.19 1125.24 198.786 1128.36 195.777H1128.37Z" fill="black"/>
<path d="M1136.73 172.967C1136.69 180.946 1133.18 188.592 1126.96 194.257C1120.74 199.921 1112.3 203.15 1103.47 203.246C1094.63 203.343 1086.11 200.3 1079.74 194.773C1073.37 189.247 1069.66 181.679 1069.4 173.703C1069.4 173.457 1069.4 173.212 1069.4 172.967C1069.4 167.272 1071.17 161.692 1074.51 156.86C1077.84 152.028 1082.61 148.14 1088.28 145.637C1089.29 145.191 1090.32 144.791 1091.39 144.435C1096.93 142.596 1102.9 142.094 1108.72 142.98V142.98C1116.17 144.127 1122.99 147.511 1128.05 152.586C1133.12 157.66 1136.14 164.129 1136.64 170.948C1136.7 171.617 1136.73 172.29 1136.73 172.967Z" fill="#F7C4A7"/>
<g opacity="0.1">
<path opacity="0.1" d="M1091.34 145.15L1091.38 145.125C1090.32 145.48 1089.28 145.881 1088.27 146.326C1082.61 148.829 1077.84 152.718 1074.5 157.549C1071.17 162.381 1069.4 167.961 1069.4 173.656C1069.4 173.901 1069.4 174.147 1069.4 174.392C1070.45 174.367 1071.48 174.143 1072.42 173.736C1080.63 170.275 1085.54 159.689 1087.49 152.305C1088.19 149.66 1088.85 146.682 1091.34 145.15Z" fill="black"/>
<path opacity="0.1" d="M1117.1 146C1114.44 144.895 1111.62 144.111 1108.73 143.669C1111.1 144.162 1113.22 145.364 1114.74 147.079C1115.49 147.995 1116.1 148.99 1116.58 150.041C1112.1 148.272 1107.25 147.402 1102.36 147.494C1097.47 147.585 1092.66 148.635 1088.27 150.57C1090.38 154.755 1096.93 157.035 1101.31 158.563C1106.1 160.233 1110.94 161.76 1115.83 163.145L1111.5 159.972L1121.28 161.377C1121.38 159.619 1121.15 157.859 1120.59 156.172C1122.47 157.535 1124.95 157.992 1126.98 159.134C1130.79 161.305 1132.38 165.481 1134.45 169.099C1135 170.055 1135.65 171.032 1136.63 171.638C1136.23 166.172 1134.21 160.905 1130.77 156.392C1127.33 151.88 1122.61 148.29 1117.1 146V146Z" fill="black"/>
</g>
<path d="M1091.34 144.46L1091.38 144.435C1090.32 144.79 1089.28 145.191 1088.27 145.637C1082.61 148.14 1077.84 152.028 1074.5 156.86C1071.17 161.691 1069.4 167.272 1069.4 172.966C1069.4 173.212 1069.4 173.457 1069.4 173.703C1070.45 173.677 1071.48 173.454 1072.42 173.047C1080.63 169.586 1085.54 158.999 1087.49 151.616C1088.19 148.988 1088.85 145.996 1091.34 144.46Z" fill="#632652"/>
<path d="M1117.1 145.315C1114.44 144.209 1111.62 143.426 1108.73 142.984C1111.1 143.477 1113.22 144.678 1114.74 146.394C1115.49 147.31 1116.1 148.305 1116.58 149.356C1112.1 147.587 1107.25 146.717 1102.36 146.809C1097.47 146.9 1092.66 147.95 1088.27 149.885C1090.38 154.07 1096.93 156.35 1101.31 157.878C1106.1 159.548 1110.94 161.075 1115.83 162.46L1111.5 159.287L1121.28 160.692C1121.38 158.934 1121.15 157.174 1120.59 155.487C1122.47 156.85 1124.95 157.307 1126.98 158.449C1130.79 160.62 1132.38 164.796 1134.45 168.414C1135 169.37 1135.65 170.347 1136.63 170.952C1136.23 165.487 1134.21 160.22 1130.77 155.707C1127.33 151.195 1122.61 147.605 1117.1 145.315V145.315Z" fill="#632652"/>
<path opacity="0.1" d="M1065.56 167.952C1065.56 167.952 1100.22 129.025 1140.32 167.952L1136.85 159.232C1136.85 159.232 1118.04 134.411 1104.68 139.768C1091.31 145.125 1078.19 148.937 1078.19 148.937L1065.56 167.952Z" fill="black"/>
<path d="M1065.56 167.263C1065.56 167.263 1100.22 128.335 1140.32 167.263L1136.85 158.542C1136.85 158.542 1118.04 133.722 1104.68 139.079C1091.31 144.435 1078.19 148.248 1078.19 148.248L1065.56 167.263Z" fill="#30959B"/>
<path opacity="0.1" d="M1037.09 251.122C1037.09 251.122 1029.67 269.012 1040.06 285.112C1050.45 301.212 1030.9 307.922 1030.9 307.922" fill="black"/>
<path opacity="0.1" d="M1157.4 235.022C1157.4 235.022 1170.27 249.781 1161.85 262.974C1153.44 276.167 1153.93 307.922 1153.93 307.922" fill="black"/>
<path d="M1025.7 321.116H1168.79C1171.94 321.116 1174.96 322.247 1177.19 324.26C1179.42 326.273 1180.67 329.003 1180.67 331.85V331.85H1013.82C1013.82 329.004 1015.08 326.274 1017.3 324.261C1019.53 322.248 1022.55 321.117 1025.7 321.116V321.116Z" fill="#535461"/>
<path d="M1040.26 247.318H1154.23C1156.63 247.318 1159.01 247.745 1161.22 248.574C1163.44 249.403 1165.45 250.619 1167.15 252.151C1168.85 253.684 1170.19 255.503 1171.11 257.505C1172.03 259.507 1172.5 261.653 1172.5 263.82V323.574H1021.99V263.82C1021.99 259.443 1023.92 255.246 1027.34 252.151C1030.77 249.056 1035.42 247.318 1040.26 247.318V247.318Z" fill="#0C4667"/>
<path d="M1097.12 296.854C1102.04 296.854 1106.03 293.249 1106.03 288.802C1106.03 284.355 1102.04 280.75 1097.12 280.75C1092.2 280.75 1088.21 284.355 1088.21 288.802C1088.21 293.249 1092.2 296.854 1097.12 296.854Z" fill="white"/>
<path opacity="0.1" d="M1067.54 149.707C1067.54 149.707 1101.6 118.954 1138.34 149.145" stroke="black" stroke-miterlimit="10"/>
<path d="M1146.94 147.748H1143.52V165.261H1146.94V147.748Z" fill="#122C54"/>
<path d="M1138.96 159.08C1142.09 159.08 1145.09 160.201 1147.3 162.198C1149.51 164.194 1150.75 166.902 1150.75 169.725V170.411C1150.75 173.234 1149.51 175.942 1147.3 177.939C1145.09 179.935 1142.09 181.057 1138.96 181.057V181.057V159.08Z" fill="#37ABFF"/>
<path d="M1142 160.455C1142 159.127 1140.81 158.051 1139.34 158.051C1137.87 158.051 1136.68 159.127 1136.68 160.455V179.686C1136.68 181.013 1137.87 182.089 1139.34 182.089C1140.81 182.089 1142 181.013 1142 179.686V160.455Z" fill="#122C54"/>
<path d="M1058.58 165.604H1062V148.091H1058.58V165.604Z" fill="#122C54"/>
<path d="M1066.57 181.399C1063.44 181.399 1060.44 180.278 1058.23 178.281C1056.02 176.285 1054.78 173.577 1054.78 170.754V170.068C1054.78 168.67 1055.09 167.286 1055.68 165.994C1056.27 164.702 1057.14 163.529 1058.23 162.54C1059.33 161.552 1060.63 160.768 1062.06 160.233C1063.49 159.698 1065.02 159.422 1066.57 159.422V159.422V181.399Z" fill="#37ABFF"/>
<path d="M1063.53 180.024C1063.53 181.352 1064.72 182.428 1066.19 182.428C1067.66 182.428 1068.85 181.352 1068.85 180.024V160.793C1068.85 159.466 1067.66 158.39 1066.19 158.39C1064.72 158.39 1063.53 159.466 1063.53 160.793V180.024Z" fill="#122C54"/>
<path d="M1143.12 129.029C1138.49 120.33 1128.4 109.811 1106.65 108.969V108.943H1106.39L1098.68 109.273V109.307C1077.08 110.204 1067.04 120.685 1062.42 129.355C1059.35 135.232 1057.71 141.641 1057.63 148.142L1060.29 148.083L1062.95 148.027C1063.07 142.24 1064.54 136.54 1067.28 131.306C1073.14 120.423 1083.93 114.639 1099.35 114.101L1106.16 113.759C1121.59 114.292 1132.39 120.084 1138.25 130.963C1140.98 136.2 1142.46 141.902 1142.58 147.693L1145.24 147.748L1147.9 147.807C1147.82 141.31 1146.19 134.905 1143.12 129.029V129.029Z" fill="#37ABFF"/>
<path d="M1264.67 331.99H901.793V420H1264.67V331.99Z" fill="#D6D6E3"/>
<path opacity="0.1" d="M1264.67 337.914H901.793V349.338H1264.67V337.914Z" fill="black"/>
<path d="M1289 330.721H877.45V342.145H1289V330.721Z" fill="#D6D6E3"/>
</g>
<path d="M113.375 489.655C113.375 477.697 143.057 468 177.125 468C211.199 468 240.875 477.697 240.875 489.655C240.875 501.612 211.199 511.303 177.125 511.303C143.057 511.303 113.375 501.612 113.375 489.655V489.655ZM177.125 546.511C211.199 546.511 240.875 536.813 240.875 524.862V509.714C225.46 520.504 196.218 523.72 177.125 523.72C157.962 523.72 128.751 520.473 113.375 509.714V524.862C113.375 536.819 143.057 546.511 177.125 546.511ZM177.125 581.681C179.293 581.681 181.447 581.637 183.57 581.563C183.857 572.828 186.993 564.8 192.125 558.313C186.777 558.729 181.651 558.933 177.125 558.933C157.962 558.933 128.751 555.687 113.375 544.927V560.039C113.375 571.99 143.057 581.681 177.125 581.681ZM185.119 593.911C182.327 594.035 179.63 594.097 177.125 594.097C158.032 594.097 128.79 590.882 113.375 580.091V595.352C113.375 607.303 143.057 617 177.125 617C185.311 617 193.228 616.429 200.559 615.411C193.196 610.171 187.682 602.653 185.119 593.911ZM253.625 582.854C253.625 598.282 240.767 610.792 224.938 610.792C209.108 610.792 196.25 598.282 196.25 582.854C196.25 567.426 209.108 554.917 224.938 554.917C240.767 554.917 253.625 567.426 253.625 582.854ZM239.817 574.852L226.665 578.31L232.505 566.359L223.662 568.792L214.317 587.628L225.403 584.698L217.899 600.498L239.817 574.852V574.852Z" fill="#706C69"/>
<defs>
<linearGradient id="paint0_linear" x1="242.188" y1="1220.39" x2="242.188" y2="1055.25" gradientUnits="userSpaceOnUse">
<stop stop-color="#808080" stop-opacity="0.25"/>
<stop offset="0.54" stop-color="#808080" stop-opacity="0.12"/>
<stop offset="1" stop-color="#808080" stop-opacity="0.1"/>
</linearGradient>
<linearGradient id="paint1_linear" x1="17095.3" y1="12692.8" x2="17095.3" y2="10404.5" gradientUnits="userSpaceOnUse">
<stop stop-color="#808080" stop-opacity="0.25"/>
<stop offset="0.54" stop-color="#808080" stop-opacity="0.12"/>
<stop offset="1" stop-color="#808080" stop-opacity="0.1"/>
</linearGradient>
<linearGradient id="paint2_linear" x1="17095.3" y1="17002.2" x2="17095.3" y2="14714" gradientUnits="userSpaceOnUse">
<stop stop-color="#808080" stop-opacity="0.25"/>
<stop offset="0.54" stop-color="#808080" stop-opacity="0.12"/>
<stop offset="1" stop-color="#808080" stop-opacity="0.1"/>
</linearGradient>
<linearGradient id="paint3_linear" x1="17095.3" y1="21282.8" x2="17095.3" y2="18994.5" gradientUnits="userSpaceOnUse">
<stop stop-color="#808080" stop-opacity="0.25"/>
<stop offset="0.54" stop-color="#808080" stop-opacity="0.12"/>
<stop offset="1" stop-color="#808080" stop-opacity="0.1"/>
</linearGradient>
<linearGradient id="paint4_linear" x1="35477.9" y1="3462.9" x2="35477.9" y2="3346.43" gradientUnits="userSpaceOnUse">
<stop stop-color="#808080" stop-opacity="0.25"/>
<stop offset="0.54" stop-color="#808080" stop-opacity="0.12"/>
<stop offset="1" stop-color="#808080" stop-opacity="0.1"/>
</linearGradient>
<linearGradient id="paint5_linear" x1="39756.5" y1="18324.1" x2="39756.5" y2="12137.6" gradientUnits="userSpaceOnUse">
<stop stop-color="#808080" stop-opacity="0.25"/>
<stop offset="0.54" stop-color="#808080" stop-opacity="0.12"/>
<stop offset="1" stop-color="#808080" stop-opacity="0.1"/>
</linearGradient>
<linearGradient id="paint6_linear" x1="11775.3" y1="4557.46" x2="11775.3" y2="4261.82" gradientUnits="userSpaceOnUse">
<stop stop-color="#808080" stop-opacity="0.25"/>
<stop offset="0.54" stop-color="#808080" stop-opacity="0.12"/>
<stop offset="1" stop-color="#808080" stop-opacity="0.1"/>
</linearGradient>
<linearGradient id="paint7_linear" x1="3438.25" y1="6578.56" x2="3438.25" y2="2320.03" gradientUnits="userSpaceOnUse">
<stop stop-color="#808080" stop-opacity="0.25"/>
<stop offset="0.54" stop-color="#808080" stop-opacity="0.12"/>
<stop offset="1" stop-color="#808080" stop-opacity="0.1"/>
</linearGradient>
<linearGradient id="paint8_linear" x1="19493.7" y1="50998" x2="19493.7" y2="22535" gradientUnits="userSpaceOnUse">
<stop stop-color="#808080" stop-opacity="0.25"/>
<stop offset="0.54" stop-color="#808080" stop-opacity="0.12"/>
<stop offset="1" stop-color="#808080" stop-opacity="0.1"/>
</linearGradient>
<linearGradient id="paint9_linear" x1="9639.88" y1="75683.2" x2="9639.88" y2="45223.1" gradientUnits="userSpaceOnUse">
<stop stop-color="#808080" stop-opacity="0.25"/>
<stop offset="0.54" stop-color="#808080" stop-opacity="0.12"/>
<stop offset="1" stop-color="#808080" stop-opacity="0.1"/>
</linearGradient>
<linearGradient id="paint10_linear" x1="17597.8" y1="17295.6" x2="17597.8" y2="16264.6" gradientUnits="userSpaceOnUse">
<stop stop-color="#808080" stop-opacity="0.25"/>
<stop offset="0.54" stop-color="#808080" stop-opacity="0.12"/>
<stop offset="1" stop-color="#808080" stop-opacity="0.1"/>
</linearGradient>
<linearGradient id="paint11_linear" x1="12228.3" y1="17295.6" x2="12228.3" y2="16264.6" gradientUnits="userSpaceOnUse">
<stop stop-color="#808080" stop-opacity="0.25"/>
<stop offset="0.54" stop-color="#808080" stop-opacity="0.12"/>
<stop offset="1" stop-color="#808080" stop-opacity="0.1"/>
</linearGradient>
<linearGradient id="paint12_linear" x1="10665.2" y1="8749.67" x2="10665.2" y2="4834.49" gradientUnits="userSpaceOnUse">
<stop stop-color="#808080" stop-opacity="0.25"/>
<stop offset="0.54" stop-color="#808080" stop-opacity="0.12"/>
<stop offset="1" stop-color="#808080" stop-opacity="0.1"/>
</linearGradient>
<linearGradient id="paint13_linear" x1="17545.8" y1="10260" x2="17545.8" y2="4192.43" gradientUnits="userSpaceOnUse">
<stop stop-color="#808080" stop-opacity="0.25"/>
<stop offset="0.54" stop-color="#808080" stop-opacity="0.12"/>
<stop offset="1" stop-color="#808080" stop-opacity="0.1"/>
</linearGradient>
<linearGradient id="paint14_linear" x1="7117.57" y1="1864.7" x2="7117.57" y2="1670.73" gradientUnits="userSpaceOnUse">
<stop stop-color="#808080" stop-opacity="0.25"/>
<stop offset="0.54" stop-color="#808080" stop-opacity="0.12"/>
<stop offset="1" stop-color="#808080" stop-opacity="0.1"/>
</linearGradient>
<linearGradient id="paint15_linear" x1="15381.8" y1="10260.3" x2="15381.8" y2="4192.53" gradientUnits="userSpaceOnUse">
<stop stop-color="#808080" stop-opacity="0.25"/>
<stop offset="0.54" stop-color="#808080" stop-opacity="0.12"/>
<stop offset="1" stop-color="#808080" stop-opacity="0.1"/>
</linearGradient>
<linearGradient id="paint16_linear" x1="8244.26" y1="51001.5" x2="8244.26" y2="22536.5" gradientUnits="userSpaceOnUse">
<stop stop-color="#808080" stop-opacity="0.25"/>
<stop offset="0.54" stop-color="#808080" stop-opacity="0.12"/>
<stop offset="1" stop-color="#808080" stop-opacity="0.1"/>
</linearGradient>
<linearGradient id="paint17_linear" x1="37246.5" y1="19199" x2="37246.5" y2="13014" gradientUnits="userSpaceOnUse">
<stop stop-color="#808080" stop-opacity="0.25"/>
<stop offset="0.54" stop-color="#808080" stop-opacity="0.12"/>
<stop offset="1" stop-color="#808080" stop-opacity="0.1"/>
</linearGradient>
<linearGradient id="paint18_linear" x1="11199.8" y1="4754.57" x2="11199.8" y2="4459.04" gradientUnits="userSpaceOnUse">
<stop stop-color="#808080" stop-opacity="0.25"/>
<stop offset="0.54" stop-color="#808080" stop-opacity="0.12"/>
<stop offset="1" stop-color="#808080" stop-opacity="0.1"/>
</linearGradient>
<linearGradient id="paint19_linear" x1="1536.65" y1="3791.99" x2="1536.65" y2="3010.03" gradientUnits="userSpaceOnUse">
<stop stop-color="#808080" stop-opacity="0.25"/>
<stop offset="0.54" stop-color="#808080" stop-opacity="0.12"/>
<stop offset="1" stop-color="#808080" stop-opacity="0.1"/>
</linearGradient>
<linearGradient id="paint20_linear" x1="1749.22" y1="58888.2" x2="1749.22" y2="40617.5" gradientUnits="userSpaceOnUse">
<stop stop-color="#808080" stop-opacity="0.25"/>
<stop offset="0.54" stop-color="#808080" stop-opacity="0.12"/>
<stop offset="1" stop-color="#808080" stop-opacity="0.1"/>
</linearGradient>
<linearGradient id="paint21_linear" x1="5838.71" y1="75683.2" x2="5838.71" y2="45223.1" gradientUnits="userSpaceOnUse">
<stop stop-color="#808080" stop-opacity="0.25"/>
<stop offset="0.54" stop-color="#808080" stop-opacity="0.12"/>
<stop offset="1" stop-color="#808080" stop-opacity="0.1"/>
</linearGradient>
<linearGradient id="paint22_linear" x1="9722.88" y1="17295.5" x2="9722.88" y2="16264.6" gradientUnits="userSpaceOnUse">
<stop stop-color="#808080" stop-opacity="0.25"/>
<stop offset="0.54" stop-color="#808080" stop-opacity="0.12"/>
<stop offset="1" stop-color="#808080" stop-opacity="0.1"/>
</linearGradient>
<linearGradient id="paint23_linear" x1="6966.15" y1="17295.5" x2="6966.15" y2="16264.6" gradientUnits="userSpaceOnUse">
<stop stop-color="#808080" stop-opacity="0.25"/>
<stop offset="0.54" stop-color="#808080" stop-opacity="0.12"/>
<stop offset="1" stop-color="#808080" stop-opacity="0.1"/>
</linearGradient>
<linearGradient id="paint24_linear" x1="8347.4" y1="2066.19" x2="8347.4" y2="2027.17" gradientUnits="userSpaceOnUse">
<stop stop-color="#808080" stop-opacity="0.25"/>
<stop offset="0.54" stop-color="#808080" stop-opacity="0.12"/>
<stop offset="1" stop-color="#808080" stop-opacity="0.1"/>
</linearGradient>
<linearGradient id="paint25_linear" x1="2349.34" y1="9199.48" x2="2349.34" y2="6343.3" gradientUnits="userSpaceOnUse">
<stop stop-color="#808080" stop-opacity="0.25"/>
<stop offset="0.54" stop-color="#808080" stop-opacity="0.12"/>
<stop offset="1" stop-color="#808080" stop-opacity="0.1"/>
</linearGradient>
<linearGradient id="paint26_linear" x1="27491" y1="17894.9" x2="27491" y2="11954" gradientUnits="userSpaceOnUse">
<stop stop-color="#808080" stop-opacity="0.25"/>
<stop offset="0.54" stop-color="#808080" stop-opacity="0.12"/>
<stop offset="1" stop-color="#808080" stop-opacity="0.1"/>
</linearGradient>
<linearGradient id="paint27_linear" x1="1083.23" y1="336.432" x2="1083.23" y2="106.887" gradientUnits="userSpaceOnUse">
<stop stop-color="#808080" stop-opacity="0.25"/>
<stop offset="0.54" stop-color="#808080" stop-opacity="0.12"/>
<stop offset="1" stop-color="#808080" stop-opacity="0.1"/>
</linearGradient>
<clipPath id="clip0">
<rect x="80" y="952" width="234" height="277" fill="white"/>
</clipPath>
<clipPath id="clip1">
<rect x="898" y="645" width="391" height="271" fill="white"/>
</clipPath>
<clipPath id="clip2">
<rect x="867" y="87" width="422" height="333" fill="white"/>
</clipPath>
</defs>
</svg>
