<svg width="1440" height="1053" viewBox="0 0 1440 1053" fill="none" xmlns="http://www.w3.org/2000/svg">
<rect width="1440" height="1053" fill="white"/>
<path d="M102.944 187.48C96.672 187.48 91.776 185.72 88.256 182.2C84.8 178.616 83.072 173.912 83.072 168.088C83.072 162.904 84.096 158.36 86.144 154.456C88.192 150.552 90.848 147.544 94.112 145.432C97.376 143.32 100.8 142.264 104.384 142.264C107.904 142.264 110.624 143.32 112.544 145.432C114.528 147.48 115.52 150.136 115.52 153.4C115.52 156.088 114.912 158.36 113.696 160.216C112.544 162.072 111.008 163 109.088 163C107.872 163 106.88 162.712 106.112 162.136C105.408 161.56 105.056 160.76 105.056 159.736C105.056 159.288 105.12 158.776 105.248 158.2C105.376 157.624 105.472 157.208 105.536 156.952C105.856 155.992 106.016 155.096 106.016 154.264C106.016 153.432 105.792 152.792 105.344 152.344C104.96 151.896 104.384 151.672 103.616 151.672C102.144 151.672 100.768 152.344 99.488 153.688C98.208 154.968 97.184 156.728 96.416 158.968C95.648 161.208 95.264 163.672 95.264 166.36C95.264 173.784 98.496 177.496 104.96 177.496C107.584 177.496 110.4 176.632 113.408 174.904C116.48 173.112 119.488 170.456 122.432 166.936C123.2 166.04 124.064 165.592 125.024 165.592C125.856 165.592 126.496 165.976 126.944 166.744C127.456 167.512 127.712 168.568 127.712 169.912C127.712 172.344 127.104 174.328 125.888 175.864C122.88 179.576 119.264 182.456 115.04 184.504C110.88 186.488 106.848 187.48 102.944 187.48ZM162.768 165.592C163.6 165.592 164.24 165.976 164.688 166.744C165.2 167.512 165.456 168.568 165.456 169.912C165.456 172.472 164.848 174.456 163.632 175.864C161.264 178.744 157.904 181.4 153.552 183.832C149.264 186.264 144.656 187.48 139.728 187.48C133.008 187.48 127.792 185.656 124.08 182.008C120.368 178.36 118.512 173.368 118.512 167.032C118.512 162.616 119.44 158.52 121.296 154.744C123.152 150.904 125.712 147.864 128.976 145.624C132.304 143.384 136.048 142.264 140.208 142.264C143.92 142.264 146.896 143.384 149.136 145.624C151.376 147.8 152.496 150.776 152.496 154.552C152.496 158.968 150.896 162.776 147.696 165.976C144.56 169.112 139.216 171.608 131.664 173.464C133.264 176.408 136.304 177.88 140.784 177.88C143.664 177.88 146.928 176.888 150.576 174.904C154.288 172.856 157.488 170.2 160.176 166.936C160.944 166.04 161.808 165.592 162.768 165.592ZM138.576 151.672C136.208 151.672 134.192 153.048 132.528 155.8C130.928 158.552 130.128 161.88 130.128 165.784V165.976C133.904 165.08 136.88 163.736 139.056 161.944C141.232 160.152 142.32 158.072 142.32 155.704C142.32 154.488 141.968 153.528 141.264 152.824C140.624 152.056 139.728 151.672 138.576 151.672ZM196.423 155.416C197.831 155.416 199.015 155.928 199.975 156.952C200.999 157.912 201.511 159.128 201.511 160.6C201.511 161.432 201.319 162.328 200.935 163.288C199.911 165.656 198.471 167.64 196.615 169.24C194.759 170.84 192.711 171.64 190.471 171.64C188.679 171.64 187.143 171 185.863 169.72C184.647 168.44 184.039 166.712 184.039 164.536C184.039 163.32 184.103 162.008 184.231 160.6C184.359 159.576 184.423 158.872 184.423 158.488C184.423 157.976 184.295 157.592 184.039 157.336C183.847 157.08 183.591 156.952 183.271 156.952C182.375 156.952 181.159 158.04 179.623 160.216C178.087 162.328 176.551 165.144 175.015 168.664C173.479 172.184 172.231 175.896 171.271 179.8C170.567 182.872 169.767 184.92 168.871 185.944C167.975 186.968 166.503 187.48 164.455 187.48C162.023 187.48 160.295 186.2 159.271 183.64C158.311 181.08 157.831 176.984 157.831 171.352C157.831 163.032 159.015 155.128 161.383 147.64C161.959 145.784 162.887 144.44 164.167 143.608C165.511 142.712 167.367 142.264 169.735 142.264C171.015 142.264 171.911 142.424 172.423 142.744C172.935 143.064 173.191 143.672 173.191 144.568C173.191 145.592 172.711 147.896 171.751 151.48C171.111 154.04 170.599 156.28 170.215 158.2C169.831 160.12 169.511 162.488 169.255 165.304C171.367 159.8 173.735 155.32 176.359 151.864C178.983 148.408 181.543 145.944 184.039 144.472C186.535 143 188.807 142.264 190.855 142.264C192.711 142.264 194.119 142.808 195.079 143.896C196.103 144.92 196.615 146.456 196.615 148.504C196.615 149.72 196.263 152.024 195.559 155.416H196.423ZM247.987 165.592C248.819 165.592 249.459 165.976 249.906 166.744C250.419 167.512 250.675 168.568 250.675 169.912C250.675 172.472 250.067 174.456 248.851 175.864C246.099 179.256 243.091 182.04 239.827 184.216C236.563 186.392 232.819 187.48 228.595 187.48C215.539 187.48 209.011 178.296 209.011 159.928C209.011 157.112 209.107 154.264 209.299 151.384H205.555C203.635 151.384 202.323 151.032 201.619 150.328C200.979 149.624 200.659 148.504 200.659 146.968C200.659 143.384 202.099 141.592 204.979 141.592H210.451C211.539 134.552 213.203 128.12 215.443 122.296C217.683 116.472 220.371 111.832 223.507 108.376C226.707 104.92 230.131 103.192 233.779 103.192C236.467 103.192 238.579 104.376 240.115 106.744C241.651 109.112 242.419 112.088 242.419 115.672C242.419 125.592 238.259 134.232 229.939 141.592H240.691C241.715 141.592 242.451 141.816 242.899 142.264C243.347 142.712 243.571 143.544 243.571 144.76C243.571 149.176 239.955 151.384 232.723 151.384H221.011C220.883 154.584 220.819 157.08 220.819 158.872C220.819 165.528 221.587 170.2 223.123 172.888C224.723 175.576 227.219 176.92 230.611 176.92C233.363 176.92 235.795 176.088 237.907 174.424C240.019 172.76 242.515 170.264 245.395 166.936C246.163 166.04 247.027 165.592 247.987 165.592ZM231.187 112.408C230.227 112.408 229.139 113.624 227.923 116.056C226.771 118.424 225.651 121.752 224.562 126.04C223.539 130.264 222.675 134.968 221.971 140.152C225.747 136.888 228.563 133.24 230.419 129.208C232.339 125.112 233.299 121.4 233.299 118.072C233.299 114.296 232.595 112.408 231.187 112.408ZM255.434 135.928C252.746 135.928 250.73 135.32 249.386 134.104C248.042 132.824 247.37 131.064 247.37 128.824C247.37 126.584 248.234 124.728 249.962 123.256C251.754 121.72 253.962 120.952 256.586 120.952C258.954 120.952 260.874 121.528 262.346 122.68C263.818 123.832 264.554 125.464 264.554 127.576C264.554 130.136 263.722 132.184 262.058 133.72C260.394 135.192 258.186 135.928 255.434 135.928ZM254.666 187.48C250.506 187.48 247.466 186.008 245.546 183.064C243.69 180.12 242.762 176.216 242.762 171.352C242.762 168.472 243.114 164.792 243.818 160.312C244.586 155.768 245.546 151.544 246.698 147.64C247.274 145.592 248.042 144.184 249.002 143.416C249.962 142.648 251.498 142.264 253.61 142.264C256.874 142.264 258.506 143.352 258.506 145.528C258.506 147.128 257.898 150.84 256.682 156.664C255.146 163.704 254.378 168.472 254.378 170.968C254.378 172.888 254.634 174.36 255.146 175.384C255.658 176.408 256.522 176.92 257.738 176.92C258.89 176.92 260.33 176.12 262.058 174.52C263.786 172.92 266.09 170.392 268.97 166.936C269.738 166.04 270.602 165.592 271.562 165.592C272.394 165.592 273.034 165.976 273.482 166.744C273.994 167.512 274.25 168.568 274.25 169.912C274.25 172.472 273.642 174.456 272.426 175.864C266.09 183.608 260.17 187.48 254.666 187.48ZM332.339 165.592C333.171 165.592 333.811 165.976 334.259 166.744C334.771 167.512 335.027 168.568 335.027 169.912C335.027 172.472 334.419 174.456 333.203 175.864C330.579 179.064 327.667 181.816 324.467 184.12C321.331 186.36 318.163 187.48 314.963 187.48C310.803 187.48 307.763 186.008 305.843 183.064C303.987 180.12 303.059 176.216 303.059 171.352C303.059 168.856 303.315 165.784 303.827 162.136C304.403 158.488 305.139 154.904 306.035 151.384C299.635 151.384 292.051 151.672 283.283 152.248C281.875 161.208 281.171 169.56 281.171 177.304C281.171 183.256 281.491 189.464 282.131 195.928C282.835 202.456 283.859 205.72 285.203 205.72C285.843 205.72 286.515 204.6 287.219 202.36C287.923 200.12 288.499 197.048 288.947 193.144C289.395 189.24 289.619 184.92 289.619 180.184C289.619 175 289.331 169.4 288.755 163.384C288.627 161.592 288.915 160.28 289.619 159.448C290.387 158.552 291.507 158.104 292.979 158.104C294.323 158.104 295.315 158.456 295.955 159.16C296.595 159.864 296.979 161.048 297.107 162.712C297.427 167.384 297.587 172.952 297.587 179.416C297.587 189.848 296.307 198.776 293.747 206.2C291.251 213.624 287.347 217.336 282.035 217.336C277.491 217.336 274.227 214.04 272.243 207.448C270.259 200.92 269.267 191.096 269.267 177.976C269.267 170.232 269.875 161.944 271.091 153.112C270.643 153.176 270.067 153.208 269.363 153.208C267.379 153.208 266.035 152.856 265.331 152.152C264.691 151.448 264.371 150.36 264.371 148.888C264.371 147.288 264.787 146.008 265.619 145.048C266.515 144.088 268.179 143.512 270.611 143.32C271.059 143.256 271.763 143.224 272.723 143.224C274.451 134.584 276.659 126.744 279.347 119.704C282.035 112.664 285.107 107.096 288.563 103C292.019 98.84 295.667 96.76 299.507 96.76C302.515 96.76 304.819 97.944 306.419 100.312C308.083 102.616 308.915 105.592 308.915 109.24C308.915 122.104 303.731 133.048 293.363 142.072C301.171 141.752 307.475 141.592 312.275 141.592C314.067 141.592 315.539 141.944 316.691 142.648C317.843 143.288 318.419 144.568 318.419 146.488C318.419 147.768 318.195 149.72 317.747 152.344C317.363 154.968 316.915 157.592 316.403 160.216C315.251 165.656 314.675 169.24 314.675 170.968C314.675 172.888 314.931 174.36 315.443 175.384C315.955 176.408 316.819 176.92 318.035 176.92C319.123 176.92 320.499 176.184 322.163 174.712C323.891 173.176 326.419 170.584 329.747 166.936C330.515 166.04 331.379 165.592 332.339 165.592ZM297.683 105.976C296.147 105.976 294.195 109.304 291.827 115.96C289.459 122.616 287.315 130.68 285.395 140.152C288.595 137.912 291.251 135.128 293.363 131.8C295.539 128.472 297.139 125.048 298.163 121.528C299.251 117.944 299.795 114.648 299.795 111.64C299.795 107.864 299.091 105.976 297.683 105.976ZM316.307 135.928C313.619 135.928 311.603 135.32 310.259 134.104C308.915 132.824 308.243 131.064 308.243 128.824C308.243 126.584 309.107 124.728 310.835 123.256C312.627 121.72 314.835 120.952 317.459 120.952C319.827 120.952 321.747 121.528 323.219 122.68C324.691 123.832 325.427 125.464 325.427 127.576C325.427 130.136 324.595 132.184 322.931 133.72C321.267 135.192 319.059 135.928 316.307 135.928ZM345.569 187.48C339.297 187.48 334.401 185.72 330.881 182.2C327.425 178.616 325.697 173.912 325.697 168.088C325.697 162.904 326.721 158.36 328.769 154.456C330.817 150.552 333.473 147.544 336.737 145.432C340.001 143.32 343.425 142.264 347.009 142.264C350.529 142.264 353.249 143.32 355.169 145.432C357.153 147.48 358.145 150.136 358.145 153.4C358.145 156.088 357.537 158.36 356.321 160.216C355.169 162.072 353.633 163 351.713 163C350.497 163 349.505 162.712 348.737 162.136C348.033 161.56 347.681 160.76 347.681 159.736C347.681 159.288 347.745 158.776 347.873 158.2C348.001 157.624 348.097 157.208 348.161 156.952C348.481 155.992 348.641 155.096 348.641 154.264C348.641 153.432 348.417 152.792 347.969 152.344C347.585 151.896 347.009 151.672 346.241 151.672C344.769 151.672 343.393 152.344 342.113 153.688C340.833 154.968 339.809 156.728 339.041 158.968C338.273 161.208 337.889 163.672 337.889 166.36C337.889 173.784 341.121 177.496 347.585 177.496C350.209 177.496 353.025 176.632 356.033 174.904C359.105 173.112 362.113 170.456 365.057 166.936C365.825 166.04 366.689 165.592 367.649 165.592C368.481 165.592 369.121 165.976 369.569 166.744C370.081 167.512 370.337 168.568 370.337 169.912C370.337 172.344 369.729 174.328 368.513 175.864C365.505 179.576 361.889 182.456 357.665 184.504C353.505 186.488 349.473 187.48 345.569 187.48ZM373.447 187.48C369.479 187.48 366.311 186.04 363.943 183.16C361.575 180.28 360.391 176.504 360.391 171.832C360.391 166.712 361.575 161.88 363.943 157.336C366.311 152.728 369.447 149.048 373.351 146.296C377.319 143.48 381.511 142.072 385.927 142.072C387.335 142.072 388.263 142.36 388.711 142.936C389.223 143.448 389.639 144.408 389.959 145.816C391.303 145.56 392.711 145.432 394.183 145.432C397.319 145.432 398.887 146.552 398.887 148.792C398.887 150.136 398.407 153.336 397.447 158.392C395.975 165.752 395.239 170.872 395.239 173.752C395.239 174.712 395.463 175.48 395.911 176.056C396.423 176.632 397.063 176.92 397.831 176.92C399.047 176.92 400.519 176.152 402.247 174.616C403.975 173.016 406.311 170.456 409.255 166.936C410.023 166.04 410.887 165.592 411.847 165.592C412.679 165.592 413.319 165.976 413.767 166.744C414.279 167.512 414.535 168.568 414.535 169.912C414.535 172.472 413.927 174.456 412.711 175.864C410.087 179.128 407.303 181.88 404.359 184.12C401.415 186.36 398.567 187.48 395.815 187.48C393.703 187.48 391.751 186.776 389.959 185.368C388.231 183.896 386.919 181.912 386.023 179.416C382.695 184.792 378.503 187.48 373.447 187.48ZM376.903 177.784C378.311 177.784 379.655 176.952 380.935 175.288C382.215 173.624 383.143 171.416 383.719 168.664L387.271 151C384.583 151.064 382.087 152.088 379.783 154.072C377.543 155.992 375.751 158.552 374.407 161.752C373.063 164.952 372.391 168.344 372.391 171.928C372.391 173.912 372.775 175.384 373.543 176.344C374.375 177.304 375.495 177.784 376.903 177.784ZM449.549 165.592C450.381 165.592 451.021 165.976 451.469 166.744C451.981 167.512 452.237 168.568 452.237 169.912C452.237 172.472 451.629 174.456 450.413 175.864C447.661 179.256 444.653 182.04 441.389 184.216C438.125 186.392 434.381 187.48 430.157 187.48C417.101 187.48 410.573 178.296 410.573 159.928C410.573 157.112 410.669 154.264 410.861 151.384H407.117C405.197 151.384 403.885 151.032 403.181 150.328C402.541 149.624 402.221 148.504 402.221 146.968C402.221 143.384 403.661 141.592 406.541 141.592H412.013C413.101 134.552 414.765 128.12 417.005 122.296C419.245 116.472 421.933 111.832 425.069 108.376C428.269 104.92 431.693 103.192 435.341 103.192C438.029 103.192 440.141 104.376 441.677 106.744C443.213 109.112 443.981 112.088 443.981 115.672C443.981 125.592 439.821 134.232 431.501 141.592H442.253C443.277 141.592 444.013 141.816 444.461 142.264C444.909 142.712 445.133 143.544 445.133 144.76C445.133 149.176 441.517 151.384 434.285 151.384H422.573C422.445 154.584 422.381 157.08 422.381 158.872C422.381 165.528 423.149 170.2 424.685 172.888C426.285 175.576 428.781 176.92 432.173 176.92C434.925 176.92 437.357 176.088 439.469 174.424C441.581 172.76 444.077 170.264 446.957 166.936C447.725 166.04 448.589 165.592 449.549 165.592ZM432.749 112.408C431.789 112.408 430.701 113.624 429.485 116.056C428.333 118.424 427.213 121.752 426.125 126.04C425.101 130.264 424.237 134.968 423.533 140.152C427.309 136.888 430.125 133.24 431.981 129.208C433.901 125.112 434.861 121.4 434.861 118.072C434.861 114.296 434.157 112.408 432.749 112.408ZM456.997 135.928C454.309 135.928 452.293 135.32 450.949 134.104C449.605 132.824 448.933 131.064 448.933 128.824C448.933 126.584 449.797 124.728 451.525 123.256C453.317 121.72 455.525 120.952 458.149 120.952C460.517 120.952 462.437 121.528 463.909 122.68C465.381 123.832 466.117 125.464 466.117 127.576C466.117 130.136 465.285 132.184 463.621 133.72C461.957 135.192 459.749 135.928 456.997 135.928ZM456.229 187.48C452.069 187.48 449.029 186.008 447.109 183.064C445.253 180.12 444.325 176.216 444.325 171.352C444.325 168.472 444.677 164.792 445.381 160.312C446.149 155.768 447.109 151.544 448.261 147.64C448.837 145.592 449.605 144.184 450.565 143.416C451.525 142.648 453.061 142.264 455.173 142.264C458.437 142.264 460.069 143.352 460.069 145.528C460.069 147.128 459.461 150.84 458.245 156.664C456.709 163.704 455.941 168.472 455.941 170.968C455.941 172.888 456.197 174.36 456.709 175.384C457.221 176.408 458.085 176.92 459.301 176.92C460.453 176.92 461.893 176.12 463.621 174.52C465.349 172.92 467.653 170.392 470.533 166.936C471.301 166.04 472.165 165.592 473.125 165.592C473.957 165.592 474.597 165.976 475.045 166.744C475.557 167.512 475.813 168.568 475.813 169.912C475.813 172.472 475.205 174.456 473.989 175.864C467.653 183.608 461.733 187.48 456.229 187.48ZM517.006 157.528C517.838 157.528 518.478 157.944 518.926 158.776C519.374 159.608 519.598 160.664 519.598 161.944C519.598 165.016 518.67 166.84 516.814 167.416C512.974 168.76 508.75 169.528 504.142 169.72C502.926 175.096 500.526 179.416 496.942 182.68C493.358 185.88 489.294 187.48 484.75 187.48C480.91 187.48 477.614 186.552 474.862 184.696C472.174 182.84 470.126 180.376 468.718 177.304C467.31 174.232 466.605 170.904 466.605 167.32C466.605 162.456 467.534 158.136 469.39 154.36C471.246 150.52 473.806 147.544 477.07 145.432C480.334 143.256 483.95 142.168 487.918 142.168C492.782 142.168 496.686 143.864 499.63 147.256C502.638 150.584 504.398 154.712 504.91 159.64C507.918 159.448 511.502 158.808 515.662 157.72C516.174 157.592 516.622 157.528 517.006 157.528ZM485.518 177.304C487.566 177.304 489.326 176.472 490.798 174.808C492.334 173.144 493.358 170.744 493.87 167.608C491.886 166.264 490.35 164.504 489.262 162.328C488.238 160.152 487.726 157.848 487.726 155.416C487.726 154.392 487.822 153.368 488.014 152.344H487.534C484.974 152.344 482.83 153.592 481.102 156.088C479.438 158.52 478.606 161.976 478.606 166.456C478.606 169.976 479.278 172.664 480.622 174.52C482.03 176.376 483.662 177.304 485.518 177.304ZM518.174 187.48C515.742 187.48 514.014 186.2 512.99 183.64C512.03 181.08 511.55 176.984 511.55 171.352C511.55 163.032 512.734 155.128 515.102 147.64C515.678 145.784 516.606 144.44 517.886 143.608C519.23 142.712 521.086 142.264 523.454 142.264C524.734 142.264 525.63 142.424 526.142 142.744C526.654 143.064 526.91 143.672 526.91 144.568C526.91 145.592 526.43 147.896 525.47 151.48C524.83 154.04 524.318 156.28 523.934 158.2C523.55 160.12 523.23 162.488 522.974 165.304C525.086 159.8 527.454 155.32 530.078 151.864C532.702 148.408 535.262 145.944 537.758 144.472C540.318 143 542.654 142.264 544.766 142.264C548.926 142.264 551.006 144.344 551.006 148.504C551.006 151 550.302 155.512 548.894 162.04C547.678 167.608 547.07 171.288 547.07 173.08C547.07 175.64 547.998 176.92 549.854 176.92C551.134 176.92 552.638 176.152 554.366 174.616C556.158 173.016 558.526 170.456 561.47 166.936C562.238 166.04 563.102 165.592 564.062 165.592C564.894 165.592 565.534 165.976 565.982 166.744C566.494 167.512 566.75 168.568 566.75 169.912C566.75 172.472 566.142 174.456 564.926 175.864C562.174 179.256 559.198 182.04 555.998 184.216C552.862 186.392 549.278 187.48 545.246 187.48C541.982 187.48 539.518 186.552 537.854 184.696C536.19 182.776 535.358 180.024 535.358 176.44C535.358 174.648 535.806 171.448 536.702 166.84C537.534 162.808 537.95 160.024 537.95 158.488C537.95 157.464 537.598 156.952 536.894 156.952C536.062 156.952 534.878 158.04 533.342 160.216C531.87 162.328 530.334 165.144 528.734 168.664C527.198 172.184 525.95 175.896 524.99 179.8C524.286 182.808 523.454 184.856 522.494 185.944C521.598 186.968 520.158 187.48 518.174 187.48ZM576.839 189.592C573.511 189.592 570.951 188.824 569.159 187.288C567.431 185.752 566.567 184.024 566.567 182.104C566.567 180.44 567.175 179 568.391 177.784C569.607 176.568 571.399 175.96 573.767 175.96C574.599 175.96 575.559 176.056 576.647 176.248C577.799 176.376 578.663 176.472 579.239 176.536C579.175 174.872 578.791 173.304 578.087 171.832C577.447 170.36 576.615 168.952 575.591 167.608C574.567 166.2 573.607 164.984 572.711 163.96C570.727 167.736 568.743 170.872 566.759 173.368C564.839 175.864 562.727 178.232 560.423 180.472C559.271 181.624 558.055 182.2 556.775 182.2C555.751 182.2 554.919 181.848 554.279 181.144C553.639 180.376 553.319 179.448 553.319 178.36C553.319 177.08 553.767 175.896 554.663 174.808L555.911 173.272C559.431 168.92 562.087 165.336 563.879 162.52C565.031 160.664 566.183 158.456 567.335 155.896C568.551 153.336 570.119 149.848 572.039 145.432C573.255 142.616 575.783 141.208 579.623 141.208C581.415 141.208 582.663 141.368 583.367 141.688C584.071 142.008 584.423 142.52 584.423 143.224C584.423 143.608 584.295 144.216 584.039 145.048C583.783 145.88 583.431 146.712 582.983 147.544C581.831 149.848 581.255 151.8 581.255 153.4C581.255 154.36 581.575 155.416 582.215 156.568C582.919 157.72 583.975 159.16 585.383 160.888C587.431 163.576 588.967 165.88 589.991 167.8C591.079 169.656 591.623 171.704 591.623 173.944C591.623 176.632 590.983 179.192 589.703 181.624C588.487 183.992 586.759 185.912 584.519 187.384C582.279 188.856 579.719 189.592 576.839 189.592ZM628.795 187.48C625.979 187.48 623.835 186.712 622.363 185.176C620.955 183.64 620.251 181.624 620.251 179.128C620.251 176.248 621.051 173.944 622.651 172.216C624.315 170.488 626.619 169.624 629.562 169.624C632.379 169.624 634.491 170.328 635.899 171.736C637.371 173.08 638.107 175.096 638.107 177.784C638.107 180.728 637.275 183.096 635.611 184.888C633.947 186.616 631.675 187.48 628.795 187.48ZM653.451 187.48C650.635 187.48 648.491 186.712 647.019 185.176C645.611 183.64 644.907 181.624 644.907 179.128C644.907 176.248 645.707 173.944 647.307 172.216C648.971 170.488 651.275 169.624 654.219 169.624C657.035 169.624 659.147 170.328 660.555 171.736C662.027 173.08 662.763 175.096 662.763 177.784C662.763 180.728 661.931 183.096 660.267 184.888C658.603 186.616 656.331 187.48 653.451 187.48ZM678.107 187.48C675.291 187.48 673.147 186.712 671.675 185.176C670.267 183.64 669.563 181.624 669.563 179.128C669.563 176.248 670.363 173.944 671.963 172.216C673.627 170.488 675.931 169.624 678.875 169.624C681.691 169.624 683.803 170.328 685.211 171.736C686.683 173.08 687.419 175.096 687.419 177.784C687.419 180.728 686.587 183.096 684.923 184.888C683.259 186.616 680.987 187.48 678.107 187.48Z" fill="#B5A6A6"/>
<g clip-path="url(#clip0)">
<path d="M1236.52 391.017C1236.52 442.698 1203.99 488.418 1154.13 516.249C1122.15 534.097 1083.05 544.592 1040.83 544.592C984.578 544.592 941.671 524.791 909.396 494.459C879.646 466.509 858.932 429.609 845.13 391.017C783.513 218.713 886.444 171.706 1040.83 237.443C1139.12 279.303 1236.52 306.203 1236.52 391.017Z" fill="#877373"/>
<path d="M1154.13 300.815V516.658C1122.15 534.506 1083.05 545 1040.83 545C984.578 545 941.671 525.2 909.396 494.868V300.815H1154.13Z" fill="#F2F2F2"/>
<path d="M932.935 405.986C945.749 402.189 959.043 399.982 972.476 399.42C979.207 399.153 985.95 399.399 992.638 400.155C999.261 400.97 1005.8 402.275 1012.21 404.057C1018.53 405.762 1024.77 407.733 1031.07 409.503C1037.47 411.325 1043.98 412.804 1050.57 413.935C1057.12 415.039 1063.73 415.773 1070.38 416.134C1076.96 416.49 1083.6 416.56 1090.17 415.907C1096.3 415.357 1102.3 413.94 1107.97 411.704C1113.26 409.554 1118.14 406.635 1122.45 403.054C1123.52 402.162 1124.55 401.229 1125.55 400.258C1126.13 399.688 1125.2 398.82 1124.61 399.391C1116.23 407.558 1105.2 412.622 1093.24 414.313C1086.73 415.234 1080.09 415.288 1073.52 415.05C1066.8 414.809 1060.1 414.179 1053.47 413.163C1046.91 412.151 1040.43 410.776 1034.05 409.047C1027.78 407.356 1021.6 405.406 1015.36 403.648C1009.06 401.806 1002.63 400.379 996.115 399.378C989.581 398.451 982.978 398.024 976.37 398.101C963.166 398.298 950.047 400.107 937.348 403.483C935.753 403.901 934.165 404.341 932.585 404.804C931.78 405.039 932.124 406.223 932.935 405.986H932.935Z" fill="#3F3D56"/>
<path d="M932.935 437.032C945.749 433.236 959.043 431.028 972.476 430.466C979.207 430.199 985.95 430.445 992.638 431.201C999.261 432.017 1005.8 433.322 1012.21 435.103C1018.53 436.809 1024.77 438.779 1031.07 440.55C1037.47 442.371 1043.98 443.851 1050.57 444.981C1057.12 446.085 1063.73 446.82 1070.38 447.181C1076.96 447.537 1083.6 447.606 1090.17 446.953C1096.3 446.404 1102.3 444.986 1107.97 442.75C1113.26 440.601 1118.14 437.681 1122.45 434.101C1123.52 433.208 1124.55 432.276 1125.55 431.304C1126.13 430.734 1125.2 429.867 1124.61 430.438C1116.23 438.605 1105.2 443.669 1093.24 445.36C1086.73 446.281 1080.09 446.334 1073.52 446.097C1066.8 445.855 1060.1 445.225 1053.47 444.21C1046.91 443.197 1040.43 441.823 1034.05 440.093C1027.78 438.402 1021.6 436.452 1015.36 434.695C1009.06 432.852 1002.63 431.425 996.115 430.424C989.581 429.497 982.978 429.07 976.37 429.148C963.166 429.344 950.047 431.154 937.348 434.53C935.753 434.947 934.165 435.387 932.585 435.85C931.78 436.086 932.124 437.269 932.935 437.032H932.935Z" fill="#3F3D56"/>
<path d="M932.935 377.799C945.749 374.002 959.043 371.795 972.476 371.233C979.207 370.966 985.95 371.212 992.638 371.967C999.261 372.783 1005.8 374.088 1012.21 375.87C1018.53 377.575 1024.77 379.546 1031.07 381.316C1037.47 383.138 1043.98 384.617 1050.57 385.748C1057.12 386.852 1063.73 387.586 1070.38 387.947C1076.96 388.303 1083.6 388.373 1090.17 387.72C1096.3 387.17 1102.3 385.753 1107.97 383.517C1113.26 381.367 1118.14 378.448 1122.45 374.867C1123.52 373.975 1124.55 373.042 1125.55 372.071C1126.13 371.501 1125.2 370.633 1124.61 371.204C1116.23 379.371 1105.2 384.435 1093.24 386.126C1086.73 387.047 1080.09 387.101 1073.52 386.863C1066.8 386.622 1060.1 385.992 1053.47 384.976C1046.91 383.964 1040.43 382.589 1034.05 380.86C1027.78 379.169 1021.6 377.219 1015.36 375.461C1009.06 373.619 1002.63 372.192 996.115 371.191C989.581 370.264 982.978 369.837 976.37 369.914C963.166 370.111 950.047 371.92 937.348 375.296C935.753 375.714 934.165 376.154 932.585 376.617C931.78 376.852 932.124 378.036 932.935 377.799H932.935Z" fill="#3F3D56"/>
<path d="M931.367 324.505C934.551 323.192 938.197 323.421 941.501 324.182C945.064 325.004 948.418 326.432 951.925 327.419C958.202 329.161 964.87 329.279 971.213 327.76C974.784 326.912 978.192 325.551 981.314 323.727C982.03 323.309 981.37 322.248 980.65 322.669C975.085 325.906 968.651 327.615 962.09 327.598C958.799 327.593 955.526 327.144 952.373 326.265C948.892 325.293 945.564 323.881 942.038 323.044C938.302 322.157 934.295 321.965 930.703 323.447C929.931 323.766 930.599 324.822 931.367 324.505V324.505Z" fill="#3F3D56"/>
<path d="M1029.13 512.422C1040.27 512.422 1049.3 504.008 1049.3 493.63C1049.3 483.252 1040.27 474.839 1029.13 474.839C1017.99 474.839 1008.95 483.252 1008.95 493.63C1008.95 504.008 1017.99 512.422 1029.13 512.422Z" fill="#3F3D56"/>
<path d="M920.36 262.415C926.416 262.415 931.325 257.843 931.325 252.202C931.325 246.562 926.416 241.99 920.36 241.99C914.305 241.99 909.396 246.562 909.396 252.202C909.396 257.843 914.305 262.415 920.36 262.415Z" fill="#F2F2F2"/>
<path d="M1016.41 288.151C1020.53 288.151 1023.87 285.042 1023.87 281.206C1023.87 277.371 1020.53 274.262 1016.41 274.262C1012.29 274.262 1008.95 277.371 1008.95 281.206C1008.95 285.042 1012.29 288.151 1016.41 288.151Z" fill="#F2F2F2"/>
<path d="M895.361 354.738C899.479 354.738 902.817 351.629 902.817 347.793C902.817 343.958 899.479 340.849 895.361 340.849C891.243 340.849 887.905 343.958 887.905 347.793C887.905 351.629 891.243 354.738 895.361 354.738Z" fill="#F2F2F2"/>
<path d="M865.342 296.202H864.52V433.151H865.342V296.202Z" fill="#3F3D56"/>
<path d="M865.089 421.415C873.944 421.415 881.123 406.157 881.123 387.335C881.123 368.514 873.944 353.256 865.089 353.256C856.234 353.256 849.056 368.514 849.056 387.335C849.056 406.157 856.234 421.415 865.089 421.415Z" fill="#3F3D56"/>
<path d="M865.089 343.683C873.944 343.683 881.123 328.425 881.123 309.604C881.123 290.782 873.944 275.524 865.089 275.524C856.234 275.524 849.056 290.782 849.056 309.604C849.056 328.425 856.234 343.683 865.089 343.683Z" fill="#3F3D56"/>
<path d="M865.483 281.761L864.695 281.541C864.745 281.386 869.579 265.958 861.642 256.025C857.159 250.416 849.467 247.571 838.778 247.571V246.806C849.743 246.806 857.658 249.755 862.304 255.571C870.487 265.815 865.534 281.603 865.483 281.761Z" fill="#3F3D56"/>
<path d="M838.778 256.761C844.455 256.761 849.056 252.476 849.056 247.189C849.056 241.902 844.455 237.616 838.778 237.616C833.102 237.616 828.501 241.902 828.501 247.189C828.501 252.476 833.102 256.761 838.778 256.761Z" fill="#3F3D56"/>
<path d="M1165.04 464.185L1157.35 530.077H1210.4L1212.71 525.063L1215.79 530.077H1265.77C1265.77 530.077 1261.92 462.036 1255 459.888C1248.08 457.739 1165.04 464.185 1165.04 464.185Z" fill="#2F2E41"/>
<path d="M1210.4 319.51C1225.27 319.51 1237.32 308.287 1237.32 294.442C1237.32 280.598 1225.27 269.375 1210.4 269.375C1195.54 269.375 1183.49 280.598 1183.49 294.442C1183.49 308.287 1195.54 319.51 1210.4 319.51Z" fill="#FFB8B8"/>
<path d="M1195.02 310.199C1195.02 310.199 1197.33 333.118 1195.02 334.55C1192.72 335.983 1231.93 335.267 1231.93 335.267C1231.93 335.267 1226.55 314.496 1231.93 304.469L1195.02 310.199Z" fill="#FFB8B8"/>
<path d="M1208.87 329.536C1208.87 329.536 1228.65 332.407 1230.29 326.674L1240.39 339.563L1241.16 468.482C1241.16 468.482 1158.88 477.793 1155.81 462.753C1152.73 447.712 1187.34 328.82 1187.34 328.82L1196.05 328.295C1196.05 328.295 1207.33 329.536 1208.87 329.536Z" fill="#D0CDE1"/>
<path d="M1195.92 322.414L1182.72 326.672L1145.04 335.267L1146.58 421.213C1146.58 421.213 1114.28 507.158 1128.89 513.604C1143.5 520.05 1164.27 505.01 1170.42 494.267C1176.57 483.523 1198.1 334.55 1198.1 331.686C1198.1 328.821 1195.92 322.414 1195.92 322.414Z" fill="#3F3D56"/>
<path d="M1229.8 322.414L1235.01 326.672L1271.92 342.429L1253.46 429.091C1253.46 429.091 1278.07 507.875 1268.84 512.172C1259.62 516.469 1245.78 528.645 1242.7 521.483C1239.62 514.321 1221.51 330.331 1229.8 322.414Z" fill="#3F3D56"/>
<path d="M1251.16 436.969C1251.16 436.969 1216.56 423.361 1215.79 435.537C1215.02 447.712 1255 456.307 1255 452.726C1255 449.145 1251.16 436.969 1251.16 436.969Z" fill="#FFB8B8"/>
<path d="M1166.57 431.956C1166.57 431.956 1206.56 459.888 1191.18 467.05C1175.8 474.212 1155.81 441.983 1155.81 441.983L1166.57 431.956Z" fill="#FFB8B8"/>
<path d="M1222.35 257.722C1222.48 257.473 1222.68 257.264 1222.94 257.124C1223.19 256.983 1223.48 256.916 1223.78 256.932C1211.46 256.246 1198.48 257.583 1188.17 263.908C1185.29 265.679 1182.59 267.845 1179.3 268.843L1181.97 270.792L1178.78 271.697L1183.47 274.52C1183 275.022 1182.39 275.398 1181.71 275.61C1181.03 275.822 1180.3 275.863 1179.6 275.729C1181.64 276.283 1183.14 277.973 1183.9 279.82C1184.67 281.666 1184.8 283.677 1184.93 285.651C1185.72 282.802 1189.06 281.125 1192.21 280.955C1195.37 280.784 1198.44 281.753 1201.51 282.45C1208.19 283.963 1215.14 284.212 1221.92 283.182C1219.62 287.491 1221.56 292.631 1223.52 297.087L1227.43 305.985C1229.6 306.188 1231.13 304.179 1232.77 302.835C1234.26 301.609 1228.32 312.384 1229.24 311.989C1230.44 311.476 1243.02 298.531 1243.61 297.438C1246.3 292.448 1247.92 286.883 1247.67 281.304C1247.43 275.726 1245.24 270.145 1241.11 266.097C1238.31 263.349 1234.43 262.867 1231.57 260.583C1230.45 259.684 1230.45 258.982 1228.9 258.458C1228.39 258.284 1222.44 257.546 1222.35 257.722Z" fill="#2F2E41"/>
<path d="M1150.43 337.415L1145.04 335.267L1101.98 401.158C1101.98 401.158 1094.29 418.348 1108.13 426.226C1121.97 434.104 1154.27 457.74 1154.27 457.74L1172.73 431.24C1172.73 431.24 1135.05 414.767 1137.35 408.321C1139.66 401.875 1151.96 384.686 1151.96 384.686L1150.43 337.415Z" fill="#3F3D56"/>
<path d="M1261.92 340.996L1271.92 342.429C1271.92 342.429 1313.44 418.347 1303.45 432.672C1293.45 446.996 1252.7 467.05 1252.7 467.05C1252.7 467.05 1251.93 443.415 1245.01 434.82L1268.84 426.226L1255.77 378.956L1261.92 340.996Z" fill="#3F3D56"/>
</g>
<path d="M380.303 915.765L379.647 924.833L366.304 920.299L371.771 913.498L380.303 915.765Z" fill="#FEB8B8"/>
<path d="M428.862 912.818L428.205 921.659L420.768 922.792L416.393 918.485L421.424 910.097L428.862 912.818Z" fill="#FEB8B8"/>
<path d="M434.33 799.918C434.33 799.918 440.236 807.172 432.799 818.281C425.362 829.389 416.394 840.271 416.394 840.271L399.768 872.917C399.768 872.917 391.238 904.883 389.269 905.789C387.3 906.696 386.207 903.069 387.3 906.923C388.394 910.776 387.738 910.55 386.863 910.778C385.988 911.005 383.582 910.551 384.457 912.138C385.332 913.725 385.988 913.725 384.238 913.725C382.488 913.725 381.832 912.592 381.832 914.179C381.832 915.765 380.301 919.393 380.301 919.393C380.301 919.393 369.583 916.219 369.145 914.859C368.708 913.498 371.989 912.818 371.333 911.458C370.677 910.098 370.458 910.098 370.458 908.058C370.458 906.018 371.771 905.564 371.771 905.564C371.771 905.564 372.864 905.111 372.427 904.204C371.989 903.297 370.239 903.75 372.427 902.617C374.614 901.483 383.583 866.796 383.583 866.796C383.583 866.796 383.583 849.565 386.426 843.898C389.27 838.232 387.083 797.877 393.866 797.423C400.649 796.97 434.33 799.918 434.33 799.918Z" fill="#2F2E41"/>
<path d="M432.143 812.84L430.83 847.979C430.83 847.979 437.393 881.985 435.205 892.413C433.018 902.842 434.549 901.482 433.236 903.295C431.924 905.109 430.83 904.202 431.924 905.789C433.017 907.376 433.672 907.83 431.924 909.644C430.176 911.459 429.299 915.765 429.299 915.765L418.144 914.632C418.144 914.632 420.987 909.418 419.891 908.284C418.796 907.151 415.954 908.964 418.144 906.473C420.333 903.981 421.644 905.112 420.331 903.979C419.018 902.846 417.05 903.299 418.8 901.485C420.549 899.672 422.519 899.674 420.768 898.992C419.018 898.309 417.049 898.992 417.925 897.631C418.801 896.271 419.894 894.684 419.894 894.684L417.269 874.054C417.269 874.054 414.207 867.253 415.082 864.306C415.956 861.359 411.362 837.101 411.362 837.101L432.143 812.84Z" fill="#2F2E41"/>
<path d="M427.332 917.351C427.332 917.351 429.519 915.084 430.175 916.444C430.831 917.804 435.643 930.046 432.8 930.953C429.957 931.86 425.801 932.765 423.613 932.086C421.426 931.408 416.832 928.231 411.364 928.231C405.896 928.231 401.303 925.738 401.303 924.831C401.303 923.924 400.428 918.483 404.584 918.483C408.739 918.483 416.395 913.496 416.395 913.496C416.395 913.496 418.143 909.868 419.02 910.095C419.897 910.322 419.239 917.576 419.239 917.576C419.239 917.576 424.268 922.565 427.332 917.351Z" fill="#2F2E41"/>
<path d="M378.772 920.298C378.772 920.298 380.74 915.311 382.709 916.443C384.678 917.576 383.365 931.631 383.365 931.631C383.365 931.631 381.617 934.578 376.584 933.899C371.551 933.219 358.211 931.631 355.148 932.311C352.086 932.991 343.774 929.138 345.961 923.923C345.961 923.923 347.055 920.976 352.305 921.203C357.555 921.429 367.179 914.855 367.179 914.855C367.179 914.855 368.71 910.321 369.148 910.774C369.585 911.227 370.022 919.162 370.022 919.162C370.022 919.162 375.71 923.019 378.772 920.298Z" fill="#2F2E41"/>
<path d="M407.426 711.276C414.433 711.276 420.113 705.389 420.113 698.127C420.113 690.865 414.433 684.978 407.426 684.978C400.42 684.978 394.74 690.865 394.74 698.127C394.74 705.389 400.42 711.276 407.426 711.276Z" fill="#FEB8B8"/>
<path d="M417.269 699.033C417.269 699.033 424.05 713.089 426.456 714.449C428.862 715.81 410.051 724.198 410.051 724.198C410.051 724.198 406.989 710.369 403.27 707.422C399.551 704.475 417.269 699.033 417.269 699.033Z" fill="#FEB8B8"/>
<path d="M397.802 813.973L396.927 822.588C396.927 822.588 387.522 819.188 390.584 812.84L397.802 813.973Z" fill="#FEB8B8"/>
<path d="M394.085 801.051C400.647 808.304 435.424 802.183 435.424 802.183L434.988 796.969L439.363 792.211L438.051 769.993C438.051 769.993 441.986 759.565 442.642 743.696C442.681 742.72 442.625 741.743 442.472 740.78C440.217 726.564 417.883 717.408 417.269 717.623C416.961 717.728 413.673 719.504 410.242 721.372C406.304 723.516 402.178 725.784 402.178 725.784C396.928 727.828 397.804 760.474 396.052 763.421C394.301 766.367 396.052 776.565 396.052 776.565L394.085 786.313C394.085 786.313 387.521 793.798 394.085 801.051Z" fill="#F0F0F0"/>
<path opacity="0.1" d="M415.284 729.081C415.284 729.081 421.408 748.124 420.096 761.046C418.783 773.969 404.566 810.922 404.566 810.922L399.756 813.642V819.99L396.371 810.488L405.679 790.317C405.679 790.317 394.065 720.693 415.284 729.081Z" fill="black"/>
<path opacity="0.1" d="M409.54 723.367C415.886 719.74 425.511 729.266 435.572 739.464C439.185 743.125 441.275 742.757 442.473 740.779C440.218 726.563 417.884 717.407 417.27 717.622C416.962 717.728 413.674 719.503 410.243 721.372L409.54 723.367Z" fill="black"/>
<path d="M409.543 721.614L412.167 714.133C412.167 714.133 430.104 705.292 441.915 714.133L443.884 726.829C443.884 726.829 445.632 747.912 435.572 737.711C425.512 727.509 415.885 717.987 409.543 721.614Z" fill="#F0F0F0"/>
<path d="M414.645 726.011C414.645 726.011 420.769 745.054 419.457 757.977C418.144 770.899 403.927 807.852 403.927 807.852L399.115 810.575V816.923L389.053 813.976L391.24 806.494C391.24 806.494 387.74 801.96 390.147 800.6C392.553 799.239 392.116 791.758 392.116 791.758C392.116 791.758 393.427 717.623 414.645 726.011Z" fill="#F0F0F0"/>
<path d="M418.736 703.631C418.529 702.615 418.557 701.522 418.087 700.604C417.382 699.229 415.762 698.654 414.265 698.518C412.354 698.346 410.428 698.688 408.514 698.553C406.6 698.417 404.556 697.661 403.603 695.936C403.223 695.247 403.036 694.437 402.531 693.84C401.482 692.598 399.57 692.79 398.063 693.322C396.555 693.855 394.983 694.632 393.441 694.216C392.145 690.458 393.741 686.123 396.501 683.341C399.261 680.558 402.984 679.061 406.681 677.944C411.557 676.472 417.044 675.602 421.528 678.075C428.029 681.662 430.323 691.154 429.723 698.229C429.496 700.903 429.126 703.931 427.04 705.737C423.982 708.383 419.659 708.156 418.736 703.631Z" fill="#2F2E41"/>
<path d="M339.135 607.161H65.1168V789.05H339.135V607.161Z" fill="#E6E6E6"/>
<path d="M332.196 629.975H73.8489V778.289H332.196V629.975Z" fill="white"/>
<path d="M339.018 607H65V619.065H339.018V607Z" fill="#877373"/>
<path d="M73.6513 615.405C74.843 615.405 75.8091 614.404 75.8091 613.169C75.8091 611.933 74.843 610.932 73.6513 610.932C72.4596 610.932 71.4935 611.933 71.4935 613.169C71.4935 614.404 72.4596 615.405 73.6513 615.405Z" fill="white"/>
<path d="M81.841 615.405C83.0327 615.405 83.9988 614.404 83.9988 613.169C83.9988 611.933 83.0327 610.932 81.841 610.932C80.6493 610.932 79.6832 611.933 79.6832 613.169C79.6832 614.404 80.6493 615.405 81.841 615.405Z" fill="white"/>
<path d="M90.0307 615.405C91.2224 615.405 92.1885 614.404 92.1885 613.169C92.1885 611.933 91.2224 610.932 90.0307 610.932C88.839 610.932 87.8729 611.933 87.8729 613.169C87.8729 614.404 88.839 615.405 90.0307 615.405Z" fill="white"/>
<path d="M119.048 650.763L101.959 668.253L119.048 685.743L122.893 681.758L109.971 668.363L123.001 654.858L119.048 650.763Z" fill="#877373"/>
<path d="M133.05 650.763L150.138 668.253L133.05 685.743L129.205 681.758L142.127 668.364L129.097 654.858L133.05 650.763Z" fill="#877373"/>
<path d="M188.325 655.152C186.927 655.152 185.794 655.985 185.794 657.013C185.794 658.04 186.927 658.873 188.325 658.873H307.625C309.023 658.873 310.155 658.04 310.155 657.013C310.155 655.985 309.023 655.152 307.625 655.152H188.325Z" fill="#E6E6E6"/>
<path d="M306.439 757.093H105.746C103.694 757.093 102.032 755.866 102.03 754.353V717.64C102.032 716.127 103.694 714.9 105.746 714.9H306.439C308.49 714.9 310.153 716.127 310.155 717.64V754.352C310.153 755.865 308.49 757.091 306.439 757.093ZM105.746 715.995C104.515 715.995 103.517 716.732 103.516 717.639V754.351C103.516 755.259 104.515 755.995 105.746 755.996H306.439C307.67 755.996 308.667 755.259 308.668 754.351V717.64C308.668 716.733 307.67 715.997 306.439 715.996L105.746 715.995Z" fill="#E6E6E6"/>
<path d="M126.413 745.286C131.372 745.286 135.392 741.12 135.392 735.98C135.392 730.841 131.372 726.674 126.413 726.674C121.454 726.674 117.434 730.841 117.434 735.98C117.434 741.12 121.454 745.286 126.413 745.286Z" fill="#E6E6E6"/>
<path d="M151.737 728.538C151.261 728.537 150.804 728.732 150.467 729.081C150.13 729.429 149.94 729.902 149.939 730.396C149.939 730.889 150.127 731.363 150.463 731.712C150.8 732.062 151.256 732.258 151.732 732.259H236.372C236.849 732.259 237.305 732.063 237.642 731.714C237.979 731.365 238.168 730.892 238.168 730.398C238.168 729.905 237.979 729.432 237.642 729.083C237.305 728.734 236.849 728.538 236.372 728.538H151.737Z" fill="#877373"/>
<path d="M151.737 739.702C151.501 739.702 151.268 739.75 151.05 739.843C150.832 739.936 150.634 740.073 150.467 740.245C150.13 740.594 149.94 741.067 149.939 741.56C149.939 742.054 150.127 742.527 150.463 742.877C150.8 743.226 151.256 743.423 151.732 743.423H188.155C188.631 743.424 189.088 743.229 189.425 742.88C189.762 742.532 189.952 742.059 189.953 741.565C189.953 741.072 189.765 740.598 189.429 740.249C189.092 739.899 188.636 739.703 188.16 739.702H151.737Z" fill="#877373"/>
<path d="M187.453 666.299C187.002 666.337 186.581 666.549 186.274 666.894C185.967 667.239 185.797 667.691 185.797 668.16C185.797 668.629 185.967 669.081 186.274 669.426C186.581 669.771 187.002 669.983 187.453 670.021H265.64C266.091 669.983 266.512 669.771 266.819 669.426C267.126 669.081 267.296 668.629 267.296 668.16C267.296 667.691 267.126 667.239 266.819 666.894C266.512 666.549 266.091 666.337 265.64 666.299H187.453Z" fill="#E6E6E6"/>
<path d="M187.968 677.446C186.767 677.446 185.794 678.28 185.794 679.307C185.794 680.334 186.767 681.168 187.968 681.168H290.457C291.657 681.168 292.631 680.334 292.631 679.307C292.631 678.28 291.657 677.446 290.457 677.446H187.968Z" fill="#E6E6E6"/>
<defs>
<clipPath id="clip0">
<rect x="827" y="209" width="478" height="336" fill="white"/>
</clipPath>
</defs>
</svg>
