<svg width="1169" height="685" viewBox="0 0 1169 685" fill="none" xmlns="http://www.w3.org/2000/svg">
<g clip-path="url(#clip0)">
<path d="M1040.75 256C1015.43 256 990.687 248.493 969.637 234.428C948.588 220.363 932.181 200.372 922.493 176.984C912.805 153.595 910.271 127.858 915.209 103.028C920.148 78.1989 932.339 55.3915 950.24 37.4904C968.141 19.5893 990.949 7.39845 1015.78 2.45954C1040.61 -2.47937 1066.34 0.05546 1089.73 9.74348C1113.12 19.4315 1133.11 35.8376 1147.18 56.8871C1161.24 77.9366 1168.75 102.684 1168.75 128C1168.71 161.936 1155.21 194.471 1131.22 218.467C1107.22 242.464 1074.69 255.962 1040.75 256V256ZM1040.75 2.00005C1015.83 2.00005 991.469 9.38983 970.748 23.2349C950.028 37.0799 933.878 56.7585 924.341 79.7819C914.805 102.805 912.309 128.14 917.171 152.581C922.033 177.023 934.033 199.474 951.655 217.096C969.276 234.717 991.727 246.717 1016.17 251.579C1040.61 256.441 1065.94 253.946 1088.97 244.409C1111.99 234.872 1131.67 218.723 1145.52 198.002C1159.36 177.281 1166.75 152.921 1166.75 128C1166.71 94.5944 1153.43 62.5677 1129.8 38.9463C1106.18 15.3249 1074.16 2.03785 1040.75 2.00005V2.00005Z" fill="#3F3D56"/>
<path d="M1041.18 192.64C1076.68 192.64 1105.45 163.864 1105.45 128.367C1105.45 92.8702 1076.68 64.0942 1041.18 64.0942C1005.68 64.0942 976.906 92.8702 976.906 128.367C976.906 163.864 1005.68 192.64 1041.18 192.64Z" fill="#AD9A9A"/>
<path d="M1045.42 128.517H64.2437V621.441H1045.42V128.517Z" fill="#74A08A"/>
<path opacity="0.1" d="M707.849 271.021H339.908V523.323H707.849V271.021Z" fill="black"/>
<path d="M1129.15 63.9448C1143.46 63.9448 1155.07 52.3416 1155.07 38.0283C1155.07 23.715 1143.46 12.1118 1129.15 12.1118C1114.84 12.1118 1103.23 23.715 1103.23 38.0283C1103.23 52.3416 1114.84 63.9448 1129.15 63.9448Z" fill="#495A61"/>
<path d="M93.4454 158.886C99.8964 158.886 105.126 153.657 105.126 147.206C105.126 140.755 99.8964 135.525 93.4454 135.525C86.9943 135.525 81.7647 140.755 81.7647 147.206C81.7647 153.657 86.9943 158.886 93.4454 158.886Z" fill="#706C69"/>
<path d="M129.655 158.886C136.107 158.886 141.336 153.657 141.336 147.206C141.336 140.755 136.107 135.525 129.655 135.525C123.204 135.525 117.975 140.755 117.975 147.206C117.975 153.657 123.204 158.886 129.655 158.886Z" fill="#706C69"/>
<path d="M165.866 158.886C172.317 158.886 177.546 153.657 177.546 147.206C177.546 140.755 172.317 135.525 165.866 135.525C159.414 135.525 154.185 140.755 154.185 147.206C154.185 153.657 159.414 158.886 165.866 158.886Z" fill="#706C69"/>
<path d="M200.908 311.903H177.546V335.265H200.908V311.903Z" fill="#706C69"/>
<path d="M912.26 515.147H888.899V538.508H912.26V515.147Z" fill="white"/>
<path d="M829.893 372.71L811.732 387.405L826.426 405.566L844.587 390.871L829.893 372.71Z" fill="#706C69"/>
<path d="M747.563 670.5H14.017V275.693H16.353V668.164H747.563V670.5Z" fill="#3F3D56"/>
<path d="M761.58 684.516C758.577 684.516 755.641 683.626 753.144 681.957C750.646 680.289 748.7 677.917 747.551 675.142C746.402 672.368 746.101 669.315 746.687 666.369C747.273 663.423 748.719 660.718 750.843 658.594C752.966 656.47 755.672 655.024 758.617 654.438C761.563 653.852 764.616 654.153 767.391 655.302C770.166 656.452 772.537 658.398 774.206 660.895C775.874 663.392 776.765 666.328 776.765 669.331C776.76 673.357 775.159 677.217 772.312 680.064C769.465 682.91 765.606 684.512 761.58 684.516V684.516ZM761.58 656.483C759.039 656.483 756.554 657.236 754.441 658.648C752.329 660.06 750.682 662.067 749.709 664.414C748.737 666.762 748.482 669.346 748.978 671.838C749.474 674.33 750.697 676.62 752.494 678.417C754.291 680.214 756.581 681.437 759.073 681.933C761.566 682.429 764.149 682.175 766.497 681.202C768.845 680.23 770.851 678.583 772.263 676.47C773.675 674.357 774.429 671.873 774.429 669.331C774.425 665.925 773.07 662.659 770.661 660.25C768.252 657.841 764.986 656.486 761.58 656.483V656.483Z" fill="#3F3D56"/>
<path d="M15.1849 276.861C12.1816 276.861 9.24574 275.97 6.7486 274.302C4.25146 272.633 2.30518 270.262 1.15587 267.487C0.00656426 264.712 -0.294147 261.659 0.291765 258.714C0.877677 255.768 2.3239 253.062 4.44754 250.939C6.57118 248.815 9.27687 247.369 12.2224 246.783C15.168 246.197 18.2212 246.498 20.9959 247.647C23.7705 248.796 26.1421 250.743 27.8106 253.24C29.4792 255.737 30.3698 258.673 30.3698 261.676C30.3653 265.702 28.764 269.562 25.9173 272.409C23.0705 275.255 19.2108 276.857 15.1849 276.861V276.861ZM15.1849 248.827C12.6436 248.827 10.1595 249.581 8.04649 250.993C5.93353 252.405 4.28667 254.411 3.31418 256.759C2.34169 259.107 2.08725 261.69 2.58302 264.183C3.07879 266.675 4.30251 268.965 6.09944 270.762C7.89637 272.558 10.1858 273.782 12.6782 274.278C15.1706 274.774 17.7541 274.519 20.1019 273.547C22.4497 272.574 24.4564 270.927 25.8682 268.814C27.28 266.702 28.0336 264.217 28.0336 261.676C28.0298 258.27 26.6748 255.004 24.2661 252.595C21.8573 250.186 18.5914 248.831 15.1849 248.827V248.827Z" fill="#3F3D56"/>
<path d="M234.782 592.239L224.351 621.441H200.908V591.655C202.636 554.289 223.603 536.721 224.257 536.184C208.5 551.38 210.252 603.92 210.252 603.92C220.765 558.365 230.109 557.197 230.109 557.197C224.456 565.689 221.536 604.317 221.36 606.723C222.061 598.605 234.782 592.239 234.782 592.239Z" fill="#F2F2F2"/>
<path d="M960.151 596.211V621.441H942.128L933.286 596.666C933.286 596.666 943.366 601.712 943.927 608.148C943.787 606.163 941.474 575.606 936.988 568.878C936.988 568.878 944.406 569.801 952.746 605.929C952.746 605.929 954.124 564.264 941.637 552.209C942.163 552.642 958.785 566.565 960.151 596.211Z" fill="#F2F2F2"/>
<path d="M644.715 523.318H616.305L616.115 520.988L614.045 495.018V495.008L611.895 468.008L625.005 412.318L636.145 423.458V476.528C636.145 476.528 642.695 486.358 641.385 488.978C640.075 491.598 638.765 491.598 640.075 493.558C641.385 495.528 642.695 496.838 641.385 498.148C640.747 499 640.403 500.035 640.403 501.098C640.403 502.162 640.747 503.197 641.385 504.048C642.695 505.358 645.315 507.318 643.345 509.288C641.385 511.248 638.765 509.938 641.385 517.148C641.865 518.481 642.468 519.767 643.185 520.988C643.652 521.792 644.163 522.57 644.715 523.318V523.318Z" fill="#E5E5E5"/>
<path d="M557.189 343.847L553.258 383.159L593.225 389.056L596.173 366.452L599.122 343.847H557.189Z" fill="#FFB9B9"/>
<path opacity="0.1" d="M557.189 343.847L553.258 383.159L593.225 389.056L596.173 366.452L599.122 343.847H557.189Z" fill="black"/>
<path d="M579.138 356.623C596.507 356.623 610.588 342.543 610.588 325.174C610.588 307.805 596.507 293.724 579.138 293.724C561.769 293.724 547.688 307.805 547.688 325.174C547.688 342.543 561.769 356.623 579.138 356.623Z" fill="#FFB9B9"/>
<path d="M499.665 523.318C499.555 523.088 499.435 522.848 499.315 522.588C499.085 522.098 498.835 521.568 498.565 520.988C496.825 517.108 494.695 511.588 495.925 509.938C497.895 507.318 498.545 504.698 497.235 503.388C495.925 502.078 491.995 504.698 495.925 501.418C499.855 498.148 501.165 500.108 499.855 496.178C498.545 492.248 495.925 494.218 498.545 492.248C501.165 490.288 503.135 490.938 501.825 488.978C500.515 487.008 497.895 487.008 500.515 485.698C503.135 484.388 505.105 485.698 504.445 482.418C503.785 479.148 503.135 480.458 504.445 479.148C504.785 478.808 505.975 475.508 507.565 470.798C512.015 457.488 519.515 432.938 519.515 431.968C519.515 430.658 509.035 389.388 509.035 389.388L504.445 386.758C504.445 386.758 484.135 400.518 477.585 431.318C471.025 462.108 466.445 469.978 466.445 469.978C466.445 469.978 459.895 471.288 464.475 475.868C469.065 480.458 469.065 479.798 465.135 482.418C461.205 485.038 458.585 479.798 461.205 485.038C463.825 490.288 467.095 488.978 464.475 492.248C461.855 495.528 457.275 495.528 459.895 498.148C462.515 500.768 457.275 506.668 460.545 509.288C463.825 511.908 465.135 512.558 465.135 517.148C465.136 518.435 465.24 519.719 465.445 520.988C465.558 521.774 465.718 522.552 465.925 523.318C466.075 523.928 466.225 524.388 466.325 524.678L499.665 523.318Z" fill="#E5E5E5"/>
<path d="M499.665 523.318H502.335L502.475 522.388L499.315 522.588L487.825 523.318L466.325 524.678L499.665 523.318Z" fill="#3F3D56"/>
<path d="M513.615 495.528L507.725 475.218L507.565 470.798L504.445 386.758L543.105 373.008L549.655 367.758C549.655 367.758 550.965 352.688 552.935 351.378C553.645 350.908 554.785 351.458 556.295 352.738C558.945 354.988 562.745 359.478 567.345 364.488C574.555 372.348 589.625 371.038 594.205 368.418C594.794 368.075 595.406 367.771 596.035 367.508C599.325 366.148 600.755 367.108 600.755 367.108C604.035 369.728 596.175 378.248 596.175 378.248C596.175 378.248 598.795 384.138 615.825 390.038C632.865 395.938 636.145 423.458 636.145 423.458C636.145 423.458 615.825 478.488 616.485 482.418C617.045 485.788 614.725 493.008 614.045 495.008V495.018C613.935 495.338 613.865 495.528 613.865 495.528L615.355 520.988L615.495 523.318H516.385C516.09 522.508 515.719 521.727 515.275 520.988C515.165 520.808 515.045 520.618 514.925 520.428C509.035 511.248 513.615 495.528 513.615 495.528Z" fill="#E5E5E5"/>
<path d="M547.47 329.203C547.47 329.203 544.204 324.304 545.461 319.028C546.211 316.033 546.508 312.942 546.34 309.859C546.34 309.859 548.978 301.317 551.615 296.544C554.253 291.771 552.997 289.761 561.287 288.254C569.578 286.746 566.186 275.944 588.043 287.626C588.78 288.655 589.806 289.443 590.991 289.89C592.176 290.337 593.466 290.423 594.7 290.138C599.222 289.258 600.855 295.539 600.855 295.539C600.855 295.539 603.87 293.78 605 296.293C606.131 298.805 614.191 294.785 614.191 311.742C614.191 328.7 605.018 343.847 605.018 343.847C605.018 343.847 605.691 315.323 590.743 312.434C575.796 309.545 559.717 301.129 555.823 311.931C553.722 317.994 550.918 323.791 547.47 329.203Z" fill="#2F2E41"/>
<path d="M605.346 335.985C606.974 335.985 608.294 334.225 608.294 332.054C608.294 329.883 606.974 328.123 605.346 328.123C603.718 328.123 602.398 329.883 602.398 332.054C602.398 334.225 603.718 335.985 605.346 335.985Z" fill="#FFB9B9"/>
<path d="M339.905 252.328V523.318H769.755V252.328H339.905ZM767.425 520.988H342.245V254.668H767.425V520.988Z" fill="white"/>
</g>
<defs>
<clipPath id="clip0">
<rect width="1168.75" height="684.517" fill="white"/>
</clipPath>
</defs>
</svg>
